/* XPM */
static char *result[] = {
/* columns rows colors chars-per-pixel */
"64 64 254 2 ",
"   c #090807",
".  c #1A0504",
"X  c #10130C",
"o  c #171A16",
"O  c #3A0905",
"+  c #2D130E",
"@  c #351808",
"#  c #0E3A09",
"$  c #15370C",
"%  c #132B12",
"&  c #193816",
"*  c #262709",
"=  c #372F0E",
"-  c #27330C",
";  c #252919",
":  c #3A2616",
">  c #263515",
",  c #110F24",
"<  c #25112C",
"1  c #13332A",
"2  c #32342F",
"3  c #460805",
"4  c #4D0A04",
"5  c #530504",
"6  c #5B0503",
"7  c #540805",
"8  c #451407",
"9  c #56180B",
"0  c #610203",
"q  c #55240C",
"w  c #4F2E13",
"e  c #5E2A1B",
"r  c #453514",
"t  c #483428",
"y  c #0D4608",
"u  c #12440B",
"i  c #134C0B",
"p  c #0D5506",
"a  c #155709",
"s  c #13540C",
"d  c #135A0C",
"f  c #0D4A1C",
"g  c #174615",
"h  c #165612",
"j  c #2A5010",
"k  c #166A07",
"l  c #14620C",
"z  c #136A0A",
"x  c #0F7A03",
"c  c #137406",
"v  c #117B03",
"b  c #15750B",
"n  c #167A0A",
"m  c #196814",
"M  c #177916",
"N  c #2C6C0A",
"B  c #144B2E",
"V  c #294A26",
"C  c #324F2E",
"Z  c #156E2D",
"A  c #176436",
"S  c #336C2A",
"D  c #4F440A",
"F  c #704D0A",
"G  c #446605",
"H  c #6E600F",
"J  c #4C4D37",
"K  c #755239",
"L  c #47653D",
"P  c #477A3C",
"I  c #08244E",
"U  c #152F4E",
"Y  c #24235D",
"T  c #171C71",
"R  c #173171",
"E  c #533C42",
"W  c #14544F",
"Q  c #1D5F58",
"!  c #174669",
"~  c #525A4D",
"^  c #556A4D",
"/  c #5C655C",
"(  c #6C644D",
")  c #68755A",
"_  c #6F726C",
"`  c #885A0A",
"'  c #915C0E",
"]  c #996E12",
"[  c #B37925",
"{  c #8C6849",
"}  c #0E8302",
"|  c #148708",
" . c #189709",
".. c #188916",
"X. c #189510",
"o. c #248C13",
"O. c #249A15",
"+. c #19A608",
"@. c #1CAB0B",
"#. c #1CB605",
"$. c #1CBD05",
"%. c #1DB309",
"&. c #1EBB09",
"*. c #1EA711",
"=. c #21A60F",
"-. c #21AB0D",
";. c #21B60B",
":. c #26A715",
">. c #24B612",
",. c #229633",
"<. c #4A9038",
"1. c #779F2A",
"2. c #749E34",
"3. c #749D38",
"4. c #4EA53E",
"5. c #53A43D",
"6. c #5AA93D",
"7. c #64AC3C",
"8. c #73A335",
"9. c #67B63D",
"0. c #6AB33F",
"q. c #74B73C",
"w. c #1BC102",
"e. c #1EC507",
"r. c #26D00E",
"t. c #3BED22",
"y. c #3EF224",
"u. c #73C53B",
"i. c #46FA28",
"p. c #1F844C",
"a. c #218252",
"s. c #4C9D44",
"d. c #539446",
"f. c #688659",
"g. c #6A845C",
"h. c #4EA445",
"j. c #4CA847",
"k. c #4DA449",
"l. c #52A444",
"z. c #5BAA43",
"x. c #58A945",
"c. c #51A349",
"v. c #55A84F",
"b. c #63AC45",
"n. c #66B343",
"m. c #6AB242",
"M. c #6AB64B",
"N. c #73B942",
"B. c #76B847",
"V. c #6FB952",
"C. c #748C6B",
"Z. c #77C14F",
"A. c #AF8D12",
"S. c #B18925",
"D. c #85BD3E",
"F. c #D59115",
"G. c #EAA415",
"H. c #CAA726",
"J. c #8BC63C",
"K. c #96C73E",
"L. c #95CA3D",
"P. c #F5D113",
"I. c #829271",
"U. c #89AC69",
"Y. c #8DC542",
"T. c #8AC747",
"R. c #94CB42",
"E. c #94C948",
"W. c #90CA53",
"Q. c #9ED063",
"!. c #1A1791",
"~. c #172B8B",
"^. c #173289",
"/. c #162996",
"(. c #1914AA",
"). c #1C17B5",
"_. c #2713A7",
"`. c #1725AA",
"'. c #1634AF",
"]. c #1625B6",
"[. c #232AB8",
"{. c #2437BA",
"}. c #3739B6",
"|. c #493FB8",
" X c #1A4686",
".X c #1C419B",
"XX c #1542B7",
"oX c #2657A0",
"OX c #344AB7",
"+X c #1072AE",
"@X c #454A85",
"#X c #494DB7",
"$X c #5D63B8",
"%X c #6E78A6",
"&X c #1815CA",
"*X c #1915D5",
"=X c #1F1BD4",
"-X c #1724C5",
";X c #1235CE",
":X c #1526D2",
">X c #1537D6",
",X c #2A2EC8",
"<X c #243ACA",
"1X c #1244DA",
"2X c #0C55D9",
"3X c #1556D8",
"4X c #2C51CE",
"5X c #2C4AD7",
"6X c #126ED8",
"7X c #3767DA",
"8X c #3671D8",
"9X c #0E5FE1",
"0X c #1959E4",
"qX c #0E69E5",
"wX c #1464E4",
"eX c #0C77E4",
"rX c #1375E3",
"tX c #3B6CE2",
"yX c #3078E6",
"uX c #4A6ED1",
"iX c #6E7AC4",
"pX c #7B89B2",
"aX c #0585DE",
"sX c #3A96DE",
"dX c #0786E1",
"fX c #1A90E7",
"gX c #3C86EA",
"hX c #2D9AEE",
"jX c #2EA5F1",
"kX c #37A9F5",
"lX c #4899D2",
"zX c #4589E9",
"xX c #4593EE",
"cX c #4E91EF",
"vX c #4898F1",
"bX c #49A9F8",
"nX c #46B5FD",
"mX c #4BB4FE",
"MX c #54B0F5",
"NX c #839283",
"BX c #959792",
"VX c #94A98E",
"CX c #8796B2",
"ZX c #9CACA5",
"AX c #B1B7B0",
"SX c #BFDA90",
"DX c #BFC3BE",
"FX c #C4E499",
"GX c #C1C4BF",
"HX c #BBCFEC",
"JX c #C5C6C4",
"KX c #D9D9DB",
"LX c #EAEAEA",
"PX c #FAFCFD",
/* pixels */
"LXQ.L.R.J.L.L.L.L.L.L.L.L.L.L.L.R.R.L.L.R.R.R.L.L.L.R.L.R.R.R.R.K.K.R.K.K.K.K.R.Y.R.K.L.L.L.L.L.L.L.L.R.R.K.K.K.K.L.L.K.L.L.SXGX",
"FXT.9.Z.q.q.q.u.N.q.N.q.q.N.N.N.N.q.q.N.N.B.N.N.m.N.N.N.N.s s s h s s s s h s s S B.N.N.N.q.N.q.N.q.N.N.N.N.N.N.q.q.N.q.q.q.Q.VX",
"J.z.j.l.4.h.h.h.h.h.h.h.h.h.h.j.l.6.5.h.x.k.l.4.4.^ g g ..;.&.$.&.&.&.&.&.&.&.&.:.h g j h.k.j.h.h.h.h.h.l.h.l.l.h.h.h.h.j.h.N.8.",
"Y.z.4.l.h.h.j.j.4.h.h.k.j.k.k.h.x.M.b.k.l.k.^ V V o.-.%.#.w.$.w.w.w.w.w.$.w.e.w.$.%.>.X.h f.k.k.h.j.k.k.k.k.l.l.l.k.h.5.h.v.M.8.",
"Y.z.l.x.v.b.k.k.l.l.l.l.l.x.c.l.5.m.b.l.v.S m c X.;.w.w.w.w.$.w.$.w.$.w.w.e.t.t.y.t.r.#.O.M ~ k.l.l.c.l.l.c.c.l.k.l.b.m.x.k.n.3.",
"T.z.h.l.Z.m.4.j.l.l.l.x.l.l.l.h.4.5.l.h.P p | @.e.w.w.w.w.w.w.w.w.w.w.w.w.e.t.y.i.i.y.t.e.+.M d.l.l.l.k.l.h.c.c.c.x.B.Y.B.c.m.3.",
"J.6.v.k.z.z.h.k.c.c.c.z.V.x.c.k.h.4.l.V u n @.w.w.w.w.w.w.w.w.$.w.$.$.w.w.w.$.r.t.i.i.i.r.w.>.s L c.c.l.l.l.s.k.k.k.6.m.z.h.n.2.",
"J.z.j.k.k.k.j.h.}.-X-X-X}.x.h.h.s.s.l.V p } %.$.#.#.#.#.#.#.#.$.w.w.w.w.w.w.w.w.e.t.i.i.e.w.&.p C l.j.x.b.l.c.k.k.l.h.h.h.h.m.2.",
"Y.z.k.c.s.k.pX{.cXbXkXrX6X{.,X#Xl.c.g m v } @.*...M M M M M M O.$.$.$.w.w.w.w.w.w.w.e.e.w.w.&.M V 1 I.6.Z.6.l.k.k.l.k.s.s.4.n.2.",
"Y.x.#X|.}.}.uXxXbXnXnXkXvXxXyX3X#XR & b n n | Q /././././././.W ..}  .$.w.$.w.$.w.w.w.$. .| ..! /.!.CXCXb.5.h.l.h.k.l.c.h.h.m.2.",
"Y.z.).5XtXtXsXnXhXfXhX8X5X4X6XeX2X'.R R R R ! .X7X7XtXtXtXtXtXtXOXR W X. .+.$.w.$.$.@...! R ! OXOXyXtXuXpXs.k.k.l.c.h.c.h.h.0.2.",
"D.z.$XuXyXmXmXkXfXdXaX1X>X;X2X2X9X1X>X;X1X5X5X7X8XmXmXbXyXyXyXMXhX5X5XW W A *.+.+.+.,.! OX4X5X5XbXmXmX4X,Xk.c.k.k.h.k.c.h.h.m.2.",
"R.z.c.$X{.zXxXxXbXhXdXfXfXeX1X*X:X2XeXeXdXfXkXnXmXbXvXuX}.|.4XzXvXxXbXyX,X.XA A A A ! <XXXzXcXzXxXvXMX5X,Xl.l.l.k.k.k.l.h.h.m.2.",
"T.x.c.x.h.}.[.,XvXbXbXbXjXeX>X:XqXqXaXaXdXaXaXkXnXmX5X#XLXI I }.).].cXbXcXbXzX].].`.{.7XcX,X&X[.-X4XMX5X}.h.l.c.l.k.l.5.5.k.m.2.",
"Y.x.s.s.h.l.b.CX4X,X<X<X,X:X*X:XeXeXaXaXaXaXdXkXnXbX5X#XLXI I PXKXKX[.<X<XxXbXxXgXvXxX7X}.I I HXuXrXmX4X}.h.h.h.h.h.h.M.M.k.m.2.",
"D.7.5.l.h.l.x.5.CXCXpXCXiX=X*X:XeXeXdXeXdXaXaXkXnXbX<X|.PXI I PXPXPX!.,XtXbXmXnXkXnXmXoXKXI I PXlXrX4XiXCXh.h.j.s.k.h.M.b.k.0.2.",
"K.b.c.h.k.h.l.l.s.c.c.CXpXtX,X:XrXeXqX2X2XqXdXkXnXmX8XiXPXI I PXPXKX!.4XnXjXhXhXjXjXkX! KXI I PXlX9X&XpXc.c.h.h.v.v.k.5.l.c.0.2.",
"Y.x.c.l.h.h.v.U.U.VXCX#X5XbX5X:X0X0X'.!./.'.qXgXsXkXkXMX<X1X<X4X<XI '.XXlX+X+X+X+X+X+XU 5XI I HXsXqX&X%Xc.k.h.k.l.c.h.l.h.h.m.2.",
"Y.b.b.0.z.k.C.X , T {.zXbXvX5X&X).R f Z W `.`.`.1X6XeXeX6X6X6X6X6X+X+XoXp f f f f f f u <X<X<X+X6X9X`.C x.k.l.l.7.7.l.s.s.l.0.2.",
"D.8.V.W.b.s.) , !.OXvXbXxX;X0X+XU f z v M Z Z ! ].].].-X].-X-X-X^.B Z =.@.@.-.-.@.@.*.:.:...B `./.^.m m V C.l.5.I.; ; ~ k.c.0.2.",
"R.6.z.n.x.v.) , (.4XmXnXkX2XeX+X1 d x x c x +.X.p.a.a.a.Q W W Z X.X.+.&.w.w.w.w.w.w.w.w.w.@...B B n x z # f.l./ t O . C k.k.m.2.",
"T.z.l.5.l.c.%XT 4XgXmXjXfXaX9XXX1 p x x x x %.e.w.w.w.e.%.+.+.@.w.w.w.$.w.w.w.w.w.w.w.w.$.e.e...M x x z # L ) @ O 6 . 2 k.k.0.2.",
"T.b.k.l.l.l.iX).gXkXkX6X9XwX).T L A z x x x +.@.w.w.w.w.+.X.o.X.X.;.w.w.w.w.w.w.w.w.w.$. .@.w.&.@.} z d % X . 6 5 3 t ) k.k.0.2.",
"T.x.k.c.l.v.pX&X0XrXrX].(._.T 2 ZXC.V m c c x X.%.$.$.@.S V V B C O.-.-.-.-.%.-.-.*.@.O.m S :.%.+.z i % . O 0 5 O 2 h.l.c.k.0.2.",
"T.z.j.h.k.k.pX).:X-X].Y < 3 7 3 + _ ZXC & u z } } @.*.p C.AXAXDXKXL g g g g & g g g g V ZXC.y b z # X . 4 6 7 . / k.h.h.h.k.0.2.",
"Y.6.h.h.s.s.k.c.x.l.l.4.c.. 3 0 3 : ~ U.) X & y g X.%.O.S L J BXPXJXDXDXDXDXJXJXGXJXJXAX^ C l p $   + 3 6 O + h.k.k.4.h.k.k.0.2.",
"J.z.k.h.k.c.l.l.k.k.h.h.k.h.t O 6 O X / ~ 2 o o * m n X.X.M n P NXNXNXNXNXC.NXNXC.NXNXI.V d h # X O 5 5 O t h.k.k.h.h.h.h.h.9.2.",
"J.z.k.l.k.l.l.h.c.k.k.h.h.k.c.J O .   ; t ~ o . @ @ = j N ..O.M l z l d m d l d d l l m z i X   . 6 5 O ~ v.h.h.l.x.5.h.s.s.n.2.",
"J.z.k.k.k.k.k.k.c.c.c.c.c.k.k.k.X   < ~ t 8 @ + @ 3 6 6 @ - * N O.:.=.=.=.=.=.=.-.-.:.O.g o o   . 3 : ~ h.k.h.4.5.V.n.l.h.s.n.3.",
"J.z.h.l.k.j.k.k.s.x.z.l.c.k.v.j.o 2 / : w J r = $ * 8 6 6 6 6 8 * u y i i p g y y y u $ & C ~ + . . I.s.c.h.l.l.x.M.z.l.l.k.9.3.",
"K.z.h.l.l.l.h.k.l.b.Z.5.l.l.l.2 ~ E : w w r - u d k j @ 4 0 0 5 @ j n :.=. .O...j * 8 4 @ ; j l k $ ) s.c.h.k.c.c.l.l.l.l.c.9.3.",
"Y.6.h.4.n.9.j.k.l.z.n.l.l.x.N.z.2 : + t = > a n +.+. .N j 5 0 0 4 = a  . . . .a - 3 6 6 3 o. .+.+.b a ~ h.c.k.k.c.l.c.h.k.h.9.3.",
"Y.6.h.5.B.q.j.k.c.l.c.c.k.x.B.6.+ @ w t = # z  .;.w.;.-.N - 8 6 0 O - G N G G = 8 6 6 7 N @.#.$.$. .z L l.s.k.k.k.l.h.h.l.k.n.3.",
"Y.z.k.h.V.N.5.k.l.c.k.k.k.l.x.l.: t D r > # x  .w.#.+.} c a @ 3 0 4 9 F ' ` F q 3 6 4 a z } +.#.$. .x <.5.5.k.k.k.k.h.l.k.k.m.3.",
"Y.z.k.h.b.b.k.k.l.l.l.k.k.l.l.h.: : r : = y *.$.$. .v v p $ = 8 6 0 5 8 [ S.8 4 0 6 7 - p v x  .$.w. .S 2.l.l.k.h.h.c.l.k.k.0.3.",
"J.z.h.l.h.l.j.k.l.l.k.l.k.k.h.l.+ w D - i b @.w.#. .c b u j H.] 8 6 6 7 9 9 5 6 0 3 ' j i v v  .$.w.+.c i <.l.c.c.h.h.c.k.h.0.2.",
"Y.z.k.h.k.k.k.k.s.s.l.l.l.h.I.J t t D & m *.$.w.$. .k p j H P.P.H.w 5 0 0 4 4 3 9 [ F.F j y k  .$.w.$.@.l b.7.s.k.l.k.l.c.k.0.2.",
"Y.b.k.l.h.k.k.k.h.h.k.k.j.l.( O r w = $ l *.$.%.+.} k # w ' P.P.P.e O 4 0 0 4 O w G.G.] w # k | +.%.w.+.l 7.5.k.h.k.l.4.k.k.0.2.",
"T.z.s.h.h.l.l.h.h.k.c.h.l.x.( @ w r : U U A Z ,.x k s $ D ' F.F.[ q 3 3 5 6 0 7 9 [ F.' D $ h k b ,.A W h.h.5.h.h.h.k.l.4.h.0.2.",
"Y.z.k.s.h.l.l.l.h.k.h.l.b.V.( + E 2 U `.-X-X;X^.A B 1 % D F F e 4 7 6 6 q q 6 0 6 5 F F D $ 1 B A  X;X-X-X`.s.h.s.h.h.M.M.h.m.3.",
"Y.b.s.h.l.k.h.h.l.h.l.x.M.B.( < _._.].wXqXqXqX3X).).~.1 @ 8 @ 8 6 0 7 8 [ S.8 5 6 6 4 @ + 1 !.).).3XqXqXrXwX].)._.<.h.m.m.l.m.2.",
"T.z.s.l.k.k.h.x.l.h.h.x.Z.7.( < ).>X0X>X>X>X>X:X*X=X!.1 @ 7 O O 3 8 O O F w O + 3 3 4 7 O 1 !.=X=X:X>X>X>X>X0X>X).d.h.5.l.k.n.2.",
"Y.b.l.l.k.k.l.M.M.l.k.x.v.6.( o Y '.1X=X`.! ! R T T U & 8 6 7 4 4 7 4 8 K K K K K 7 6 6 O ; U T T R ! ! _.*X1X'.T P 5.h.j.k.9.3.",
"Y.b.l.5.h.k.s.M.M.l.k.l.l.l.( + % U ^.~.W .. .n d d g $ @ 7 6 5 5 5 5 4 K { { { { 9 5 4 + $ h h d | | X.W ^.^.U % P h.j.k.k.0.2.",
"T.6.5.5.k.k.l.l.l.l.k.k.s.k.) : & h M M O.$.$.$.;.e.O.$ - @ 8 9 q q w q w q w q 9 8 @ * * $ O.e.;.$.w.&. .M M h & P k.l.k.j.9.2.",
"E.n.M.v.l.k.h.h.k.l.k.k.h.j.v.k.& p | @.&.#.$.w.w.;.O.y a N F ] G.G.G.G.] ` G.G.F.F G N i # O.;.w.w.w.$.&.-.| p & l.l.l.h.j.9.2.",
"T.7.V.z.k.l.h.k.k.h.k.k.h.k.k.l.& d } &.+. .%.w.;.n a k c N F A.P.P.P.P.] ] P.P.P.` N b p z s b w.w.%.| @.#.| s & z.l.l.k.h.n.2.",
"T.6.5.l.k.k.h.l.k.h.h.k.h.h.k.x.& s } %. .p | +.>.l u n v k j H A.A.A.A.` ` A.A.S.N N k p m y d >.+.| p X.%.} a & b.s.l.k.k.9.2.",
"Y.6.5.x.k.h.h.l.k.h.l.l.k.k.k.l.) S k  .n # z  .>.l y c | | # - D w D r D D D D G v | ..s l u d >. .z # M X.k S q.B.x.l.h.k.0.2.",
"Y.6.l.h.h.l.k.h.k.l.l.x.l.j.k.l.6.) % d a $ d | :.d p | @.:.u $ - $ - - $ $ y d v } +.>.i m p m :.| p # h m % Z.7.D.b.h.k.k.0.2.",
"Y.z.s.4.h.k.k.l.k.k.z.V.l.h.k.c.v._ o ; g $ $ u y z | #.w.*.u % = = = = - u b x } ;.$.%.y ^ <.M y y y $ & > & z.D.m.x.l.k.h.0.2.",
"Y.z.s.s.j.l.k.k.l.k.z.V.x.h.k.c.C _ AXGXC.1 h m M X.>.>.>.:.& * @ @ @ @ ; u M b ..>.e.:.h 1 C VXZXVX^ 1 k.l.c.l.m.z.k.c.c.k.0.2.",
"Y.x.s.c.h.k.l.k.h.h.l.5.l.h.C.~ BXGXKX_ @X!.^.^.~. X X X X X!.@Xh.M.V.5.@X~.~.^.^. X X X~.@XC.^ _ LX_ ; k.k.k.j.l.s.c.k.k.k.0.2.",
"Y.z.k.l.k.l.k.k.h.h.l.h.h.h.~ 2 KXAX_ / R &X>X>X>X1X>X1X1X1X&X$Xl.x.x.j.#X*X>X1X1X1X1X>X*X$Xv.C._ I.2 ; c.k.k.k.k.l.c.k.l.h.n.2.",
"Y.z.k.l.c.x.v.k.h.h.s.h.h.s.~ o ZX_ ~ l.b.&X0X9XqX9X9XwXwX0X&X$Xh.h.j.l.#X:X9XwXwXwXwX0X&X$Xh.h.z.J o ; c.h.h.s.l.0.N.z.l.l.m.2.",
"Y.z.k.l.x.V.V.l.l.k.s.4.h.5.~   o ) 5.l.x._.`.].].].].`.].].).$Xh.h.x.h.#X(.).].`.`.].].(.$Xh.h.c.c./ 2 k.k.c.v.x.B.J.9.h.h.n.2.",
"Y.z.k.h.l.7.z.c.c.l.h.s.h.c.~ ; 6.q.z.j.v.1 B Z Z ,.,.,.,.,.1 ) h.h.k.l.~ 1 A A Z ,.,.,.1 ) h.s.s.v.c.l.h.h.h.h.l.z.b.x.l.h.n.3.",
"Y.x.k.h.l.l.l.c.h.k.c.h.c.k.k.h.4.9.n.j.k.# k x x #.e.w.e.%.y ^ h.h.k.l.^ y x x } %.e.e.p ^ k.k.s.k.c.h.k.h.h.h.h.h.h.k.l.l.n.2.",
"Y.z.k.k.k.l.c.k.h.h.h.k.k.k.l.k.k.x.c.c.k.# z |  .#.w.w.e.:.# ^ l.c.k.k.L # x | +.$.e.;.y d.s.k.k.k.h.k.h.h.h.c.h.l.h.h.l.l.n.2.",
"Y.z.j.h.l.k.s.l.h.4.k.c.k.k.k.v.k.j.c.l.h.# l  .&.+.O.X.X.o.h P k.l.l.c.L y x +.;. .O.o.z ^ k.k.4.h.l.h.j.h.h.l.k.k.k.l.c.l.n.2.",
"Y.z.k.x.z.l.k.x.x.h.x.6.k.k.4.l.z.z.x.x.x.# z %.%.s # i >...g $ k.k.k.h.L y c %.y g :...i # k.j.h.x.l.h.c.h.l.6.4.h.k.x.z.6.m.8.",
"J.7.6.B.W.m.x.m.B.l.z.u.c.c.s.x.B.n.B.M.M.$ l -.:.:.m y :.%.:.i O.j.h.l.L u b :.m # O.>.:.i k.j.j.T.B.l.5.l.6.Z.7.4.s.N.Y.0.0.3.",
"J.B.q.J.R.D.q.D.J.q.q.J.q.q.q.N.T.B.Y.Y.D.Y.S s h d u $ h s h # k.k.k.q.Z.C.g d y & h d h % k.k.k.R.J.B.q.B.N.Y.N.q.B.D.R.J.D.1.",
"E.W.W.K.R.R.E.R.L.L.R.R.R.K.R.E.R.E.T.L.R.T.C.g.g.g.g.g.g.g.g.g.f.g.U.W.E.R.g.g.g.g.g.f.g.g.f.f.I.R.K.E.R.W.W.W.E.L.R.W.W.W.W.1."
};
