/* XPM */
static char *result[] = {
/* columns rows colors chars-per-pixel */
"64 64 9 1 ",
"  c #3DB188",
". c #3DB189",
"X c #6FC8A0",
"o c #6FC9A0",
"O c #6FC9A1",
"+ c #70C9A1",
"@ c #A0E0C0",
"# c #A1E0C1",
"$ c #A1E1C1",
/* pixels */
"XXXX++++++++++++ooooXXXXOOOO++++oooo++++XXXX++++++++++++oooo++++",
"XXXX++++++++++++ooooXXXXOOOO++++oooo++++XXXX++++++++++++oooo++++",
"XXXX++++++++++++ooooXXXXOOOO++++oooo++++XXXX++++++++++++oooo++++",
"XXXX++++++++++++ooooXXXXOOOO++++oooo++++XXXX++++++++++++oooo++++",
"XXXXXXXX++++++++++++++++OOOOOOOOXXXX++++OOOO++++++++++++OOOO++++",
"XXXXXXXX++++++++++++++++OOOOOOOOXXXX++++OOOO++++++++++++OOOO++++",
"XXXXXXXX++++++++++++++++OOOOOOOOXXXX++++OOOO++++++++++++OOOO++++",
"XXXXXXXX++++++++++++++++OOOOOOOOXXXX++++OOOO++++++++++++OOOO++++",
"++++XXXXXXXXOOOO++++++++XXXX++++++++++++OOOO++++++++XXXXooooOOOO",
"++++XXXXXXXXOOOO++++++++XXXX++++++++++++OOOO++++++++XXXXooooOOOO",
"++++XXXXXXXXOOOO++++++++XXXX++++++++++++OOOO++++++++XXXXooooOOOO",
"++++XXXXXXXXOOOO++++++++XXXX++++++++++++OOOO++++++++XXXXooooOOOO",
"++++++++OOOOXXXX++++....++++++++++++++++++++++++++++XXXX++++++++",
"++++++++OOOOXXXX++++....++++++++++++++++++++++++++++XXXX++++++++",
"++++++++OOOOXXXX++++....++++++++++++++++++++++++++++XXXX++++++++",
"++++++++OOOOXXXX++++....++++++++++++++++++++++++++++XXXX++++++++",
"++++++++....XXXX++++    oooo++++    XXXXXXXXooooOOOOXXXX++++++++",
"++++++++....XXXX++++    oooo++++    XXXXXXXXooooOOOOXXXX++++++++",
"++++++++....XXXX++++    oooo++++    XXXXXXXXooooOOOOXXXX++++++++",
"++++++++....XXXX++++    oooo++++    XXXXXXXXooooOOOOXXXX++++++++",
"++++++++++++    ++++++++++++....++++++++++++OOOO++++OOOOXXXX++++",
"++++++++++++    ++++++++++++....++++++++++++OOOO++++OOOOXXXX++++",
"++++++++++++    ++++++++++++....++++++++++++OOOO++++OOOOXXXX++++",
"++++++++++++    ++++++++++++....++++++++++++OOOO++++OOOOXXXX++++",
"++++oooo++++XXXX++++++++++++++++++++++++++++XXXX++++XXXXXXXX++++",
"++++oooo++++XXXX++++++++++++++++++++++++++++XXXX++++XXXXXXXX++++",
"++++oooo++++XXXX++++++++++++++++++++++++++++XXXX++++XXXXXXXX++++",
"++++oooo++++XXXX++++++++++++++++++++++++++++XXXX++++XXXXXXXX++++",
"++++++++XXXX++++++++++++++++OOOOXXXX++++ooooXXXXooooOOOO++++OOOO",
"++++++++XXXX++++++++++++++++OOOOXXXX++++ooooXXXXooooOOOO++++OOOO",
"++++++++XXXX++++++++++++++++OOOOXXXX++++ooooXXXXooooOOOO++++OOOO",
"++++++++XXXX++++++++++++++++OOOOXXXX++++ooooXXXXooooOOOO++++OOOO",
"++++++++OOOO++++oooo++++ooooXXXXooooXXXXOOOO++++XXXX++++XXXXXXXX",
"++++++++OOOO++++oooo++++ooooXXXXooooXXXXOOOO++++XXXX++++XXXXXXXX",
"++++++++OOOO++++oooo++++ooooXXXXooooXXXXOOOO++++XXXX++++XXXXXXXX",
"++++++++OOOO++++oooo++++ooooXXXXooooXXXXOOOO++++XXXX++++XXXXXXXX",
"OOOOXXXXXXXX++++ooooOOOOOOOO++++XXXX++++XXXX$$$$++++++++oooo++++",
"OOOOXXXXXXXX++++ooooOOOOOOOO++++XXXX++++XXXX$$$$++++++++oooo++++",
"OOOOXXXXXXXX++++ooooOOOOOOOO++++XXXX++++XXXX$$$$++++++++oooo++++",
"OOOOXXXXXXXX++++ooooOOOOOOOO++++XXXX++++XXXX$$$$++++++++oooo++++",
"XXXX++++ooooOOOOOOOO++++oooo++++@@@@oooooooo$$$$++++++++@@@@++++",
"XXXX++++ooooOOOOOOOO++++oooo++++@@@@oooooooo$$$$++++++++@@@@++++",
"XXXX++++ooooOOOOOOOO++++oooo++++@@@@oooooooo$$$$++++++++@@@@++++",
"XXXX++++ooooOOOOOOOO++++oooo++++@@@@oooooooo$$$$++++++++@@@@++++",
"++++++++XXXX++++XXXXoooo++++++++++++@@@@++++OOOOOOOO####OOOOXXXX",
"++++++++XXXX++++XXXXoooo++++++++++++@@@@++++OOOOOOOO####OOOOXXXX",
"++++++++XXXX++++XXXXoooo++++++++++++@@@@++++OOOOOOOO####OOOOXXXX",
"++++++++XXXX++++XXXXoooo++++++++++++@@@@++++OOOOOOOO####OOOOXXXX",
"XXXX++++++++OOOOXXXXOOOOOOOO++++XXXX++++oooo++++XXXX++++XXXX++++",
"XXXX++++++++OOOOXXXXOOOOOOOO++++XXXX++++oooo++++XXXX++++XXXX++++",
"XXXX++++++++OOOOXXXXOOOOOOOO++++XXXX++++oooo++++XXXX++++XXXX++++",
"XXXX++++++++OOOOXXXXOOOOOOOO++++XXXX++++oooo++++XXXX++++XXXX++++",
"++++++++++++XXXXOOOOOOOOOOOO++++ooooXXXX++++++++++++++++++++++++",
"++++++++++++XXXXOOOOOOOOOOOO++++ooooXXXX++++++++++++++++++++++++",
"++++++++++++XXXXOOOOOOOOOOOO++++ooooXXXX++++++++++++++++++++++++",
"++++++++++++XXXXOOOOOOOOOOOO++++ooooXXXX++++++++++++++++++++++++",
"++++++++++++++++++++XXXXOOOO++++XXXXXXXXXXXXXXXX++++++++++++++++",
"++++++++++++++++++++XXXXOOOO++++XXXXXXXXXXXXXXXX++++++++++++++++",
"++++++++++++++++++++XXXXOOOO++++XXXXXXXXXXXXXXXX++++++++++++++++",
"++++++++++++++++++++XXXXOOOO++++XXXXXXXXXXXXXXXX++++++++++++++++",
"++++++++++++++++++++ooooXXXX++++XXXXXXXXooooOOOO++++OOOO++++++++",
"++++++++++++++++++++ooooXXXX++++XXXXXXXXooooOOOO++++OOOO++++++++",
"++++++++++++++++++++ooooXXXX++++XXXXXXXXooooOOOO++++OOOO++++++++",
"++++++++++++++++++++ooooXXXX++++XXXXXXXXooooOOOO++++OOOO++++++++"
};
