/* XPM */
static char *result[] = {
/* columns rows colors chars-per-pixel */
"64 64 28 1 ",
"  c #345606",
". c #345607",
"X c #345707",
"o c #355707",
"O c #34902B",
"+ c #34912B",
"@ c #34912C",
"# c #35912C",
"$ c #10A067",
"% c #10A167",
"& c #11A168",
"* c #80D05E",
"= c #80D05F",
"- c #80D15F",
"; c #81D15F",
": c #3CB188",
"> c #3DB188",
", c #3DB189",
"< c #6FC8A0",
"1 c #6FC9A0",
"2 c #6FC9A1",
"3 c #70C9A1",
"4 c #B8F888",
"5 c #B9F888",
"6 c #B9F889",
"7 c #B9F989",
"8 c #88D9B9",
"9 c #89D9B9",
/* pixels */
"<<<<33333333222222223333111122221111<<<<<<<<<<<<<<<<333322223333",
"<<<<33333333222222223333111122221111<<<<<<<<<<<<<<<<333322223333",
"<<<<33333333222222223333111122221111<<<<<<<<<<<<<<<<333322223333",
"<<<<33333333222222223333111122221111<<<<<<<<<<<<<<<<333322223333",
"333333333333222233332222@@@@OOOO@@@@OOOO8888333333332222<<<<3333",
"333333333333222233332222@@@@OOOO@@@@OOOO8888333333332222<<<<3333",
"333333333333222233332222@@@@OOOO@@@@OOOO8888333333332222<<<<3333",
"333333333333222233332222@@@@OOOO@@@@OOOO8888333333332222<<<<3333",
"3333222222223333++++OOOO5555--------5555OOOOOOOO3333999911113333",
"3333222222223333++++OOOO5555--------5555OOOOOOOO3333999911113333",
"3333222222223333++++OOOO5555--------5555OOOOOOOO3333999911113333",
"3333222222223333++++OOOO5555--------5555OOOOOOOO3333999911113333",
"1111<<<<3333OOOO7777555577777777555555555555;;;;++++333333333333",
"1111<<<<3333OOOO7777555577777777555555555555;;;;++++333333333333",
"1111<<<<3333OOOO7777555577777777555555555555;;;;++++333333333333",
"1111<<<<3333OOOO7777555577777777555555555555;;;;++++333333333333",
"33332222OOOO----55555555555544445555444466665555;;;;####<<<<2222",
"33332222OOOO----55555555555544445555444466665555;;;;####<<<<2222",
"33332222OOOO----55555555555544445555444466665555;;;;####<<<<2222",
"33332222OOOO----55555555555544445555444466665555;;;;####<<<<2222",
"33333333@@@@--------55554444--------66665555****----OOOO<<<<<<<<",
"33333333@@@@--------55554444--------66665555****----OOOO<<<<<<<<",
"33333333@@@@--------55554444--------66665555****----OOOO<<<<<<<<",
"33333333@@@@--------55554444--------66665555****----OOOO<<<<<<<<",
"3333OOOO****####55555555555555556666555555555555OOOO----@@@@<<<<",
"3333OOOO****####55555555555555556666555555555555OOOO----@@@@<<<<",
"3333OOOO****####55555555555555556666555555555555OOOO----@@@@<<<<",
"3333OOOO****####55555555555555556666555555555555OOOO----@@@@<<<<",
"3333----OOOO----44444444444455557777777755556666----OOOO---->>>>",
"3333----OOOO----44444444444455557777777755556666----OOOO---->>>>",
"3333----OOOO----44444444444455557777777755556666----OOOO---->>>>",
"3333----OOOO----44444444444455557777777755556666----OOOO---->>>>",
"<<<<oooo;;;;++++----77777777----****55557777----OOOO****....$$$$",
"<<<<oooo;;;;++++----77777777----****55557777----OOOO****....$$$$",
"<<<<oooo;;;;++++----77777777----****55557777----OOOO****....$$$$",
"<<<<oooo;;;;++++----77777777----****55557777----OOOO****....$$$$",
"1111OOOO----OOOO------------====----********====@@@@----OOOO%%%%",
"1111OOOO----OOOO------------====----********====@@@@----OOOO%%%%",
"1111OOOO----OOOO------------====----********====@@@@----OOOO%%%%",
"1111OOOO----OOOO------------====----********====@@@@----OOOO%%%%",
"2222....OOOO--------++++@@@@----;;;;OOOOOOOO--------OOOO....%%%%",
"2222....OOOO--------++++@@@@----;;;;OOOOOOOO--------OOOO....%%%%",
"2222....OOOO--------++++@@@@----;;;;OOOOOOOO--------OOOO....%%%%",
"2222....OOOO--------++++@@@@----;;;;OOOOOOOO--------OOOO....%%%%",
"3333....OOOOOOOO********----OOOO++++====****----@@@@@@@@    $$$$",
"3333....OOOOOOOO********----OOOO++++====****----@@@@@@@@    $$$$",
"3333....OOOOOOOO********----OOOO++++====****----@@@@@@@@    $$$$",
"3333....OOOOOOOO********----OOOO++++====****----@@@@@@@@    $$$$",
"3333,,,,XXXX++++OOOOOOOO@@@@--------OOOOOOOOOOOOOOOO....&&&&::::",
"3333,,,,XXXX++++OOOOOOOO@@@@--------OOOOOOOOOOOOOOOO....&&&&::::",
"3333,,,,XXXX++++OOOOOOOO@@@@--------OOOOOOOOOOOOOOOO....&&&&::::",
"3333,,,,XXXX++++OOOOOOOO@@@@--------OOOOOOOOOOOOOOOO....&&&&::::",
"3333<<<<%%%%OOOOXXXXXXXXOOOO@@@@OOOOOOOO........OOOO%%%%,,,,3333",
"3333<<<<%%%%OOOOXXXXXXXXOOOO@@@@OOOOOOOO........OOOO%%%%,,,,3333",
"3333<<<<%%%%OOOOXXXXXXXXOOOO@@@@OOOOOOOO........OOOO%%%%,,,,3333",
"3333<<<<%%%%OOOOXXXXXXXXOOOO@@@@OOOOOOOO........OOOO%%%%,,,,3333",
"2222<<<<<<<<&&&&%%%%$$$$XXXX....XXXX....%%%%%%%%%%%%%%%%3333<<<<",
"2222<<<<<<<<&&&&%%%%$$$$XXXX....XXXX....%%%%%%%%%%%%%%%%3333<<<<",
"2222<<<<<<<<&&&&%%%%$$$$XXXX....XXXX....%%%%%%%%%%%%%%%%3333<<<<",
"2222<<<<<<<<&&&&%%%%$$$$XXXX....XXXX....%%%%%%%%%%%%%%%%3333<<<<",
"3333333333333333<<<<>>>>%%%%%%%%$$$$%%%%%%%%,,,,3333333333333333",
"3333333333333333<<<<>>>>%%%%%%%%$$$$%%%%%%%%,,,,3333333333333333",
"3333333333333333<<<<>>>>%%%%%%%%$$$$%%%%%%%%,,,,3333333333333333",
"3333333333333333<<<<>>>>%%%%%%%%$$$$%%%%%%%%,,,,3333333333333333"
};
