/* XPM */
static char *result[] = {
/* columns rows colors chars-per-pixel */
"64 64 252 2 ",
"   c #197B0C",
".  c #6A7E34",
"X  c #6D6B47",
"o  c #D7362A",
"O  c #E62A35",
"+  c #B3442A",
"@  c #DA4F36",
"#  c #ED4D37",
"$  c #D26438",
"%  c #E0673D",
"&  c #960555",
"*  c #84014D",
"=  c #BA1646",
"-  c #B00753",
";  c #B60A67",
":  c #AF0A66",
">  c #9E0860",
",  c #CD1255",
"<  c #F01D50",
"1  c #FD3948",
"2  c #F62B57",
"3  c #E9385A",
"4  c #FA3659",
"5  c #EA2D4F",
"6  c #C70967",
"7  c #D4076A",
"8  c #D61865",
"9  c #CA0C74",
"0  c #DB0D75",
"q  c #D50C76",
"w  c #C51977",
"e  c #DB147C",
"r  c #DC1A7D",
"t  c #D71479",
"y  c #CB106E",
"u  c #E40D76",
"i  c #E5177A",
"p  c #F21976",
"a  c #E71468",
"s  c #D82766",
"d  c #DE227C",
"f  c #D32C6F",
"g  c #E6286A",
"h  c #F7286A",
"j  c #F93866",
"k  c #E82779",
"l  c #F62976",
"z  c #E93678",
"x  c #F73779",
"c  c #D22F57",
"v  c #B3565A",
"b  c #D65B56",
"n  c #D84C4E",
"m  c #FD454B",
"M  c #F95549",
"N  c #EB4957",
"B  c #F8495A",
"V  c #FB5656",
"C  c #EA4E4C",
"Z  c #D46E4C",
"A  c #FB6755",
"S  c #EF6A51",
"D  c #FD4A6C",
"F  c #F94866",
"G  c #FD5A65",
"H  c #FC546C",
"J  c #FF5B6D",
"K  c #F65867",
"L  c #FD497A",
"P  c #FF5473",
"I  c #FE5B73",
"U  c #FE5C7B",
"Y  c #FF557C",
"T  c #FA6568",
"R  c #FA7768",
"E  c #FE6474",
"W  c #FF6279",
"Q  c #FF6C7B",
"!  c #FE6A74",
"~  c #FD747D",
"^  c #FC7775",
"/  c #E97267",
"(  c #CE7863",
")  c #1C880E",
"_  c #248A18",
"`  c #28AE19",
"'  c #37972A",
"]  c #34B127",
"[  c #14A30F",
"{  c #499730",
"}  c #4AAF31",
"|  c #37CE2D",
" . c #3FEC3C",
".. c #52DA2A",
"X. c #49D737",
"o. c #56DB38",
"O. c #45D32E",
"+. c #6FD836",
"@. c #55EA38",
"#. c #77F43B",
"$. c #6CEB36",
"%. c #3FB749",
"&. c #5CB953",
"*. c #61BD5E",
"=. c #39D84B",
"-. c #4BD446",
";. c #5BEB48",
":. c #53ED51",
">. c #6BF34B",
",. c #78F548",
"<. c #6FED52",
"1. c #76DA7A",
"2. c #6FD567",
"3. c #78E66B",
"4. c #6DED6D",
"5. c #62E463",
"6. c #87F43D",
"7. c #91F33D",
"8. c #90EE33",
"9. c #A5F13D",
"0. c #928E47",
"q. c #B1AC6C",
"w. c #AC9165",
"e. c #FB8676",
"r. c #F88B74",
"t. c #C28B66",
"y. c #88F442",
"u. c #98F645",
"i. c #85F55A",
"p. c #95F658",
"a. c #8EEE51",
"s. c #A6F548",
"d. c #AFF855",
"f. c #90DF75",
"g. c #8EEA6D",
"h. c #B1F46C",
"j. c #CAF96E",
"k. c #DB1A85",
"l. c #CE1C82",
"z. c #E90E86",
"x. c #E71984",
"c. c #F61D89",
"v. c #F71E92",
"b. c #ED188E",
"n. c #DB2586",
"m. c #DC3195",
"M. c #E82688",
"N. c #FA2C8A",
"B. c #F72888",
"V. c #E73888",
"C. c #FA338A",
"Z. c #F93988",
"A. c #E82896",
"S. c #F72B96",
"D. c #EA3697",
"F. c #F93696",
"G. c #F829A4",
"H. c #EC3BA6",
"J. c #F53CA5",
"K. c #EE30A6",
"L. c #FB1FA3",
"P. c #B15C8E",
"I. c #9A768D",
"U. c #B4799D",
"Y. c #B87AA4",
"T. c #CE4C95",
"R. c #FD4B83",
"E. c #FD4B8C",
"W. c #FB4587",
"Q. c #FF5385",
"!. c #FF5787",
"~. c #F84995",
"^. c #FC5896",
"/. c #EA4E93",
"(. c #D1729E",
"). c #FC6885",
"_. c #FB7985",
"`. c #FC6C9D",
"'. c #D957A9",
"]. c #E845A8",
"[. c #F848A5",
"{. c #F158AF",
"}. c #CC6CA6",
"|. c #D473A8",
" X c #FC67A4",
".X c #FC79A5",
"XX c #F869B7",
"oX c #E46EB4",
"OX c #3EB189",
"+X c #3EB087",
"@X c #44AE88",
"#X c #41B088",
"$X c #7EAB9A",
"%X c #7FA798",
"&X c #7CB59D",
"*X c #75BD9E",
"=X c #7BBB9E",
"-X c #77B69C",
";X c #6FAA8F",
":X c #78BFA0",
">X c #73D684",
",X c #72D28C",
"<X c #76D685",
"1X c #6FC99E",
"2X c #6FCA9B",
"3X c #71CE95",
"4X c #72C49F",
"5X c #79C39D",
"6X c #70CB9C",
"7X c #7BCB99",
"8X c #72D192",
"9X c #7ED499",
"0X c #74CE8F",
"qX c #6FC8A0",
"wX c #6FC7A0",
"eX c #72C6A0",
"rX c #70C9A1",
"tX c #79C4A1",
"yX c #998A95",
"uX c #879A95",
"iX c #8A9494",
"pX c #969A9A",
"aX c #8F8C93",
"sX c #A8869A",
"dX c #B1849E",
"fX c #82A699",
"gX c #86AD9D",
"hX c #8AA79B",
"jX c #90A39A",
"kX c #82B39E",
"lX c #85BB9B",
"zX c #98B79D",
"xX c #AA87A1",
"cX c #B592A9",
"vX c #98B8AA",
"bX c #8FB0A4",
"nX c #ADA8AD",
"mX c #A7B4A5",
"MX c #B2ACB2",
"NX c #AEB792",
"BX c #DA9099",
"VX c #F58C90",
"CX c #CE90AC",
"ZX c #CAA8A2",
"AX c #F68BB1",
"SX c #84DB83",
"DX c #8ADA93",
"FX c #A7E68E",
"GX c #95DDA0",
"HX c #C3F388",
"JX c #A0E0C0",
"KX c #A0DFC0",
/* pixels */
"qXwXqX1XrXrXrXrXrXrXrXrXrXrXrXrX1XrX1XrXqXqXqXqXqXqXqXqXrXrXrXrXqXqX1XrXrXrXrXrXqXqXqXqXrXrXrXrXrXrXrXrXqXrXrXrXqXqXqXqXrXrXrXrX",
"qXqXqXwXrXrXrXrXrXrXrXrXrXrXrXrXqX1XqXrXqXqXqXqXqXqXqXqXrXrXrXrXqXqXqX1XrXrXrXrXqXqXqXqXrXrXrXrXrXrXrXrXrXrXrXrXrXrXqXqXrXrXrXrX",
"wXqXqXwXrXrXrXrXrXqXrXrXrXqXrXrXqX1XqXqXqXqXqXqXrXrXqXqXrXrXqXqXqXrXrX1XrXrXrXrXqXqXqXqXrXrXrXrXrXqXrXrXrXrXrXrXrXrXrXqXrXrXrXrX",
"qXqXqXqXrXrXrXrXrXrXrXrXrXrXrXrXqXqXqXrXqXqXqXqXrXqXqXqXrXqXqXqXqXqXrXrXrXrXrXrXqXqXqXqXrXrXrXrXrXrXrXrXrXrXrXrXrXrXqXqXrXrXrXrX",
"qXqXqXqX1XwXwXwXrXrXrXrXrXrXrXrXrXrXrXrXrXrXrXrXrXrXqXqXqXqXqXqXqXqX1XrXrXrXrXrXrXrXrXqXqXqXrXrXrXrXrXrXrXrXrXrXrXrXqXqXrXrXrXrX",
"wX1XwXqXqXqX1XqXrXrXrXqXrXrXrXrXrXrXrXrXrXrXrXrXrXrXqXqXqXqXqXqXqX1XrX1XrX1X1XrXrXrXqXqXrXqXqXrXrXrXrXrXqXrXrXrXrXqXqXqXrXrXrXrX",
"qXqXqXqXwXqXwXqXrXrXrXrXrXrXrXrXrXrXrXrXrXrXrXrXrXrXrXqXqXrXrXrXqX6X1X1X1X6XrXrXrXrXqXrXrXrXrXrXrXrXrXrXrXrXrXrXrXrXqXqXrXrXqXrX",
"wXqXwXqXqXqXqXqXrXrXrXrXrXrXrXrXrXrXrXrXrXrXrXrXrXrXqXqXrXrXrX1X1X1X6X6X6X6XrX1XrXDXGX9XrXrXrXrXrXrXrXrXrXrXrXrXrXrXqXqXrXrXrXrX",
"rXrXrXrXqXqXqXqXqXqXqXqXqXqXqXqXrXrXrXrXrXrXrXrXqXqXqX1X2XqX2X2X3X6X1X3X6X6X6XDXFXHXf.DXrXqX1XrX6XrX6X6XqXqXqXqXqXqXqXqXqXqXqXrX",
"rXrXrXrXqXqXqXqXqXqXqXqXqXqXqXqXrXrXrXrXrXrXrXrXqXqX2XqX1X2X2X3X8X3X8X8X3XDXFXj.d.+.<XeXrX6XqX6XrXrX6X6X1XqXqXqXqXqXqXqXqXqXrXrX",
"rXrXqXrXqXqXqXqXqXqXqXqXrXrXqXqXrXrXrXrXrXrXrXrXqXqX1X6X6X6X3X3X8X,X8X8Xh.h.d.s.+.2.6XrX6X6X6X6X1X1X8XDXh.9XqXqXqXqXqXqXqXqXrXrX",
"rXrXqXqXqXqXqXqXqXqXqXqXrXrXrXqXrXrXrXrXrXrXrXrXqX2X1X6X6X8X3X,X,X>X<Xh.p.d.d.>.] >X6X6X6X3X6X6X1X9XFXs.7.SXqXqXqXqXqXqXqXqXrXrX",
"rXrXrXrXrXrXrXrXrXrXrXrXqXqXqXqXrXrXrXrXOX+X+X+XqXqX6X6X7X0X0X,X>X<Xh.p.p.p.,.| [ 5.9X8X8X8X8X3XDXh.d.8.g.9XrX6XrXrXrXrXrXrXrXrX",
"rXrXrXrXrXrXrXrXrXrXrXqXqXqXqXqXrXrXrXrXOX+X#X#XqX1X6X6X0X0X,X1.4.g.i.p.p.y.@.[ | 4.8X,X8X8X>XFXd.s.9.8.9X1X6XrXrXrXrXrXrXrXrXrX",
"rXrXrXrXrXrXrXrXrXrXqXqXqXqXqXqXrXrXrXrXOX#X@X@X6X7X6X7X0X0X0X1.g.g.i.i.i.@.| ] :.4.,X>X>Xf.h.s.s.s.8.g.6X1X1XqXrXqXrXrXrXrXrXrX",
"rXrXrXrXrXrXrXrXqXqXqXqXqXqXqXqXrXeXeX4X#X@X@X;XmXmXzX7X0X0X1.1.g.i.i.i.>.O.` -.4.>X>X<Xg.d.u.u.7.7.a.DX8X1X1XqXrXrXrXrXrXrXrXrX",
"rXrXrXrXrXrXrXrXOXOXOXOXqXqXqXwXrXrXeXtX@XjXVX! A T ! e.NX,X1.1.g.i.,.,.@.} ] :.3.1.3.p.s.u.u.7.7.6.<X,X3X2X2X1X1XqXrXrXrXrXrXrX",
"rXrXrXrXrXrXrXrXOXOXOXOXqXqXqXwXrXeXeX7XZX~ M M # # # C / t.<X2.g.i.>.@.O.{ -.:.3.3.y.u.u.7.7.6.#.3.<X,X3X3X2X1XqXqXrXrXrXrXrXrX",
"rXrXrXrXrXrXrXrXOXOXOXOXqXqXqXwXeXeX5XZX^ A A A A M # # o b q.f.4.<.@.o.} ] :.;.o.8.u.y.y.6.6.#.>.5.1.<X8X3X2X1XqXrXrXrXrXrXrXrX",
"rXrXrXrXrXrXrXrXOXOXOXOXqXqXqXwXeX5XmX~ A R e.e.e.A S # @ Z ( NX3.:.| } ' &.:.o.+.u.u.6.y.6.#.$.;.5.1.<X,X2X2X1XqXrXrXrXrXqXrXrX",
"rXrXrXqXrXrXrXrXrXrXrXqX+X+X+X#XeX5XBXV V e.r.r.e.V C M S % % Z t.q.} ' ' :.:.>.u.y.y.6.6.,.$...5.3.;.2.0X2X6X1X1XqXqXqXrXrXrXrX",
"rXrXrXqXrXrXrXrXrXrXrXrXOX+X+X#X5XlX_.m V R e.e.T V V S S Z % $ $ Z q.{ ' =.-.<.y.y.6.y.#.#...X.<.>.o.>X0X2X6X1XqXqXqXqXrXrXrXrX",
"rXrXqXqXqXrXrXrXrXrXqXqXOX+X+X@X5XvXU m V T R T G V A S r.r.S Z @ @ Z 0.' =.:.,.#.,.,.#.$...o.<.<.<.1.0X3X2X6X1X1XwXqXqXrXrXrXrX",
"rXrXqXrXrXrXrXrXrXrXqXwXOX+X#X@X5XzXI 1 M A T G G G R / r.r./ S @ # o + { %.=. .$.#.#.$...;.<.,.<.<X0X0X3X6X1X1XwXqXqXqXrXrXrXrX",
"rXrXrXrXqXqXqXqXqXrXrXrX1X1X4X5XlXlXQ 1 m V V G G E ! e.VXr.S C # o o n b b w.} | X.....;.>.<.1.>X,X8X8X2X6XqXqX1XqX1XwXrXrXqXrX",
"rXrXrXrXqXqXqXqXqXrXrXrX4X6X4X5XlXlXBX2 1 B B G T ! ! ^ ^ R T m O O / ^ n o n Z 0.|  .;.>.3.2.&.*.8X8X6X6XqXqXqXqXwXqXqXrXrXrXrX",
"rXrXrXrXrXqXrXrXrXrXrXrX4X4X4X5XmXCXL 5 1 B B G J E ! ! E E F 1 O K T C C C @ n b 0. .] } &.' ) >X3X6X6X2XqXqXqXqXqXqXwXrXrXrXrX",
"rXrXrXrXrXrXrXrXrXrXrXqX4X4X4XZX.X).j 5 3 N N K J I E E U P 4 < j H F K V C C 3 c b . _ _ )   &.3X3X6X2X2XqXqXqXqXwXqXqXrXrXrXrX",
"rXrXrXrXrXrXrXrXqXqXqXqXqXeXMX.X)._.P 4 B F K K K H Y Y L x < 2 D P ~ VX^ K N c g 3 v _ )   ' 9X2X2X2X2XqXqXqXrXrXrXrXrXqXqXqXqX",
"rXrXrXrXrXrXrXrXqXqXqXqXeXtXAX!.~ ).D B H H J H K F D L x 2 < j D Q VXVX_.U j k k f c v X ' 0X1X2X4X1X1XqXqXqXqXrXrXrXrXqXqXqXqX",
"rXrXrXrXrXrXrXrXqXqXqXqXeXmX^.D ! P j D H I J J P F 3 3 5 O h L Y )._.VX).R.p p M.d s H.K.{.nX1X4X2X4X1XqXqXrXrXrXrXrXrXrXrXqXqX",
"rXrXrXrXrXrXrXrXqXqXqXqXeXMXZ.j F 4 F I E E E E P Y j c = , l R.R.Y ).^.~.N.z.z.M.k.d N.A.G.].nX*X*X4X4XqXqXqXrXrXrXrXrXrXqXqXqX",
"rXrXrXrXrXrXrXrXqXqXwXrX7XMXx 2 2 j P Q Q ! ! E I P L 5 , , p W.E.Q.E.W.N.v.z.b.A.q V.h g M.A.{.lX*X*X1XeXqXqXrXqXqXwXqXqXqXqXqX",
"rXqXrXrXrXrXrXrXqXqXrXeX5XvX/.h j D I Q _._.Q W I D j l , = , c.F.Z.Z.C.N.v.b.b.9 n./.x z B.M.D.CX*X*X*X4XrXrXrXqXqXqXqXqXwXwX1X",
"rXrXrXrXrXrXqXrXqXrXrX5X5X5X(.B.x D I Q ~ ~ Q Q U L x l , = , u S.S.N.B.B.M.b.q w  X/.z z S.D.K.oX-X*X*XeXeXrXrXqXwXqXqXqXwXqXwX",
"rXrXrXrXrXrXqXqXqXrXrX6X5XlXzXBXL L I W E Q Q W Y x x g 8 p u 7 7 z.v.c.x.i 6 6 /.T.L /.V.D.D.J.oX$X-X*XeXeXeXrXqXqX1XwXqXqXqXqX",
"qXqXqXqXqXqXwX1XqXqX4X4X5XlXzX(.W.L I E W W W U R.Z.Z.8 p B.c.S.7 6 6 6 6 - 9 M.V./.z z V.D.H.J.oXfX$X:XwXwXrXrXqXqXqXqXrXrXrXrX",
"qXqXqXqXqXwXqXqXqXeX4X4X5XCX[.k z Q.Y U W W U Y R.Z.g l W.W.l c.v.z.6 - - y i k k k d d M.D.D.].oXfX$X:X:XwXrXrXqXqX1XqXrXrXrXrX",
"rXrXqXrXqXqXqXqXwX1X6X5XMX[.Z.l s W.!.Q.Y U Q.!.E.x k W.`.`.^.C.p z.u q 6 0 i i d d r n.n.V.H.].}.$X:X-XwXwXqXrXqXqXqXqXrXrXrXrX",
"rXrXrXrXqXqXwXqXwXqXqXvXoXl !.!.g z W.!.!.!.!.!.R.g l E..XAX`.Z.p u 0 0 9 q r d r i r d n.D.].{.xX$X:X:X*XwXwXqXqXqXqXqXrXrXrXrX",
"qXqXqXqXqXqXqXrXqX6XeXnX~.l Q.!.h s z L E.E.E.R.z g l E.`..X^.V.p u 0 0 q 9 r t e e r M.m.].].|.uX$X-X:XtXrXrXrXJXJXJXJX2XqXqXqX",
"qXqXqXqXqXqXrXrXqXwXrXMX[.p h l h s c s z z z f s k x x W.~.Z.B.p 0 q e t q e k.k.n.m.m.].].|.nXfX$X:X:XeXrXrXrXJXJXJXJXqXqXqXqX",
"qXqXqXqXrXrXrXrXwXwXwXgX|.B.l h h 8 s g s s s , 6 l Z.x x l k p u 0 e q e q 7 k.n.n.D.].].}.nXMX%X-X:XeXeXrXrXrXJXJXJXJXrXrXrXrX",
"qXqXqXqXrXrXrXrXwXeXeX:XbX[.c.l p , k N.W.z z 8 , B.Z.x x k k i k.0 q k.e q 6 0 n.T.T.P.dXcXnXmX-X-X:XeXrXrXrXrXJXJXJXJXrXrXrXrX",
"rXrXrXrXrXrXrXqXwX:XwX:X:XvX'.x.7 8 B.C.^..X XN.u u C.C.Z.k k k.0 k.k.k.t 9 k.k.T.P.I.I.aX%X%X$X&X*XwXwXJXJXJXJXqXqXqXqXqXqXqXqX",
"rXrXrXrXrXrXrXrXwXwX:X:XgXkX|.b.x.i B.C.^..X XC.u 6 z.J.S.S.M.M.x.x.A.k.t r k.A.P.I.I.aXiX%X$X-X:X:XwXwXJXJXJXJXqXqXqXqXqXqXqXqX",
"rXrXrXrXrXrXrXrX:X:X:X:XhXcXJ.L.v.c.B.C.E.^.^.N.z.z.9 l.A.S.S.A.A.k.k.l.k.A.m.'.I.I.aXiX%X$X-X:XeXeXwXwXJXJXJXJXqXqXqXqXqXqXqXqX",
"rXrXrXrXrXrXeXeX:X:X$XgXhX{.G.F.F.S.M.N.C.Z.C.B.b.L.l.* > ; w w l.k.k.A.A.K.].cXaX%X%X%X;X-X:XeXeXwXqXwXJXJXJXJXrXqXqXqXqXqXqXqX",
"qXqXqXqXrXrXeXeXeX:XkXhXxX[.S.F.~.F.B.M.N.N.N.F.G.v.; * > : ; 6 l.k.A.L.H.'.yXaXuX%X$X-X:X:XrXrX4XwXwXwXrXrXrXrXqXqXqXqXrXrXrXrX",
"qXqXqXqXrXrXeXtX:X:XkXjXxXJ.F.C.F.C.B.i b.B.S.S.S.; & > ; n.D.M.T.Y.}.Y.U.aXiX%X$X$X-X:X:XeXrXqX1XwXqXwXrXrXrXrXqXqXqXwXrXrXrXrX",
"qXqXqXqXrXrXeXeX:X:XhXjXdXF.C.C.B.N.N.x.i e t y > & > f V.~.[.[.U.%XiX%X%X%X$X$X-X-X*XwXwXwXqXqXwXqXqXwXrXrXrXrXqXqXqXqXrXrXrXrX",
"qXqXqXqXrXeXeXeX:XkXhXpXyX].N.C.C.C.C.B.M.k.6 : : w V.^. X{.K.CX%X%X%X%X%X-X-X-X*X*X:XeXwXqXrXrXqXqXqXqXrXqXrXrXqXqXqXqXrXrXqXrX",
"eXqXrXrXrXrXeXtX=X&XgXjXpX(.B.N.Z.C.C.C.S.A.l.A.A.[.XXXXXX[.oXkX$X-X-X-X-X*X*X*X4XeXeXwXqXqXqXrXqXqXqXrXrXrXrXrXrXrXrXrXrXrXrXrX",
"rXqXrXrXrXeXeXeX5XlXkXjXpXsX'.B.N.N.C.C.A.n.Y.bXoX{.{.XXXXCX:X:X-X*X-X-X*X*X*X1X1XwXeXwXqXqXrXrXrXrXrXrXrXrXrXrXrXrXrXrXrXrXrXrX",
"rXrXrXrXrXrXeXeX5X=XkXhXjXyXsX(.~.D.F.K.m.xXgXkX*XbXvXvXrXrXrXeXwX*X*XwXeX4X1XeXeXrXqXqXqXqXqXqXrXrXrXrXrXrXrXrXrXrXqXrXrXrXrXrX",
"rXrXrXrXrXrXrXeXeX*X&XgXhXpXpXyXsXU.U.xXpXkX&X=X4XeXqXqXrXrXrXrXwXwXwXwXeXwXwXrXqXrXrXrXqXqXqXqXrXrXrXrXrXrXrXrXrXrXrXrXrXrXrXrX",
"rXrXrXrXrXrXeXeXeX=X=XkXgXhXjXpXjXpXjXhXgXkX=X*XrXrXrXqXrXrXrXrXwXwXwXwXqXqXwXqXqXqXqXqXqXqXqXqXrXrXrXrXrXrXrXrXrXrXrXrXrXrXrXrX",
"rXrXrXrXrXrXrXrXeXeX*X:X&XkXgXgXhXgXgXkXkX:X*X4XrXqXqXrXrXrXrXrXwXwXqXwXqXqXqXqXqXqXqXqXqXqXqXqXrXrXrXrXrXrXrXrXrXrXrXrXrXrXrXrX",
"rXrXrXrXrXrXrXrXeX5XeX:X:X:XkXkXkXkX&X=X=X5XeX4XrXrXrXrXrXrXqXrXwXwXqXqXqXqXqXwXqXqXqXqXqXqXqXqXrXrXrXrXrXrXrXrXrXrXrXrXrXrXrXrX",
"rXrXrXrXrXrXrXrXrXrXeXeX:X:XeXtX:X:X:X5XeX4X4XeXrXrXrXrXrXrXqXqXqXqXqXqXqXqXqXqXqXqXqXqXqXqXqXqXrXrXrXrXrXrXrXrXrXrXqXrXrXrXrXrX",
"rXrXrXrXrXrXrXrXrXeXeXrXeXeXtXeX5XeXeXeXwXeXqXqXwXwXqXqXqXqXqXqXwXqXqXqXqXqXqXqXqXqXqXqXrXrXrXrXrXrXrXrXqXqXqXqXrXrXrXrXqXrXrXrX",
"rXrXrXrXrXrXrXrXrXrXrXeXeXeXeXeXeXeXeXeXwXwXwXqXrXrXqXwXqXqXqXqXwXqXwXqXqXqXqXqXqXqXqXqXrXrXrXrXrXrXrXrXqXqXqXqXrXrXqXrXrXrXrXrX",
"rXrXrXrXrXrXrXrXrXrXrXrXrXeXeXeXrXrXeXrXqXqXqXqXqXqXqXqXqXqXqXqXwXwXwXqXwXqXqXqXqXqXrXrXrXrXrXrXrXrXrXrXrXqXrXrXrXrXrXrXrXrXrXrX",
"rXrXrXrXrXrXrXrXrXrXrXrXrXrXrXrXrXrXrXrXqXqXqXqXwXqXqXwXqXqXqXqXwXwXqXqXqXqXqXqXqXqXqXrXrXrXrXrXrXrXrXrXrXrXrXrXrXrXrXrXrXrXrXrX"
};
