/* XPM */
static char *_847a44d1f0740bebec015c2d5d61bac9NdHSNBD4ZkSoPEL[] = {
/* columns rows colors chars-per-pixel */
"64 64 255 2 ",
"   c #01360D",
".  c #183A2A",
"X  c #303237",
"o  c #004816",
"O  c #005616",
"+  c #054D09",
"@  c #00671B",
"#  c #05761D",
"$  c #0B7913",
"%  c #154726",
"&  c #035525",
"*  c #165B28",
"=  c #104D2F",
"-  c #26442B",
";  c #294936",
":  c #245535",
">  c #385739",
",  c #314D32",
"<  c #026728",
"1  c #007B23",
"2  c #01732B",
"3  c #057C2A",
"4  c #016D3C",
"5  c #026A34",
"6  c #017B35",
"7  c #02743B",
"8  c #047D3A",
"9  c #057634",
"0  c #197029",
"q  c #2D6F33",
"w  c #435E37",
"e  c #63185D",
"r  c #453645",
"t  c #5A3A55",
"y  c #533451",
"u  c #623557",
"i  c #6E305B",
"p  c #783768",
"a  c #6F326B",
"s  c #5A1F5A",
"d  c #095950",
"f  c #3C5246",
"g  c #0A6A4A",
"h  c #0D7C44",
"j  c #0E7449",
"k  c #0A7945",
"l  c #107F46",
"z  c #127A4A",
"x  c #106E51",
"c  c #346E4A",
"v  c #3A6E61",
"b  c #4A4548",
"n  c #485848",
"m  c #574856",
"M  c #555655",
"N  c #4B5054",
"B  c #644957",
"V  c #596957",
"C  c #567858",
"Z  c #496E4B",
"A  c #575465",
"S  c #764768",
"D  c #695965",
"F  c #725873",
"G  c #58726C",
"H  c #686769",
"J  c #6D6F72",
"K  c #863D7F",
"L  c #814070",
"P  c #16861C",
"I  c #058C0E",
"U  c #02A803",
"Y  c #03BA08",
"T  c #05A517",
"R  c #0BB913",
"E  c #04862A",
"W  c #0A833D",
"Q  c #078839",
"!  c #02963A",
"~  c #15993D",
"^  c #128F23",
"/  c #338B37",
"(  c #17A23E",
")  c #19AB3C",
"_  c #17A93A",
"`  c #1BB33C",
"'  c #1CBB39",
"]  c #17BA34",
"[  c #09B42F",
"{  c #26B138",
"}  c #15D71B",
"|  c #06D10F",
" . c #01E703",
".. c #06F906",
"X. c #14E81A",
"o. c #1CF71D",
"O. c #1BFB1C",
"+. c #15F815",
"@. c #0DF111",
"#. c #21FF1B",
"$. c #35FF1D",
"%. c #15C72C",
"&. c #19D729",
"*. c #1DC535",
"=. c #1EC935",
"-. c #1CC238",
";. c #1CD735",
":. c #05C023",
">. c #23CA36",
",. c #22DD31",
"<. c #22D534",
"1. c #20D42C",
"2. c #1BE924",
"3. c #1CFD22",
"4. c #1CF725",
"5. c #19E534",
"6. c #22E52C",
"7. c #24EB2C",
"8. c #23ED2A",
"9. c #21F525",
"0. c #23FD24",
"q. c #25F42A",
"w. c #24FE2A",
"e. c #2CFE2B",
"r. c #2BFC27",
"t. c #30FF24",
"y. c #31FF2B",
"u. c #29ED32",
"i. c #26E234",
"p. c #2CFE32",
"a. c #29F733",
"s. c #35F93A",
"d. c #33EF3B",
"f. c #0D8B41",
"g. c #0B8343",
"h. c #118445",
"j. c #138C43",
"k. c #158A4A",
"l. c #099644",
"z. c #149342",
"x. c #159A41",
"c. c #15944A",
"v. c #199749",
"b. c #168452",
"n. c #129658",
"m. c #229E4D",
"M. c #32994F",
"N. c #16A749",
"B. c #1BB645",
"V. c #15A851",
"C. c #0CA849",
"Z. c #26B648",
"A. c #2BA852",
"S. c #38B65B",
"D. c #2BAE53",
"F. c #359662",
"G. c #37B162",
"H. c #4B9457",
"J. c #49AF4F",
"K. c #589D6C",
"L. c #6A8D6E",
"P. c #50AD72",
"I. c #63AD77",
"U. c #39D949",
"Y. c #38C358",
"T. c #32C84B",
"R. c #3AEA45",
"E. c #3BF143",
"W. c #39FA44",
"Q. c #29E246",
"!. c #26CE56",
"~. c #47CC54",
"^. c #41E74D",
"/. c #44F84B",
"(. c #4DF456",
"). c #4BFD53",
"_. c #49F256",
"`. c #54FC5B",
"'. c #55F65D",
"]. c #49E955",
"[. c #48C765",
"{. c #4ADA66",
"}. c #54D56A",
"|. c #5BDD70",
" X c #59C66F",
".X c #68D572",
"XX c #58E768",
"oX c #5BFB64",
"OX c #5EFC69",
"+X c #59F763",
"@X c #5FF573",
"#X c #63FA6C",
"$X c #66FA6C",
"%X c #66EB79",
"&X c #6AFD74",
"*X c #69FA75",
"=X c #71FC7C",
"-X c #74FB7A",
";X c #62E86C",
":X c #8E7488",
">X c #3DB189",
",X c #72938B",
"<X c #6ABB96",
"1X c #6AAE8F",
"2X c #7CADA3",
"3X c #68DC87",
"4X c #6FCA9E",
"5X c #70CD9E",
"6X c #75C897",
"7X c #72DC95",
"8X c #71D39A",
"9X c #73D897",
"0X c #71D28C",
"qX c #6EEB83",
"wX c #73EA8C",
"eX c #74E68B",
"rX c #76FB82",
"tX c #7BFC86",
"yX c #7DFD89",
"uX c #76F388",
"iX c #78E793",
"pX c #7CFA91",
"aX c #6FC8A0",
"sX c #6FC7A0",
"dX c #70C9A1",
"fX c #7AC4A6",
"gX c #888A88",
"hX c #88B9A3",
"jX c #A59AA2",
"kX c #82FF8D",
"lX c #88FD8D",
"zX c #86FF92",
"xX c #8BFF93",
"cX c #8DFF99",
"vX c #94FF9A",
"bX c #96FF98",
"nX c #82E592",
"mX c #8ECDA8",
"MX c #98FEA4",
"NX c #8FE1AA",
"BX c #A4FFA5",
"VX c #A8FFAA",
"CX c #B6FDB9",
"ZX c #AAEFB7",
"AX c #A3E2AE",
"SX c #B5D5C7",
"DX c #A0E0C0",
"FX c #BEFFC3",
"GX c #D8FFDB",
"HX c #C7F9CF",
"JX c #DCEAE4",
"KX c #FEFFFE",
"LX c #F3F8F7",
"PX c #E5F0ED",
"IX c #F1D7F2",
/* pixels */
"aXsXaX4XdXdXdXdXdXdXdXdXdXdXdXdXaXaX4XaXaXaXdXdX8XrXuX=X-XrXrXrXuXrXrXrXrXuXyXrXaXaXaXaXaXaXdXdXdXdXdXdXdXdXdXdXdXdXaXaXdXdXdXdX",
"aXaXaXsXdXdXdXdXdXdXdXdXdXdXdXdXaXaXaXaXaXaXdXdX5XkXtX*X&XtXkXyXyXyXyXyXkXxXJ.G fX<XaXaXaXaXdXdXdXdXdXdXdXdXdXdXaXaXaXaXdXdXdXdX",
"aXsXsXaXdXdXdXdXdXdXdXdXdXdXdXdXaXaXaXaX4XaX8XwXqXu./.GXGX'.u.E.E.E.E./.s./ , a A A 1XsXaXaXdXdXdXdXdXdXdXdXdXdXaXaXaXaXdXdXdXdX",
"4XaXaXaXdXdXdXdXdXdXdXdXdXdXdXdX4XaXaXaXaXaX8XcX-X..q.KXKX/...o.o.o.w.| I t w %.F A 4XsXaXaXdXdXdXdXdXdXdXdXdXdXaXaXaXaXdXdXdXdX",
"sXaXaXaXaXsXsXsXdXdXdXdXdXdXdXdXdXdXdXdX8XiX%X/.R._ ` <X1XZ.[ ` ` B.I % i : 2 ,.R.].iXiX5XdXdXdXdXdXdXdXdXdXdXdXdXdXaXaXdXdXdXdX",
"aXsXaXsXaXaX4XaXdXdXdXdXdXdXdXdXdXdXdXdXiXzX+X@.&.l j 1 # W b.c.l.& t N   # n.j.+.0.-XtX8XdXdXdXdXdXdXdXdXdXdXdXdXdXaXaXdXdXdXdX",
"aXsXaXsX4XsXaXaXdXdXdXdXdXdXdXdXdXdXdXdX7XkX#X#.6.j.h.z.z.W v.! = V D V 0X6X8 x.8.a.=XtX8XdXdXdXdXdXdXdXdXdXdXdXdXdXdXdXdXdXdXdX",
"aXaXaX4XsXdXaXsXdXdXdXdXdXdXdXdXdXdXdXaX8XvX&X#.7.j.h.j.j.V.9 - A m   mXKXLX2 ~ 0.p.yXcXdXdXaXaXdXdXdXdXdXdXdXdXaXdXdXdXdXdXdXdX",
"dXdXdXdXaXaXaXaXaXaXsXaXaXaXaXaXaXaX8X7XqXoX].=.' j.j.x.N.E q p c ~ A.nXHXAX3 z.*.>.'.+XeX9XaXaXdXdXaXaXaXaXaXaXaXaXaXaXaXaXaXaX",
"dXdXdXaXaXaXaXaXaXaXaXaXaXaXaXaXaXaXwXzX'.@.%.j g.6 f.Q + r D M.eXBXbXlXkX}.2 8 z h. ...#XkX9XaXdXdXaXaXaXaXaXaXaXaXaXaXaXaXdXdX",
"dXdXaXaXaXaXaXaXsX4XsXaXaXaXaXaXaXaXiXyX+XO.<.h k.S.T.* s > P `.-X#X#X#X$X{.A.A.W z.XX'.-XrX8X4XdXdXaXaXaXaXaXaXaXaXaXaXaXdXdXdX",
"dXdXaXaXaXaXaXaXaXaXsXaXaXaXaXaXaXaX7X=X).3.;.5 D.-XK.L D R w.q.9.9.#.X.X.d.BXuXE k.KXKXMX-X8X4XdXdXaXaXaXaXaXaXaXaXaXaXaXdXdXdX",
"dXdXdXdXdXdXdXdXdXaXaXaXaXaXaXaX5X8XiXMX#X} Q.G.9 Z D n ].W.&.,.,.,.,.6.2.d.tX@X8 k.JXJXlX+X3X6XdXsXsXsXaXaXaXaXdXdXdXdXaXaXaXaX",
"dXdXdXdXdXdXdXdXdXaXaXaXaXaXaXaXwX+XHXKXSX3 A.J.L.e I +.p.v.j j.~ h.j ' t.u.r.&.W W 8 ~ w.U V ,X,X,XsXaXaXdXaXaXdXdXdXdXaXaXdXaX",
"dXdXdXdXdXdXdXdXdXdXaXaXaXaXaXaXwXoXCXKXZX@ o u V T 6.e.2.x.h.j.h.j.h ' r.6.q.,.m.j.l.! P Z t G v r <XaXdXdXaXaXdXdXdXdXdXdXdXdX",
"dXdXdXdXdXdXdXdXdXdXaXaXaXaXaXaXwXkX'.e.[ . S C J.a.q.~ j.,.e.) g >.r.' j ) 9.d.lXpX9 o a M >.uX,X,XaXaXaXaXaXaXdXdXdXdXdXdXdXdX",
"dXdXdXdXdXdXdXdX>X>X>X>XaXaXsXsXiXcX).U b A f rXkXq.7.h.h 7.r.) g >.t.' g ( 4.W.xX[.; p q R &XxX<XaXaXaXaXaXaXaXaXdXdXdXdXdXdXdX",
"dXdXdXdXdXdXdXdX>X>X>X>XaXaXsXdXiXcX/ > B - [ /.i.~ ~ j.j.x.~ z.j.x.( x.j ( e.e.R t H : } w.OXyX5XaXaXaXaXaXaXaXdXdXdXdXdXdXdXdX",
"dXdXdXdXdXdXdXdX>X>X>X>XaXdXdXdX3Xq L M I k B.O.2.z l j.k.h.h.h.z.h.l h.l B.0.P n V = ! w.0.+XrX3X4XaXaXaXaXaXaXdXdXdXdXdXdXdXdX",
"dXdXdXdXdXdXdXdX>X>X>X>XdXdXiX Xk.e > E _ j.~ ` ( j.j.j.j.j.j.~ j.j.j.j.V.E * N y Y {.%XB.^ ZXGXMXqX8XaXaXaXaXaXdXdXdXdXdXdXdXdX",
"dXdXdXdXdXdXdXdXdXdXdXdX>X>X~.M n U I n.h l l l h.z.j.8 8 8 8 8 8 W v.V.< % L , | p.lXxXv.< IXKXFX`.wXaXaXaXaXaXaXaXaXaXdXdXdXdX",
"dXdXdXdXdXdXdXdXdXaXdXdX>X>XV Z ,XMXqX< ( ;.' h.z.W z.}.}.}.}.}.}.S.Q O M S % E q.q.-XkXv.9 |.-XrXuX7XaXaXaXaXaXaXaXaXaXdXdXdXdX",
"dXdXdXdXdXdXdXdXaXaXsXsX>X>XG M.KXKXSXO ' t.6.h.h.5 8 cXMXvXvXvXVXT.  i G * 8 B.0.y.lXcXm.k  ...).MX7XaXaXaXdXaXaXaXaXaXdXdXdXdX",
"dXdXdXdXdXdXdXdXaXaXaXsXv c U.).eXhXP.9 ` r.<.h v.[.[.(.(.(.(.`.E.> m n 5 C.k.z.] >.(.`.v.h B.] !.`.qXiX7XaXdXaXaXaXaXaXdXdXdXdX",
"dXdXdXdXaXaXaXaXdXdXdXdXc lXW.+.T < 6 x ) t.,.7 M.BXbX2.X.O.O.Y : J gXZ.2 W z.j.j l 2.o.Q 7 2 & [ ../.zXwXaXsXaXaXaXaXaXaXaXaXaX",
"dXdXdXdXaXaXaXaXdXdXdXdXrXcXd.#.) j ( ` ' 1.' 8 N.#X'.u.p.5.P > e / ).XXG.D.W j.j.z.7.q.S.S.1X1X^.@.(.zXwXaXaXaXaXaXaXsXaXaXaXaX",
"dXdXdXdXaXaXaXaXdXdXdXdXtXtXE.o.` g =.$.1.x l 7 Q 2.4.p.}   a M U O.+.`.CX%XW j.h.z.2.q.&X-XKXKXbX .(.zXwXaXaXaXaXaXsXaXdXdXaXaX",
"dXdXdXdXaXaXaXaXdXdXdXdXrXkXE.o.` j ) 6.` l v.A.Z.q.e.R : p ; ^ p.i.%.R.-X{.W j.h.j.6.q.$XrXZXSX;X .(.xXiXaXaXaXaXaXaXaXdXdXdXaX",
"dXdXdXdXdXdXdXdXaXaXaXaXrXyXE.o._ 9 W h.j.8 D.BXtXw.| y J > 3 C.k.h.x ] #.&.h.j.j.z.6.q.&XxXN.& ] O.OXlXF.sXaXaXdXdXdXdXdXdXdXaX",
"dXdXdXdXdXdXdXdXaXaXaXaXrXyXE.o.` b.c.f.j.8 A.xX$X^ n D : ! v.j.~ W z ' t.>.h.j.h.z.6.q.&XxXA.5 >.0.i.c G 4XaXaXdXdXdXdXdXdXdXaX",
"dXdXdXdXdXdXdXdXaXaXaXaXrXyXE. .CXKXmX# j.j.V.8 * V u @ ! v.j.j.j.h.h.j.~ z.j.j.l j.6.q.&XlXA.4 ;. .w u 1X4XaXaXdXdXdXdXaXdXdXdX",
"dXdXdXdXdXdXdXdXaXaXaXaXrXyXE. .VXKXmX@ z.V.< % e > Y ~ k.j.j.z.j.j.z.j.h.j.j.c.j.x.6.q.&XlXG.! # > L.L.3XaXaXaXdXdXdXdXaXdXdXdX",
"dXdXdXdXdXdXdXdXaXaXaXaXrXyXE.o.Z.b.c.v.~ O r L P } p.z.h.j.j.j.h.>.e.' j j.h.~ 7.u.7.7.$XMXZ.= F K K.tXiXdXdXdXaXaXaXaX4XsXaXaX",
"dXdXdXdXdXdXdXdXaXaXaXaXrXtXE.4.[ 7 l.! o u n P 3.p.u.z.j.j.z.j.l >.t.] 4 W h.N.r.r.8.7.lX XO b :XIXHX#XwXdXdXdXaXaXsXaXsXaXsXaX",
"dXdXdXdXdXdXdXdXaXaXsXaXrXkXE.o.) b.R q H m 3 0.u.( ( z.j.j.j.j.l =.#.^..X[.8 ~ N._ a.p.J.w e . _ #X=XrXwXdXdXdXaXsXaXaXaXsXaXaX",
"dXdXdXdXdXdXdXdXaXaXsX4XrXkX8...;.= q L.M < B.r.7.z z j.j.j.j.j.l >.+.'.VX%XW h.j c.2.U r H q 5 5.../.xXwXdXdXdXaX4XsXaXaXsX4XaX",
"aXaXaXaXaXaXaXaXaXaXaXaXrX*XCXHXl ; L * E c.x.' ) j.j.z.j.z.j.j.l =.O.(.bX|.W j.c.[ 0 t V K.!.k *.+.(.zXeXsXdXdXaXaXaX4XdXdXdXdX",
"aXaXaXaXsXaXsXaXaXaXaXaX-XyXIXjXp M O 9 l.3 8 l g.k.z.j.j.g.z j.h.=.O.(.vX|.W V.6 > L.M ~.VXS.4 >.O.(.kXwXaXdXdXaXaXaXaXdXdXdXdX",
"aXaXaXaXaXaXaXaXsXdXaXaXlX*X/ s X < C.Q m. XS.Q j.j.j.j.j.` >.~ j >.o.(.vX%Xl.< : p /  .XX Xm.7 >.o.(.lXwXdXdXdX4XaXaXaXdXdXdXdX",
"dXaXaXaXsXaXaXsXaXaXaXaX;Xn C q # n.j.8 [.BX%Xg g.z.j.7 9 7.t.( d -.O.`.VXXXo r a o | w.E 5 h j %.../.xXwXdXdXdXaXaXaXaXdXdXdXdX",
"aXaXaXaXaXdXdXdXaXaXaXaXc J H.s.R.( x.7 S.xXXX_ ) W c.S.S.i.9.' ~ <.0._.P.* i V $ -.).).v.h._ _ U./.|.iX7XdXdXdXDXDXDXDXaXdXdXdX",
"aXaXaXaXdXdXdXdX4XaXaXaXaXaXiXMX).O.-.5 [.BX$X+.2.8 v.bXBXu.X.q.e.9.w.T X m ; 3 4.s.kXzXm.7 ,.#.OXMX9XsXdXdXdXdXAXDXDXDXaXdXdXdX",
"aXaXaXaXdXdXdXdXaXaX4XaXaXdXpXyX/.O.' 4 D..XXXs.R.W j.|.;X^.s.u.q./.{ X H f 5 B.8.q.rXyXm.k <.O.&XrX1XsXdXdXdXdXDXDXDXDXdXdXdXdX",
"aXaXaXaXdXdXdXdXaXaXaXaXdXdXuXpX/.+.[ 2 W 2 A.bXqXj.W Q 9 uXBX).+./ L.S o ! b.z.X.9.kXxX! < &.w.T.q ,X2X<XdXdXdXDXDXDXDXdXdXdXdX",
"dXdXdXdXdXdXdXdX4XsXdXaXdXdXwXpX(.r.T.F.M.6 A.xX%XQ j.W f.|.yX*.I D D ^ 6 v.~ ( d.d.%X%XJ.F.R.| Z ,X,Xy A DXDXDXaXaXaXaXaXaXaXaX",
"dXdXdXdXdXdXdXdXaXaXsXaXdXdXsXdXeX'.HXKXSX@ D.lX%Xg.h.j.v.c.@ . L : 5 N.k._ #.s.lXkXQ 6 KXKXL., ,X4X1XG hXDXDXDXdXaXaXaXaXaXaXaX",
"dXdXdXdXdXdXdXdXaXsXaXdXdXdXdXdXeX#XHXKXDX@ A.lX%Xz.f.c.l.O m D - 3 C.j.g.) 4.d.kX-X8 z.GXjXM m >XdXdXdXDXDXDXDXdXdXaXaXaXsXaXaX",
"dXdXdXdXdXdXdXdXaXaXsXsXdXdXaXaXwXzX'.r.>.4 D.lX&X8.u._ = b M : ! N.h.j.g.f.z.z.z.v.V.5 0 Z m ~.8XaXaXaXDXDXDXDXdXdXaXaXaXaXaXaX",
"aXaXaXdXdXdXdXdXdXdXdXdXaXaXaXaXwXzX/...%.g A.xX&Xp.} - m m & ! v.j.j.j.f.f.j.h.l.f.@ f e $ ~.cX9XdXdX4XdXdXdXdXsXdXdXdXdXdXdXdX",
"aXaXaXsXdXdXdXdXdXdXdXdXaXaXaXaXwXzX_.o.=.4 A.cXtXR 0 S . R a.N.j ' 2.].nX}.W c.f.O B J P X.&XzX8XdXsXdXdXdXdXdXdXsXsXsXdXdXdXdX",
"aXaXsXaXdXdXdXdXdXdXdXdXdXdXaXaXqXzX).+.%.5 G.zX{ f i & 4 p.t._ d =.+.`.VX-Xf.Q % D N = 3.+.+XzX7XsXsXsXdXdXdXdXdXsXdX4XdXdXdXdX",
"aXsXaXaXdXdXdXdXdXdXdXdXdXdXaXaX8X8XqX#X].5.%.* u L.H.;.i._ ~ -.,.6.w.T.A.D.3 , M r T 5.+X#XeX9X5X5XdXsXdXdXdXdX4XsXsXdXdXdXdXdX",
"aXdXdXdXdXdXdXdXdXdXdXdXaXaXaXaXaXaX3XpX$X..> A b .XvX0.+.h.d &.O.o.O.] g.O ; F X 1 w.e.=XcX5XdX4XsXdXdXdXdXdXdXdXdXdXdXdXdXdXdX",
"dXdXdXdXdXdXdXdXdXdXdXdXaXaXaXaXaXaXDXLX6X  M f 1 ~.S.+XoX>.] ].#X`.-XZ.o M S o Q V.2.q.*XyX8XdXdXdXdXdXdXdXdXdXdXdXdXdXdXdXdXdX",
"dXdXdXdXdXdXdXdXdXdXaXaXaXaXaXaXsXsXJXjXL H 3 3 b.2 W vXBXs.+.-XVXMXnXq i n + # b.h X.X.#XpX9XaXdXdXdXdXdXdXdXdXdXdXdXdXdXdXdXdX",
"dXdXdXdXdXdXdXdXdXdXaXaXaXaXaXaX4X4XmXJ 1XZ f ;.] h.j.[.[.' %.~.}.) n H - k.NX6X] -._.'.eXiX8XaXdXdXdXdXdXdXdXdXdXdXdXdXdXdXdXdX",
"dXdXdXdXdXdXdXdXdXdXdXdXdXdXdXdXdXdXdXdXfXt N y.q.j.h.6 6 k b.l.o r f ; @ 0XKXKXO.3.kXxXaXaXaXaXdXdXdXdXdXdXdXdXdXdXdXdXdXdXdXdX",
"dXdXdXdXdXdXdXdXdXdXdXdXdXdXdXdXdXdXdXdX7X5XXXw.,.j.j.j.j.N.l.* f t L.G.E F.DXNX2.7.=XtX8XaXaXsXdXdXdXdXdXdXdXdXdXdXdXdXdXdXdXdX",
"dXdXdXdXdXdXdXdXdXdXdXdXdXdXdXdXdXdXdXdXiXzXOX+.&.1 3 h.V.5   u X ,XLXSX@ k & 1 X.4.=XtX5X4XsXaXdXdXdXdXdXdXdXdXdXdXdXdXdXdXdXdX",
"dXdXdXdXdXdXdXdXdXdXdXdXdXdXdXdXdXdXdXdX8XiX%Xs.R.P.P.B.# : a % $ MXHX.X^ ) ~ ) E.E.uXuX5XaXaXaXdXdXdXdXdXdXdXdXdXdXdXdXdXdXdXdX",
"dXdXdXdXdXdXdXdXdXdXdXdXdXdXdXdXaXaXdXdXaXaX8X&XMXKXKXY b V P } p.X.@.X.4.9.o.a.yXpXaXaXdXdXdXaXdXdXdXdXaXaXaXaXdXdXdXdXdXdXdXdX",
"dXdXdXdXdXdXdXdXdXdXdXdXdXdXdXdXaXaXdXdXaXaX8X&XVXLXgXb C / w.s.u.7.7.u.a.a.8.d.rXpXaXaXdXdXdXaXdXdXdXdXaXaXaXaXdXdXdXdXdXdXdXdX",
"dXdXdXdXdXdXdXdXdXdXdXdXdXdXdXdXaXaXaXaXaXaX4X5X<XC V m ~.=XrX=X=X=XrX=X-X-X=X-X5X5XaXaXdXdXaXaXdXdXdXdXaXaXaXaXdXdXdXdXdXdXdXdX",
"dXdXdXdXdXdXdXdXdXdXdXdXdXdXdXdXaXaX5XaXaXaX4X4X1Xr C }.pXtXtXuXtXuXtXtXuXyXyXwXaXaXaXaXdXdXaXaXdXdXdXdXaXaXaXdXdXdXdXdXdXdXdXdX"
};
