/* XPM */
static char *e8a4ba628c4d4021b02acfdc0e8f7fecO4aAOQMcdzHbPkkJ[] = {
/* columns rows colors chars-per-pixel */
"64 64 237 2 ",
"   c #00541C",
".  c #005D0B",
"X  c #006719",
"o  c #00791B",
"O  c #005924",
"+  c #006B2C",
"@  c #006726",
"#  c #007B21",
"$  c #00742A",
"%  c #017525",
"&  c #00653B",
"*  c #006C3C",
"=  c #006F34",
"-  c #007434",
";  c #017C36",
":  c #02743C",
">  c #037C3A",
",  c #097C3B",
"<  c #06534F",
"1  c #0C6C4B",
"2  c #056A44",
"3  c #067341",
"4  c #0C7B44",
"5  c #0E7449",
"6  c #097642",
"7  c #107E46",
"8  c #127C4A",
"9  c #12764D",
"0  c #126A53",
"q  c #106E51",
"w  c #059C2B",
"e  c #018434",
"r  c #05833A",
"t  c #0A843D",
"y  c #0D8B3E",
"u  c #038A39",
"i  c #159D3E",
"p  c #09902F",
"a  c #0DB32C",
"s  c #0BB727",
"d  c #0FAA33",
"f  c #16A33D",
"g  c #18A73D",
"h  c #19AB3C",
"j  c #14AC37",
"k  c #1ABD36",
"l  c #1AB33B",
"z  c #1CBD39",
"x  c #16B933",
"c  c #0AA627",
"v  c #22BE3E",
"b  c #008E18",
"n  c #08D215",
"m  c #01E509",
"M  c #01F402",
"N  c #0BF50E",
"B  c #05FC04",
"V  c #11FD0D",
"C  c #0DEA14",
"Z  c #15E81D",
"A  c #0EF411",
"S  c #1DFF15",
"D  c #16F41A",
"F  c #1BF61D",
"G  c #1BFB1B",
"H  c #13F614",
"J  c #22FF1D",
"K  c #20FF17",
"L  c #34FF1F",
"P  c #15CD29",
"I  c #1ACF2D",
"U  c #16D626",
"Y  c #1DCA33",
"T  c #1DC237",
"R  c #1FD630",
"E  c #21DD2F",
"W  c #20CE35",
"Q  c #21C937",
"!  c #21D334",
"~  c #23DC31",
"^  c #2AD63D",
"/  c #1EED24",
"(  c #1BE725",
")  c #1EF422",
"_  c #1FF920",
"`  c #22E52D",
"'  c #25EC2D",
"]  c #21ED27",
"[  c #22F425",
"{  c #24FC23",
"}  c #2CFF25",
"|  c #25F32B",
" . c #27FB29",
".. c #2AFC2A",
"X. c #29F52D",
"o. c #32FF24",
"O. c #2BEE32",
"+. c #29E136",
"@. c #31EE3A",
"#. c #31E63D",
"$. c #2CF431",
"%. c #2FFA32",
"&. c #33F03B",
"*. c #37F93B",
"=. c #0E8442",
"-. c #0F8A40",
";. c #118445",
":. c #138C43",
">. c #17884A",
",. c #149243",
"<. c #199447",
"1. c #169C40",
"2. c #1A9249",
"3. c #1E9C49",
"4. c #199B44",
"5. c #229E4D",
"6. c #20954E",
"7. c #349E5E",
"8. c #248F54",
"9. c #1AA441",
"0. c #24A64B",
"q. c #27B846",
"w. c #2CA753",
"e. c #31AC57",
"r. c #36B55A",
"t. c #3BBA5C",
"y. c #35B457",
"u. c #2EB052",
"i. c #388C69",
"p. c #3FB762",
"a. c #4AB969",
"s. c #4FAB72",
"d. c #53AB78",
"f. c #53B075",
"g. c #61B87F",
"h. c #459E6D",
"j. c #2AC643",
"k. c #33C34E",
"l. c #34DB47",
"z. c #35CB4E",
"x. c #3AE746",
"c. c #3BF143",
"v. c #3DF644",
"b. c #45D15A",
"n. c #41E54F",
"m. c #44F34D",
"M. c #44F948",
"N. c #4AE958",
"B. c #4DF456",
"V. c #4EFA53",
"C. c #4CF356",
"Z. c #54FA5A",
"A. c #61FF5F",
"S. c #44C562",
"D. c #4CC769",
"F. c #4BCC67",
"G. c #50D269",
"H. c #59D86E",
"J. c #5ACA74",
"K. c #54D56D",
"L. c #62C67A",
"P. c #56EB66",
"I. c #55F262",
"U. c #5CFA66",
"Y. c #4FE660",
"T. c #62FB6B",
"R. c #63FB66",
"E. c #67E77B",
"W. c #66FC72",
"Q. c #6BFC74",
"!. c #6DFB7A",
"~. c #69F577",
"^. c #71F77D",
"/. c #72FC7C",
"(. c #75F97A",
"). c #3DB189",
"_. c #6CB38C",
"`. c #6FCB9E",
"'. c #70CD9D",
"]. c #71D39A",
"[. c #72DA97",
"{. c #6FD989",
"}. c #6CEC82",
"|. c #6BE687",
" X c #73EB8B",
".X c #76E88A",
"XX c #6EF080",
"oX c #74F485",
"OX c #76FA82",
"+X c #79FC85",
"@X c #7EFD89",
"#X c #7AF48C",
"$X c #73E292",
"%X c #77E990",
"&X c #79EA92",
"*X c #7BF090",
"=X c #6FC8A0",
"-X c #70C9A1",
";X c #5AD686",
":X c #82B6A1",
">X c #86C59F",
",X c #80FE86",
"<X c #82FE8D",
"1X c #89FF8B",
"2X c #86FF92",
"3X c #8AFD93",
"4X c #8DFF99",
"5X c #81F692",
"6X c #95FF9A",
"7X c #9BFF9D",
"8X c #92FC98",
"9X c #80ED87",
"0X c #A1FF9B",
"qX c #89C6A1",
"wX c #98D2B2",
"eX c #A7CFBB",
"rX c #94FFA1",
"tX c #9FFCA4",
"yX c #9BE4AC",
"uX c #A5FFAA",
"iX c #ACFDAD",
"pX c #A7FDA6",
"aX c #B7FFB7",
"sX c #ADF4B4",
"dX c #B9DCC7",
"fX c #A1E0C1",
"gX c #BCFDC2",
"hX c #B9E5D1",
"jX c #C2DED0",
"kX c #C1E1CD",
"lX c #C7FCCA",
"zX c #DAFFDC",
"xX c #D2FFCB",
"cX c #E8FFEA",
"vX c #FFFFFF",
"bX c #FDFFF5",
"nX c #E7DCF4",
/* pixels */
"=X=X`.=X-X-X-X-X-X-X-X-X-X-X-X-X=X=X=X=X=X=X=X`.oXOXoX^.oX+XOXOXoXOXOXOXOXOXOX].=X=X=X=X=X=X-X-X-X-X-X-X-X-X-X-X=X=X=X=X-X-X-X-X",
"=X=X=X=X-X-X-X-X-X-X-X-X-X-X-X-X=X=X=X=X`.=X`.`.@X@X!.U.(.<X@X@X,X@X@X@X@X@X@X].`.`.`.=X=X=X-X-X-X-X-X-X-X-X-X-X=X=X`.=X-X-X-X-X",
"=X=X=X=X=X-X=X=X-X-X-X-X-X-X-X-X=X=X=X=X=X'.*XoX&.&.lXvX(.] c.c.c.c.c.v.c.&.c.}.*X].=X=X=X-X-X-X-X-X-X-X-X-X-X-X=X-X-X=X-X-X-X-X",
"=X=X=X`.=X=X=X=X-X-X-X-X-X-X-X-X=X=X=X=X=X].2X@XG A zXvX(.M F J F F [ F J D G /.4X].=X=X=X=X-X-X-X-X-X-X-X-X-X-X=X-X=X=X-X-X-X-X",
"=X`.-X-X-X-X=X=X-X-X-X-X-X-X-X-X-X-X-X].&X}.m.x.l j _.`.t.a l l q.l l h h h l x.M.}.%X[.-X-X-X-X-X-X-X-X-X-X-X-X=X=X=X=X-X-X-X-X",
"=X=X-X-X-X-X=X=X-X-X-X-X-X-X-X-X-X-X-X].<XW.D ( ;.5 # o , 9 8 8 4 8 , X @ 8 7 U A U.<X$X-X-X-X-X-X-X-X-X-X-X-X-X=X=X=X=X-X-X-X-X",
"=X=X_.-X=X=X=X=X-X-X-X-X-X-X-X-X-X-X=X[.@XW.| ( ,.;.:.:.,.:.:.:.:.e 7.wXqX>.t E [ T.2X$X-X-X-X-X-X-X-X-X-X-X-X-X=X=X=X=X-X-X-X-X",
"=X=X-X-X=X=X=X=X-X-X-X-X-X-X-X-X-X-X-X].6X/.} [ ,.:.,.:.;.8 , ; > X h.vXbX2.e ' G Q.rX$X-X-X-X-X-X-X-X-X-X-X-X-X=X=X=X=X-X-X-X-X",
"-X-X-X-X=X=X=X=X=X=X=X=X=X=X=X=X=X].[.|.U.C.Y T ,.:.:.;.f x q.p.r.0.J.cXlX2.r z Y N.I.}.[.].=X=X-X-X-X=X=X=X=X=X=X=X=X=X=X'.-X-X",
"-X-X-X-X=X=X=X=X=X=X=X=X=X=X=X=X=X$X2XU.H U 7 8 > > > * Y S U.uX4X6X1X/.~.t - 7 5 n M c.4X X=X=X-X-X-X=X=X=X=X=X=X=X=X=X=X=X-X-X",
"-X-X=X=X=X=X=X=X=X=X=X=X-X-X=X=X-X$X<XT.) ~ :.;.w.e.w.w.^ F m.Q.T.T.T.T.U.e.w.:.t b.R.W.+X X-X-X-X-X=X=X=X=X=X=X=X=X=X=X-X-X-X-X",
"-X-X=X=X=X=X=X=X=X=X=X=X-X=X=X=X=X{.!.Z.{ ` - =.<X6X3X6XV.F | ) ) [ ) Z ] 1X6X5.% kXbXlXQ.%X-X=X-X-X=X=X=X=X=X=X=X=X=X'.-X-X-X-X",
"-X-X-X-X-X-X-X-X=X=X-X-X=X=X=X=X=X&XtX^.( ! 2.w.~.Q.Q./.x.U ~ ` ~ ~ ` ] O.Q./.3.$ eXvXuXB.|.`.`.-X-X-X-X=X=X=X=X-X-X-X-X-X-X-X-X",
"-X-X-X-X-X-X-X-X=X=X=X-X=X=X=X$XU.gXvXhX+ 3.1X/.' / X.} h 5 >.:.;.5 f ..| | ] i 4 y 6 k G m.<X X-X-X-X-X=X=X=X=X-X-X-X-X-X-X-X-X",
"-X-X-X-X-X-X-X-X=X=X=X=X=X=X=X XU.gXvXdX+ 3.<X+X' ( ` [ l 7 :.;.:.;.g ' ' | ] 9.>.y : x G m.,XoX-X-X-X-X=X=X=X=X-X-X-X-X-X-X-X-X",
"-X-X-X-X-X-X-X-X=X=X=X=X=X=X=X X,XZ...^ : 5.<X+X$.[ f 8 Y } z 1 l ..! ;.,.` | ~.2Xu.* z G m.<X X-X-X-X-X=X=X=X-X-X-X-X-X-X-X-X-X",
"-X-X-X-X-X-X-X-X).).).).=X=X=X X2Xm.M U 3 5.@X+X$.[ ,.1 Y o.T 1 l o.~ 5 :.`  .(.6Xe.* k F m.,X X=X=X=X=X=X=X=X=X-X-X-X-X-X-X-X-X",
"-X-X-X-X-X-X-X-X).).).).=X=X=X X2XC.G R 5 9.*.&.f ,.,.:.,.9.,.:.,.f ,.;.y ' X.&.*.f 2 T G m.@X.X=X=X-X-X=X=X=X=X-X-X-X-X-X-X-X-X",
"-X-X-X-X-X-X-X-X).).).).=X=X=X%XrXZ.S R 5 1._ ) :.8 :.,.;.=.;.,.:.;.;.:.,.X...] [ d < k J M.~.}.-X-X-X-X=X=X=X=X-X-X-X-X-X-X-X-X",
"-X-X-X-X-X-X-X-X).).).).=X$X#XI.*.j.i f -.,.h h :.:.:.:.:.:.:.:.:.:.:.:.,.f g E ] Y..Xz.b L.vXlX}.|.-X-X=X=X=X=X-X-X-X-X-X-X-X-X",
"-X-X-X-X-X-X-X-X-X-X-X-X).|.3XO.M s 0 ;.;.;.7 7 :.,.r > r > r > t :.:.,.:.8 8 E F Q.pXa.  _.vXzXW.oX-X-X-X-X=X=X=X=X=X=X-X-X-X-X",
"-X-X-X-X-X-X-X-X-X-X-X-X).}.!.rXxXL.- 1.! z :.:.-.:.S.H.G.G.G.H.t.t :.:.:.;.:.E [ T.8XS.@ t.1X^.OXoX-X-X-X-X=X=X=X=X=X=X-X-X-X-X",
"-X-X=X-X-X-X-X-X=X=X=X=X).|./.xXvX>X@ h ..' :.;.- - 9XpX6X6X6XiXJ.@ > ,.,.:.:.' J Q.pXD.2 a B ..rX*X-X-X-X-X-X=X=X=X=X=X-X-X-X-X",
"-X-X-X-X-X-X-X-X=X=X=X$X;XI.v.{.eXs.- g ..` -.>.S.D.N.V.B.B.B.B.N.D.r.-.y :.:.l k n.A.k., i x j.V.I.$X$X-X-X=X=X=X=X=X=X-X-X-X-X",
"-X-X-X-X=X=X=X=X=X=X=X+X<X@.N c X , q i o.' t 2.8XpXO.m F G F m N.aX{.+ ; :.,.4 q P S a 2 + O e A | +XoX=X=X=X=X=X=X=X=X=X=X=X=X",
"-X-X-X-X=X=X=X=X=X=X=XoX,Xc.) l 5 1.l l W z t :.I.R.@.] ! z ~ [ c.T.Y.r.r.,.:.:.;.! { l.e.a._.J.D c.OX+X=X=X=X=X=X=X=X=X=X=X-X-X",
"-X-X-X-X=X=X-X-X-X=X-X+X@Xc.J h 1 Q L ~ 5 7 : e ( F  ...l < z o.} N *.pX3X<.t :.;.! F Z.,XaXvXlXm @.OX+X=X=X=X=X=X=X=X=X-X-X-X-X",
"-X-X-X-X=X=X-X-X-X=X=XOX@Xc.F l 5 h ' Q ;.<.w.u.` | ! ~ g 5 h ~ ! P l.Q.T.,.=.:.=.! F B.+XrXnXyXC @.OXoX=X=X=X=X=X=X=X=X-X-X-X-X",
"-X-X-X-X-X-X-X-X=X=X=XoX,Xc.J d $ t ;.;.t 5.8X1X$.] ,.5 :.:.:.;.;.5 f J ] ,.;.:.;.! G B.6XF.O w ) @.OXOX-X-X-X-X-X-X-X-X=X=X=X=X",
"-X-X-X-X-X-X-X-X=X=X=XOX@Xc.F l 8.2.:.:.t 5.@X/.$.] 1.;.:.:.:.:.:.7 f  .` ,.;.:.;.! F B.6XG.* d ) c.OXOX-X-X-X-X-X-X-X-X=X=X-X=X",
"-X-X-X-X-X-X-X-X=X=X=XOX@Xc.m iXvXqX# :.:.:.>.<.' X.i 7 ,.:.,.,.:.;.:.,.,.,.:.;.8 Y G B.6XG.3 f A ' OX+X=X=X=X=X-X-X-X-X=X=X-X-X",
"-X-X-X-X-X-X-X-X=X=X=XoX@Xc.m iXvX:X# :.,.:., y O.X.i ;.:.:.:.:.:.,.,.;.;.:.:.,.:.R F B.6XG.3 9.$.v.OXOX=X=X=X=X-X-X-X-X=X-X-X-X",
"-X-X-X-X-X-X=X=X=X=X=XOX,Xc.F v 8.>.y ,.;.1.' ' X.O.i ;.:.:.y ;.l ..Y ;.y ;.:.~ X.' ( C.6XG.@ s.vXcX/.^.-X-X-X-X=X=X-X`.=X=X=X_.",
"-X-X-X-X-X-X-X=X=X=X=XoX@Xc.[ d + t >.;.;.i X.......i 8 :.,.,.8 l o.R : , :.:.' o.' Z B.6XG.X d.vXcX/.^.-X-X-X-X=X=X-X`.=X=X-X-X",
"-X-X-X-X-X-X=X=X=X=X=X+X@Xc.F l 5 h ' z 8 i X.' h i ,.:.,.:.,.8 l { @.E.H.<.-.f f ~ F B.6XG.= 0.R.T.OXOX-X-X-X-X=X=X=X-X-X-X-X-X",
"-X-X-X-X-X-X=X=X=X=X=X+X,X| M a 0 Q o.` 5 1... .;.5 :.:.,.:.y 7 l F m.6X<X<.t 7 5 W F B.6XG.3 d M D +X+X-X-X-X-X=X=X=X-X=X-X-X-X",
"=X=X-X-X=X=X`.=X=X=X=XOX^.tXlXa.- f z h :.,.l l ,.:.:.:.y ,.,.8 l F c.1X^.,.t :.;.! F B.6XG.* g / @.+X+X'.`.-X-X=X=X=X=X-X-X-X-X",
"=X=X-X-X=X=X=X=X=X=X=XOXQ.zXvX_.# ;.8 7 - ; 7 7 :.:.:.i ;.5 ;.8 l ) c.2X^.<.t :.;.! D Z.iXH.* g [ @.OX+X=X=X-X-X=X=X=X=X-X-X-X-X",
"=X=X-X-X=X=X=X=X`.=X=XOX^.3XpXa.- ,.t 5.G.t.:.:.,.:.:.;.h W g 5 l F &.1X(.<.t :.;.! [ l.J.u.6 g [ @.+X+X=X=X=X-X=X=X-X=X-X-X-X-X",
"=X=X=X-X`.=X=X=X=X=X=XoX<XF M c 0 ;.; e.0X.X4 4 :.:., & W o.z < g F M.7X<X<.t 8 5 P S a & , 0 1.N ' +X+X=X=X-X-X=X=X-X-X-X-X-X-X",
"=X=X=X=X=X=X=X=X=X=X=X X$XI.M.j.l f : e.1X~.l j y :.y.a.^ { W i Y _ #.H.F.:.-.g l x.V.q.3 i j Q v.I.&X$X-X-X-X-XfXfXfXfX=X-X-X-X",
"=X=X=X=X=X=X-X=X=X=X=X`.=X*X4XV.S T & e.7X(.S D y =.9XiXm.m [ %.| F P 3 > :.:.' J Q.uXD.* l K M.4X#X-X-X-X-X-X-XfXfXfXfX=X'.-X-X",
"=X=X=X=X-X-X-X-X=X`.=X=X=X X<Xm.G z 3 0.E.P.M.@.:.;.G.E.N.*.&.] @.M.l.4 :.;.:.` ) T.7XS.* l G c.@X#X-X-X-X-X-X-XfXwXfXfX-X-X-X-X",
"=X=X=X=X-X-X-X-X=X=X=X`.-X X<Xm.V a + e : 2.3X,X<.t t - J.iXZ.N V.iXE.e :.7 7 U H R.pXS.O c H c.@XoX-X-X-X-X-X-XfXfXfXfX-X-X-X-X",
"-X-X-X-X-X-X-X-X=X=X=X=X-X X#XC...z.i.7.; 5.,X+X,.y :.> S.2XN.n x.#XG.t :.1.1.#.%.P.#XD.i.y.| m.#X X=X=XfXfXfXfX-X-X-X=X=X=X=X=X",
"-X-X-X-X-X-X-X-X=X=X=X=X-X-X-X XU.gXvXkX% 3.@XOX>.=.:.:.:.-.:.:.:.-.-.;.,.]  ./.7Xw.. qXvXlXW.oX=X=X-X'.fXfXfXfX-X-X-X=X=X=X=X=X",
"-X-X-X-X-X-X-X-X=X=X-X-X-X-X=X$XT.gXvXkX$ 3.@X/.<.y ,.:.-.y :.;.:.-.-.:.,.` | Q.3Xw.. qXvXlXQ.#X-X-X-X-XfXfXfXfX-X-X=X=X=X=X=X=X",
"-X-X-X-X-X-X-X-X=X=X-X-X-X-X=X X2XZ. .^ : 0.,X/.O.( 1.;.:.;.:.,.:.;.:.=.-.,.,.,.<.:.4 Q ..C.@X X-X-X-X-XfXfXfXfX-X-X=X=X=X=X=X=X",
"=X=X=X=X-X-X-X-X-X-X-X-X=X=X=X$X2Xm.M P 6 5.@XOX..[ 1.;.:.:.:.:.:.:.:.y :.;.:.t r :.7 k B c.2X X=X=X=X=X-X-X-X-X=X=X=X=X=X=X=X=X",
"=X=X=X=X-X-X-X-X-X-X-X-X=X=X=X X2XC._ R 3 5.,X/.$.] 1.5 z ..l 5 h ( x.oXE.<.=.:.:.:.8 z G m.@XoX=X=X=X=X-X-X-X-X=X=X=X=X=X=X-X=X",
"=X=X=X=X-X-X-X-X-X-X-X-X-X-X-X X2Xm.A I 3 6.4X@X' D ,.1 ! L T < h S M.7X1X,.t ,.:.;.5 x V v.2X X=X=X=X=X-X-X-X-X=X=X=X=X-X-X-X-X",
"=X=X=X=X-X-X-X-X-X-X-X-X-X-X=X`.].}.W.Y.P Y w.e.T.T.^ I l 1.T ! E  .^ e.w.:.:.:.;.T U n.W.|.].].=X=X=X=X-X-X-X-X=X=X=X=X-X-X-X-X",
"=X-X-X-X-X-X-X-X-X-X-X-X=X=X=X=X-X$X+XU.{ ] = 4 3XpX%.V g < l K ) G P : > :.:.:.;.~ S Z.rX$X=X=X=X=X-X-X-X-X-X-X-X-X-X-X-X-X-X-X",
"-X-X-X-X-X-X-X-X-X-X-X-X=X=X=X=X-XwXcXrXD R -.:.y.r.I.R.l.a x.R.I.R.b.=.:.:.:.:.;.! G B.2X X=X=X=X=X-X-X-X-X-X-X-X-X-X-X-X-X-X-X",
"-X-X-X-X-X-X-X-X-X-X=X=X=X=X=X=X=XhXvXgXM U 8 5 - - *XaXV.B A.iX7XpX}.t y # o 4 q I N m.2X%X-X-X=X-X-X-X-X-X-X-X-X-X-X-X-X-X-X-X",
"-X-X-X-X-X-X-X-X-X-X=X=X=X=X=X=X=XwXhXsXv.m.k z :.:.t.D.q.x k.D.S.F.r.e :.>XwXk.a x.V.E.$X].-X-X-X-X-X-X-X-X-X-X-X-X-X-X-X-X-X-X",
"-X-X-X-X-X-X-X-X-X-X-X-X-X-X-X-X-X-X-X].2XOX} [ ,.;.> : 4 8 4 > $ . % u 6.vXvXM.B W.rX$X-X-X=X=X-X-X-X-X-X-X-X-X-X-X-X-X-X-X-X-X",
"-X-X-X-X-X-X-X-X-X-X-X-X-X-X-X-X-X-X-X[.<XW.| ( ,.;.:.:.,.-.,.e 7.qXd.e 2.eXdX#.D U.@X$X=X-X=X=X-X-X-X-X-X-X-X-X-X-X-X-X-X-X-X-X",
"-X-X-X-X-X-X-X-X-X-X-X-X-X-X-X-X-X-X-X].@XW.D Z b + 4 >.7 7 4 @ _.vXjX- 4 @ @ U H U.@X$X=X-X=X=X-X-X-X-X-X-X-X-X-X-X-X-X-X-X-X-X",
"-X-X-X-X-X-X-X-X-X-X-X-X-X-X-X-X-X-X-X].*X^.c.x.d.d.9.d h g g w J.bXyXw g i f #.v.XX*X[.=X=X=X=X-X-X-X-X-X-X-X-X-X-X-X-X-X-X-X-X",
"-X-X-X-X-X-X-X-X-X-X-X-X-X-X-X-X-X-X-X-X=X]./.2XvXvXM.N [ [ [  ./ m C  .[ J / Q.*X[.-X-X-X-X=X=X-X-X-X-X-X-X=X=X-X-X-X-X-X-X-X-X",
"-X-X-X-X-X-X-X-X-X-X-X-X-X-X-X-X-X-X-X-X=X].!.@XvXvXm.Z O.O.O.O.' ' ' $.$.' O.Q.@X].-X-X-X-X-X=X-X-X-X-X-X-X=X=X-X-X-X-X-X-X-X-X",
"-X-X-X-X-X-X-X-X-X-X-X-X-X-X-X-X-X-X-X=X=X=X=X'.+X@X/.^.OX!./.^.^./.^.^././.^.].=X=X=X=X-X-X=X=X-X-X-X-X-X-X-X-X-X-X-X-X-X-X-X-X",
"-X-X-X-X-X-X-X-X-X-X-X-X-X-X-X-X-X-X-X=X=X=X=X=X~.Q.+X@X+X+X+X+X+X+X+X+X+X+X@X'.=X=X=X=X=X-X=X=X-X-X-X-X-X-X-X-X-X-X-X-X-X-X-X-X"
};
