/* XPM */
static char *result[] = {
/* columns rows colors chars-per-pixel */
"64 64 223 2 ",
"   c #000000",
".  c #080806",
"X  c #0C1212",
"o  c #121D18",
"O  c #131417",
"+  c #181005",
"@  c #281805",
"#  c #291C15",
"$  c #32140E",
"%  c #3B260A",
"&  c #25231C",
"*  c #3D211B",
"=  c #2B1C2B",
"-  c #341D29",
";  c #241F31",
":  c #1C2723",
">  c #1C3031",
",  c #27282D",
"<  c #2D2838",
"1  c #342D3F",
"2  c #372433",
"3  c #2B3535",
"4  c #343839",
"5  c #293025",
"6  c #521A1B",
"7  c #41270B",
"8  c #4B2D15",
"9  c #482A16",
"0  c #4F301A",
"q  c #533219",
"w  c #593419",
"e  c #623B1D",
"r  c #5F1F20",
"t  c #77132C",
"y  c #412E35",
"u  c #4D363C",
"i  c #483136",
"p  c #58302F",
"a  c #673B27",
"s  c #6B3435",
"d  c #77393A",
"f  c #6E2A31",
"g  c #641D1D",
"h  c #2B4839",
"j  c #7B5613",
"k  c #714916",
"l  c #544A33",
"z  c #794726",
"x  c #6F4931",
"c  c #5F4408",
"v  c #2E2A41",
"b  c #262847",
"n  c #3E2F40",
"m  c #322C41",
"M  c #3F3040",
"N  c #353B47",
"B  c #413141",
"V  c #4B3644",
"C  c #593944",
"Z  c #723E44",
"A  c #7D3840",
"S  c #653D46",
"D  c #394446",
"F  c #354F51",
"G  c #36614E",
"H  c #335770",
"J  c #3F627D",
"K  c #464848",
"L  c #495355",
"P  c #504854",
"I  c #7A4142",
"U  c #744D4C",
"Y  c #705156",
"T  c #547256",
"R  c #554D61",
"E  c #6A5269",
"W  c #546B65",
"Q  c #55766D",
"!  c #566F6A",
"~  c #786B5F",
"^  c #AA2D1C",
"/  c #861932",
"(  c #902E38",
")  c #A33030",
"_  c #B53834",
"`  c #A8302D",
"'  c #DB3A36",
"]  c #CA393B",
"[  c #946A0D",
"{  c #A26D1A",
"}  c #AA7515",
"|  c #834D26",
" . c #8C4F2F",
".. c #8C5227",
"X. c #8A5229",
"o. c #91552A",
"O. c #965C27",
"+. c #874A32",
"@. c #835A3C",
"#. c #975433",
"$. c #AA4E35",
"%. c #905C1E",
"&. c #942F44",
"*. c #834345",
"=. c #8C4C4C",
"-. c #974C49",
";. c #8E5850",
":. c #AB4D46",
">. c #A04B47",
",. c #B14F47",
"<. c #AD514A",
"1. c #B05048",
"2. c #BC5449",
"3. c #BB544A",
"4. c #946952",
"5. c #A96D56",
"6. c #8A5462",
"7. c #84716D",
"8. c #A06D66",
"9. c #AE746C",
"0. c #C2574B",
"q. c #C35B50",
"w. c #DF4040",
"e. c #E34242",
"r. c #EF5044",
"t. c #CF665B",
"y. c #CD6154",
"u. c #DB695C",
"i. c #E46C5C",
"p. c #EB705F",
"a. c #F06C58",
"s. c #E76F60",
"d. c #E97060",
"f. c #E97869",
"g. c #F27462",
"h. c #FE7A65",
"j. c #C07C7B",
"k. c #578674",
"l. c #55987A",
"z. c #4B876C",
"x. c #6C9478",
"c. c #AE8600",
"v. c #B98B03",
"b. c #B98313",
"n. c #CA9A00",
"m. c #C59506",
"M. c #CFA000",
"N. c #D8A701",
"B. c #E6B300",
"V. c #988576",
"C. c #B68970",
"Z. c #B3815E",
"A. c #C68E69",
"S. c #CC9873",
"D. c #D59D75",
"F. c #D89E75",
"G. c #CB8F70",
"H. c #EB887C",
"J. c #DAA179",
"K. c #DDA377",
"L. c #CDA57C",
"P. c #E5A97C",
"I. c #346D92",
"U. c #3D7CA0",
"Y. c #4A7290",
"T. c #776C83",
"R. c #867A95",
"E. c #A4748D",
"W. c #3DB189",
"Q. c #6D9C82",
"!. c #5DA685",
"~. c #66A88B",
"^. c #72A789",
"/. c #69B695",
"(. c #6AB08F",
"). c #5E9F83",
"_. c #6EC39C",
"`. c #6FC8A0",
"'. c #70C9A1",
"]. c #B18D90",
"[. c #8AAE90",
"{. c #9A95B1",
"}. c #A59EAE",
"|. c #B190AC",
" X c #98A3A8",
".X c #CC999D",
"XX c #CA8B94",
"oX c #ED9388",
"OX c #EE9E94",
"+X c #D0A994",
"@X c #E5AB83",
"#X c #F0B590",
"$X c #F3BBB5",
"%X c #EBB5A6",
"&X c #8AC197",
"*X c #A0DFBF",
"=X c #9AD2B3",
"-X c #F6CCB2",
";X c #F9D2BA",
":X c #FAD5B6",
">X c #F2C5A8",
",X c #BCB6D8",
"<X c #B3ABCB",
"1X c #BAB8E2",
"2X c #A09DC1",
"3X c #C4BDDC",
"4X c #A1E0C1",
"5X c #BDD2FE",
"6X c #FFDCC5",
"7X c #F9DFDC",
"8X c #F1DFDD",
"9X c #EFCED0",
"0X c #FFE4CA",
"qX c #FFE4C9",
"wX c #F8E8D8",
"eX c #CFD2F0",
"rX c #E6DAE7",
"tX c #EAEBFB",
"yX c #E5E6F6",
"uX c #EEF9FF",
"iX c #FFFFFF",
"pX c #F5FAFC",
"aX c #F6EFEA",
/* pixels */
"`.`._.'.'.'.'.'.'.'.'.'.'.'.'.'.'.'.'.`.`.`.`.`.`.`.`.`.'.'.'.'.`.`.'.'.'.'.'.'.`.`.`.`.`.`.'.'.'.'.'.'.'.'.'.'.`.`.'.'.'.'.'.'.",
"`.`.`.`.'.'.'.'.'.'.'.'.'.'.'.'.'.`.'.`.`.`.`.`.`.`.`.`.'.'.'.'.`.`.`.`.'.'.'.'.`.`.`.`.`.`.'.'.'.'.'.'.'.'.'.'.`.`.'.'.'.'.'.'.",
"_.`.`.`.'.'.'.'.'.'.'.'.'.'.'.'.`.`.`.'.`.`.`.`._.'.`.`.'.'.'.'.`.`.`.`.'.'.'.'.`.`.`.`.`.'.'.'.'.'.'.'.'.'.'.'.`.`.`.'.'.'.'.'.",
"'.`.`.`.'.'.'.'.'.'.'.'.'.'.'.'.`.`.`.'.`.`.`.`.'.'.`.`.'.'.'.'.`.`.`.`.'.'.'.'.`.`.`.`.`.'.'.'.'.'.'.'.'.'.'.'.`.`.`.`.'.'.'.'.",
"'.`.`.`.`.`.`.`.'.'.'.'.'.'.'.'.'.'.'.'.'.'.'.'.`.`.`.`.`.`.`.`.`.`.`.`.'.`.`.`.`.`.`.'.'.'.`.`.'.'.'.'.'.'.'.'.`.`.`.'.'.'.'.'.",
"`.`.`.`.'._.`.`.'.'.'.'.'.'.'.'.'.'.'.'.'.'.'.'.`./.B B M M m M m M M M M M M M M M Q '.'.'.`.`.'.'.'.'.'.'.'.'.`.`.`.'.'.'.'.'.",
"`._.'.`.'.`.`.'.'.'.'.'.'.'.'.'.'.'.'.'.'.'.'.'.`./.1 y M M M M M M M M M M M M M M Q '.'.'.`.`.'.'.'.'.'.'.'.'.`.`.'.'.'.'.'.'.",
"`.`.`.`.`.`.`._.'.'.'.'.'.'.'.'.'.'.'.'.'.'.'.k.K P >.>.y.t.t.t.t.t.t.t.t.t.t.t.t.u.6.D K L K ~.'.'.'.'.'.'.'.'.`.`.'.'.'.'.'.'.",
"'.'.`.`.`.`.`.`.`.`._.'.`.`.`.`.'.'.'.'.'.'.`.k.v i ,.:.u.h.g.d.d.g.g.g.g.g.g.g.g.h.=.; v m m (.`.`.`.`.`.`.`.`.`.`.`.`.`.'.'.'.",
"'.'.'.`.`.`.`.`.`.`.`.`.`.`.`.`.'.'.'.'.'.Q z.E I =.y.y.i.d.oX7XoXd.d.d.p.7X%Xd.d.g.3.=.;.A &.W Q !.'.`.`.`.`.`.`.`.`.`.`.'.`.`.",
"'.'.`.`.`.`.`.`.`.'.`.`.`.`.`.`.'.'.'.'.'.V v A 0.2.d.g.d.d.H.iX9XOXd.H.OXpX7Xs.d.d.f.h.g.,.0.C m W `.`.`.`.`.`.'.'.`.`.`.`.`.`.",
"'.'.`.`.`.`.`.`._.'.`.`.`.`.`.`.'.'.'.'.'.R m U q.q.d.d.s.d.p.d.$XiXf.%XiXOXd.d.d.d.d.f.u.3.0.S 1 ! `.`.`.`.`.`.'.'.`.`.`.`.`.`.",
"'.'.'.'.'.'.'.'.'.'.`.`.`.`.`.`.'.'.'.'.!.D < -.h.s.s.s.d.d.s.d.OX$X$X$X$XH.s.d.d.d.d.d.s.d.g.S 1 ! `.`.`.`.`.`.'.'.'.'.'.'.'.'.",
"'.'.'.'.'.'.'.'.'.'.`.`.`.`.`.`.'.'.'.'.W.D ; =.h.p.d.s.s.d.d.s.s.a.7XaXd.d.d.d.d.s.s.d.d.d.g.S < Q `.`.`.`.`.`.'.'.'.'.'.'.'.'.",
"'.'.'.'.'.'.'.'.'.'.`.`.`.`.`.`.'.'.~.R F Q.2X].a.i.s.d.s.s.s.s.oXiX9XOXiX$Xd.s.d.d.s.d.d.s.g.<.-.U F L `.`.`.`.'.'.'.'.'.'.'.'.",
"'.'.'.'.'.'.'.'.'.'.`.`.`.`.`.`.'.'.~.n m <XeX.Xr.a.s.d.s.s.s.H.OX7X%Xp.7X$XOXf.s.d.d.s.s.d.d.q.0.*.m V `.`.`.`.'.'.'.'.'.'.'.'.",
"'.'.'.'.'.'.'.'.W.W.W.W.'.'.`.`.~.k.Q F R E.|.XXOXOXi.i.f.i.s.$XiXs.p.d.d.OXiXOXd.s.s.d.d.d.f.2.3.*.1 y `.`.`.`.'.'.'.'.'.'.'.'.",
"'.'.'.'.'.'.'.'.W.W.W.W.'.'.`.'.W 2 N I.I.=.^ .XuXyXp.p.p.p.s.-XiXoXs.d.d.oXiX$Xs.d.d.d.d.d.d.q.,.*.m B `.`.`.`.'.'.'.'.'.'.'.'.",
"'.'.'.'.'.'.'.'.W.W.W.W.`._././.W C R Y.Y.<._ .XuXrXi.i.i.p.p.OXiXOXd.s.d.d.iX$Xd.d.d.d.s.i.s.2.3.*.m B `.`.`.`.'.'.'.'.'.'.'.'.",
"'.'.'.'.'.'.'.'.W.W.W.W.`.`.V < }.tXyXyXtX9.` .XuX9X,.:.u.f.i.p.s.d.s.s.s.p.d.d.d.s.d.d.i.1.1.1.2.*.1 B `.`.`.`.'.'.'.'.'.'.'.'.",
"'.'.'.'.'.'.'.'.'.'.'.'.W.W.B = |.iXtXtXuX9.^ .XpXrX:.:.u.h.d.d.d.d.g.d.d.g.d.g.d.d.g.g.i.:.1.1.2.*.m B '.'.`.`.`.`.`.`.'.'.'.'.",
"'.'.'.'.'.'.'.'.'.'.'.'.W.W.B = }.pXtXtXtX|.].XXXXj.,.:.2.q.q.q.q.q.q.q.q.q.q.q.q.q.q.q.q.1.1.1.2.*.m n `.'.`.`.`.`.`.`.'.'.'.'.",
"'.'.'.'.'.'.'.'.'.'.'.'.W.W.M = }.iXyXyXyXeX5X].` $.1.1.1.:.:.:.:.:.1.:.>.:.:.:.:.:.1.:.:.1.1.1.2.*.1 B `.`.`.`.`.`.`.`.'.'.'.'.",
"'.'.'.'.'.'.'.'.'.'.'.'.W.W.M = {.yXyXyXyX<XE.9.$.1.1.1.1.1.1.1.1.1.1.1.1.1.1.1.1.1.1.1.1.,.1.1.2.*.1 y `.`.`.`.`.`.`.`.'.'.'.'.",
"'.'.'.'.`.`.`.`.'.'.'.'.`.`.B 2 R.,X3XtXtX&./ &.2.,.1.,.1.1.1.1.1.1.1.1.1.1.1.1.1.1.1.1.1.1.,.1.2.*.m B `.`.`.`.`.`.`.`.`.`.`.'.",
"'.'.'.'.`.`.`.`.'.'.'.'.`.`.B 2 R.,X3XtXtX6./ &.3.,.1.1.1.1.1.1.1.1.1.1.1.1.1.1.1.1.1.1.1.1.,.,.2.*.m B `.`.`.`.`.`.`.`.`.`.'.'.",
"'.'.'.'.`.`.`.`.'.'.'.'.`.`././.! V E 3X3X<X<XE./ &.1.1.,.1.,.,.1.1.1.1.1.,.1.1.1.1.<.<.1.1.3.S V i 0 0 `.`.`.`.`.'.`.`.'.'.'.'.",
"'.'.'.'.`.`.`.`.'.'.'.'.`.`.`.`.W - R eX3X3XeXE./ &.2.2.2.2.2.2.2.2.2.2.3.2.3.3.3.3.3.1.3.3.0.V b y 8 0 `.`.`.`.`._.`.`.'.'.'.'.",
"'.'.'.'.'.'.'.'.`.`.`.`.'.'.'.'.).Q Q T.T.T.T.E p C Z Z Z Z Z Z Z Z Z Z Z Z Z Z I I I I Z I I x s a 8 q '.'.'.`.'.'.'.'.'.'.'.'.",
"'.'.'.'.'.'.'.'.`.`.`.`.'.'.'.'.'.'.(.= = 2 = 4 D N < < < m 1 1 m v v m m m v v v m b < v b b z O.z 8 q '.'.`.`.'.'.'.'.'.'.`.`.",
"'.'.'.'.'.'.'.'.`.`.`.`.'.'.'.'.'.'.~.V V V V 1 3 4 P R V V u y i u u i y i u u u u u u u u u x X.k l l '.'.`.`.'.'.'.'.`.`.`.`.",
"'.'.'.'.'.'.'.'.`.`.`.`.'.'.'.'.'.'.^.*.I A =.9   O {.2X6.d s 8 w | O.e 9 e o...........X.X.o.w 8 T `.`.'.`.`.`.'.'.'.'.`.`.`.`.",
"'.'.'.'.'.'.`.`.`.`.`.`.'.'.'.'.`.`.^.I x Z *.*   O {.{.6.d a 8 q | ..w 7 w o.X.X.X.X.X.| X.o.e 0 T _.'.'.'.'.'.'.'.`.`.`.'.`.`.",
"'.'.'.'.'.'.`.`.`.`.`.`.'.'.'.'.`.`.^.A A Z.K.x   : eXrX+XA.4.7 w Z.A.A.A.5.q w | X.X.X.z w e @ . G '._.'.'.'.'.'._.`.`._.'.`.`.",
"'.'.'.'.'.'.`.`.`.`.'.`.'.'.'.'.`.`.^.s s G.#Xx   X uXpX+XP.4.@ 0 D.P.K.#XC.% 0 | X.X...z 0 0 .   h '.'.'.'.'.'.'._.'.`.`.`.`._.",
"'.'.'.'.'.'.`.`.'.'.'.'.'.'.'.'.`.`.^.5.5.+X>XV.Y 7.8X8X>X#XS.@.4.D.J.J.P.Z.7 0 z X.X...| q q h G z.'.'.'.'.'.'.'.'.`.`.`.`.`.'.",
"`.`.`.`.`.`.`.`.`.`.`.`.'.'.'.'.`.`.&X@XK.:X6XqXqX0X-X-X:X0X>XP.@XJ.J.K.P.Z.7 q | o.X.o.| 0 w &X_.'.'.'.'.'.'.'.`.`.`.`.'.'.'.'.",
"`.`.`.`.`.`.`.`.`.`.`.`.'.'.'.'.`.`.&XL.L.%X%X-X:X:X;X;X-X-X%XD.J.J.J.S.D.5.8 w z z z z z x l &X'.'.'.'.'.'.'.'.`.`.`.`.'.'.'.'.",
"'.'.'.'.`.`.`.`.`.`.`.`.'.'.'.'.'.'.`.`.`.7.s C.6X;X;X;X@XL.J.J.J.J.@X@.9 w o...+       5 *X4X4X'.'.'.'.'.'.'.'.`.`.`.`.'.'.'.'.",
"'.'.'.'.`.`.`.`.`.`.`.`.'.'.'.'.`.'.'._.`.U f C.wX6X6X0X#XK.K.J.J.P.#X@.% w O.o.        : *X4X4X'.'.'.'.'.'.'.'.`.`.`.`.'.'.'.'.",
"`.`.`.`.`.`.`.`.`.`.`.`.`.`.'.'.'.'.`.`.'.(.^.~ 8.8.8.8.4.;.9.P.S.@.x x 9 q a w [ [ c % l 4X4X4X'.'.'.'.'.'.'.'.*X*X4X4X`.'.'.'.",
"`.`.`.`.`.`.`.`.`.`.`.`.`.`.'.'.'.'.`.`.'.'.'.x.s s s s s r -.#XS.7 $ 7 9 9 * * v.B.[ * K 4X4X4X'.'.'.'.'.'.'.'.*X*X4X4X`.`.'.'.",
"`.`.`.`.'.'.'.'.`.`.`.`.`.'.'.`.'.`.`.`.'.'.'.Q.~ ~ A A 6.7.E.+X+X| j k w k j j v.N.[ j j [.[.=X'.'.'.'.'.'.'.'.4X*X4X4X'.'.'.'.",
"`.`.`.`.'.'.'.'.`.`.`.`.'.'.'.'.'.'.`.`.'.'.'.'.`./.&./ |.eX1X1X<XN.N.{ +.{ N.M.n.n.M.N.v.0 0 [.'.'.'.'.'.'.'.'.*X4X4X4X'.'.'.'.",
"'.'.'.'.'.'.'.'.`.`._.`.'.'.'.'.`.`.`.`.'.'.'._._.(.( / ].,X<X<X<Xm.m.{ x %.M.n.n.m.n.n.c.9 8 x.'.'.'.'.4X4X4X4X'.'.`.`.`.`.`.`.",
"'.'.'.'.'.'.'.'.`.`.'.`.'.'.'.'.`.'._.`.'.'.'.k.F K _ ] - X : L F l l & . % M.n.n.M.} o.z . . l.'.'.`.`.4X4X4X4X'.'.`.`.`.`.`.`.",
"'.'.'.'.'.'.'.'.`.`._.`.'.'.'.'.`.`.`.`.'.'.'.k.D u ' e.+   . h > D D O   % B.M.M.N.{ x a     l.'.'.`.'.4X4X4X4X'._.`.`.`.`.`.`.",
"'.'.'.'.'.'.'.'.`.'.'.`.'.'.'.`.`.`.`.`.`.'._.k.D 4 6 6 ;.V.V.].V.K D O   @ } } { { } b.[     l.'.'.'.'.4X4X4X4X'.'.`.`.`.`.`.`.",
"`.`.`.`.'.'.'.'.'.'.'.'.`.`.`.'.`.`.`.`.`.`.`.k.D 3     +XaXwXqX6XK D O   + #.X.+.x } B.c.    l.`.`.`.`.'.'.'.'.`.`.`.`.`.'.'.'.",
"`.`.`.`.'.'.'.'.'.'.'.'.`.`.'.'.`.`.`.`.`.`.`.z.D 3     C.:X>X-X%XK h & X # z a %.O.} m.[     l.`.`.`.`.'.'.'.'.`.`.`.`.'.'.'.'.",
"`.`.`.`.'.'.'.'.'.'.'.'.`.`.'.'.`.`.`.`.`.'.'.l.D 3     4.@XD.J.S.l N K K ,     c.N.} +.k     l._.`.`.`.'.'.'.'.`.`.`.`.'.'.'.'.",
"`.`.`.`.'.'.'.'.'.'.'.'.`.`.`.'.`.`.`.`.`.`.`.z.D 4     5.#XK.P.D.D 4 h D ,     c.B.}  .z     l.`.`.`.`.'.'.'.'.`.`.`.`.'.'.'.'.",
"'.'.'.'.'.'.'.'.'.'.'.'.`.`.`.`.'.'.'.'.`.`.`._.(.).3 4 & # # # # H I.W I.N     + @ @ + 5 !.!._.`.`.'.'.'.'.'.'.'.'.'.'.'.'.'.'.",
"'.'.'.'.'.'.'.'.'.'.'.'.`.`.`.`.`.`.'.'.`.`.`.`.'./.K L .         I.I.I.U.H             o '.`.`.`.`.'.'.'.'.'.'.'.'.'.'.'.'.'.'.",
"'.'.'.'.'.'.'.'.'.'.'.'.`.`.`.`.`.`.`.`.`.`.`.`.'./.: : 6 g g g g 6.E E E V     G G G G G '.`.`.'.'.'.'.'.'.'.'.'.'.'.'.'.'.'.'.",
"'.'.'.'.'.'.'.'.'.'.`.`.`.`.`.`.`.`.`.`.`.`.`.`.'.!.    ( r.w.w.' ' ' _ &.t     /.'.`.`.`.`.`.`.'.'.'.'.'.'.'.'.'.'.'.'.'.'.'.'.",
"'.'.'.'.'.'.'.'.'.'.'.'.'.'.'.'.'.'.'.'.`.`.`.`._./.o o f _ ) ) ) ) ) ( A r o o /._.`.`.`.`.`.`.'.'.'.'.'.'.'.'.'.'.'.'.'.'.'.'.",
"'.'.'.'.'.'.'.'.'.'.'.'.'.'.'.'.'.'.'.'.`.`.`.`.'.'.'.'.>                 > `.`.`.`.`._.`.`.`.`.'.'.'.'.'.'.'.'.'.'.'.'.'.'.'.'.",
"'.'.'.'.'.'.'.'.'.'.'.'.'.'.'.'.'.'.'.'.`.`.`.`.'.'.'._.:                 : `.`.`.`.`.`.`.`.`.`.'.'.'.'.'.'.'.'.'.'.'.'.'.'.'.'.",
"'.'.'.'.'.'.'.'.'.'.'.'.'.'.'.'.'.'.'.'.`.`.`.`.'.'.'.'.'.'.'.'.'.'.`.`.`.`.`.`.`.`.`.`.`.`._.`.'.'.'.'.'.'.'.'.'.'.'.'.'.'.'.'.",
"'.'.'.'.'.'.'.'.'.'.'.'.'.'.'.'.'.'.'.'.`.`.`.`.`.`._.'.'.'.'.'.`.`.`.`.`.`.`.`.'.'.'.`.'.'.'.'.'.'.'.'.`.`.`.'.'.'.'.'.'.'.'.'.",
"'.'.'.'.'.'.'.'.'.'.'.'.'.'.'.'.'.'.'.'.`.`.`.`.`.`.`.'.'.`.'.'.`.`.`.`.`.`.`.`.`.`.`.`.`.'.'.'.'.'.'.'.`.`.'.'.'.'.'.'.'.'.'.'.",
"'.'.'.'.'.'.'.'.'.'.'.'.'.'.'.'.'.'.`.`.`.`.`.`._.`.`.`.`.`.`.`.`.`.`.`.`.`.`.`.`.`.`.`.`.`.'.'.'.'.'.'.`.`.`.`.'.'.'.'.'.'.'.'.",
"'.'.'.'.'.'.'.'.'.'.'.'.'.'.'.'.'.'.`.`.`.`.`.'.'.`.`.`.`.`.`.`.`.`.`.`.`.`.`.`.`.`.`.`.'.`.'.'.'.'.'.'.`.`.`.`.'.'.'.'.'.'.'.'."
};
