/* XPM */
static char *result[] = {
/* columns rows colors chars-per-pixel */
"64 64 222 2 ",
"   c #000000",
".  c #080806",
"X  c #0C1212",
"o  c #121D18",
"O  c #131417",
"+  c #181005",
"@  c #281805",
"#  c #291C15",
"$  c #32140E",
"%  c #3B260A",
"&  c #25231C",
"*  c #3D211B",
"=  c #2B1C2B",
"-  c #341D29",
";  c #241F31",
":  c #1C2623",
">  c #1C3031",
",  c #25292A",
"<  c #2D2838",
"1  c #342D3F",
"2  c #372433",
"3  c #2B3535",
"4  c #343839",
"5  c #14251E",
"6  c #521A1B",
"7  c #41270B",
"8  c #4B2D15",
"9  c #482A16",
"0  c #4F301A",
"q  c #533219",
"w  c #593419",
"e  c #623B1D",
"r  c #5F1F20",
"t  c #77132C",
"y  c #412E35",
"u  c #4D363C",
"i  c #483136",
"p  c #55322E",
"a  c #673B27",
"s  c #6B3435",
"d  c #77393A",
"f  c #6E2A31",
"g  c #641D1D",
"h  c #2B4839",
"j  c #7B5613",
"k  c #714916",
"l  c #524931",
"z  c #794726",
"x  c #6E4930",
"c  c #5F4408",
"v  c #2E2A41",
"b  c #262847",
"n  c #3E2F40",
"m  c #322C41",
"M  c #3C3442",
"N  c #413141",
"B  c #4B3644",
"V  c #593944",
"C  c #723E44",
"Z  c #7D3840",
"A  c #653D46",
"S  c #394444",
"D  c #354F51",
"F  c #36614E",
"G  c #335770",
"H  c #3F627D",
"J  c #464849",
"K  c #495355",
"L  c #4F4853",
"P  c #7A4142",
"I  c #724C4D",
"U  c #725154",
"Y  c #547256",
"T  c #554D61",
"R  c #6A5269",
"E  c #546B65",
"W  c #55766D",
"Q  c #556F6A",
"!  c #786B5F",
"~  c #AA2D1C",
"^  c #861932",
"/  c #902E38",
"(  c #A33030",
")  c #B53834",
"_  c #A8302D",
"`  c #DB3A36",
"'  c #CA393B",
"]  c #946A0D",
"[  c #A26D1A",
"{  c #AA7515",
"}  c #834D26",
"|  c #8C4F2F",
" . c #8C5227",
".. c #8A5229",
"X. c #91552A",
"o. c #965C27",
"O. c #874A32",
"+. c #835A3C",
"@. c #975433",
"#. c #AA4E35",
"$. c #905C1E",
"%. c #942F44",
"&. c #834345",
"*. c #8C4C4C",
"=. c #974C49",
"-. c #8E5850",
";. c #AB4D46",
":. c #A04B47",
">. c #B14F47",
",. c #AD514A",
"<. c #B05048",
"1. c #BC5449",
"2. c #BB544A",
"3. c #986950",
"4. c #A96D56",
"5. c #8A5462",
"6. c #87706A",
"7. c #A06D66",
"8. c #AE746C",
"9. c #C2574B",
"0. c #C35B50",
"q. c #DF4040",
"w. c #E34242",
"e. c #EF5044",
"r. c #CF665B",
"t. c #CD6154",
"y. c #DB695C",
"u. c #E46C5C",
"i. c #EB705F",
"p. c #F06C58",
"a. c #E76F60",
"s. c #E97060",
"d. c #E97869",
"f. c #F27462",
"g. c #FE7A65",
"h. c #C07C7B",
"j. c #558672",
"k. c #5A8776",
"l. c #549779",
"z. c #56987A",
"x. c #4B886C",
"c. c #688F71",
"v. c #67A27E",
"b. c #AE8600",
"n. c #B98B03",
"m. c #B98313",
"M. c #CA9A00",
"N. c #C59506",
"B. c #CFA000",
"V. c #D8A701",
"C. c #E6B300",
"Z. c #988576",
"A. c #B68970",
"S. c #B3815E",
"D. c #C68E69",
"F. c #CC9873",
"G. c #D59D75",
"H. c #D89E75",
"J. c #CB8F70",
"K. c #EB887C",
"L. c #DAA179",
"P. c #DDA377",
"I. c #E5A97C",
"U. c #346D92",
"Y. c #3D7CA0",
"T. c #4A7290",
"R. c #776C83",
"E. c #867A95",
"W. c #A4748D",
"Q. c #3DB189",
"!. c #6C9C82",
"~. c #5CA685",
"^. c #65A98A",
"/. c #72A789",
"(. c #6AB895",
"). c #69B08F",
"_. c #5F9F83",
"`. c #6EC49D",
"'. c #6FC89F",
"]. c #6FC8A0",
"[. c #70C9A1",
"{. c #B18D90",
"}. c #9A95B1",
"|. c #A59EAE",
" X c #B190AC",
".X c #9CA1A8",
"XX c #CC999D",
"oX c #CA8B94",
"OX c #ED9388",
"+X c #EE9E94",
"@X c #D1A98F",
"#X c #E5AB83",
"$X c #F0B590",
"%X c #F3BBB5",
"&X c #EBB6A6",
"*X c #B0D3B1",
"=X c #F6CCB2",
"-X c #F9D2BA",
";X c #FAD5B6",
":X c #F2C5A8",
">X c #BCB6D8",
",X c #B3ABCB",
"<X c #BAB8E2",
"1X c #A09DC1",
"2X c #C4BDDC",
"3X c #A1E0C1",
"4X c #BDD2FE",
"5X c #FFDCC5",
"6X c #F9DFDC",
"7X c #F1DFDD",
"8X c #EFCED0",
"9X c #FFE4CA",
"0X c #FFE4C9",
"qX c #F8E8D8",
"wX c #CFD2F0",
"eX c #E6DAE7",
"rX c #EAEBFB",
"tX c #E5E6F6",
"yX c #EEF9FF",
"uX c #FFFFFF",
"iX c #F5FAFC",
"pX c #F6EFEA",
/* pixels */
"].].'.].[.[.[.[.[.[.[.[.[.[.[.[.].].].].].].].].].].].].[.[.[.[.].].].].[.[.[.[.].].].].].].[.[.[.[.[.[.[.[.[.[.].].].].[.[.[.[.",
"].].].].[.[.[.[.[.[.[.[.[.[.[.[.].].].].].].].].].].].].[.[.[.[.].].].].[.[.[.[.].].].`.].].[.[.[.[.[.[.[.[.[.[.].].].].[.[.[.[.",
"].].'.].[.[.].].[.[.[.[.[.[.[.[.].].].].].].].].].].].].[.[.[.[.].].].].[.[.[.[.].].].].].].].[.[.[.[.[.[.[.[.[.].].].].[.[.[.[.",
"].'.].].[.[.].].[.[.[.[.[.[.[.[.].].].].].].].].[.].].].[.[.[.[.].].].].[.[.[.[.].].].].].].[.[.[.[.[.[.[.[.[.[.].].].].[.[.[.[.",
"'.].].].].].].].[.[.[.[.[.[.[.[.[.[.[.[.[.[.[.[.[.[.].].].].[.[.].].].].[.].[.[.].].].].[.[.[.[.[.[.[.[.[.[.[.[.[.[.[.].[.[.[.[.",
"].].].].].`.].`.[.[.[.[.[.[.[.[.[.[.[.[.[.[.[.W M M n n n M n n n n n n M M N N (.].].].[.[.[.[.[.[.[.[.[.[.[.[.[.[.[.].[.[.[.[.",
"'.].`.].].].].].[.[.[.[.[.[.[.[.].[.].].[.[.[.k.M n n n n n n n n n N n N N N n (.].].].[.[.[.[.[.[.[.[.[.[.[.[.[.[.].].[.[.[.[.",
"].].].].].].].].[.[.[.[.[.[.[.[.].].^.L J L M U y.r.r.r.r.r.r.r.r.r.r.r.r.0.=.:.L L k.].[.[.[.[.[.[.[.[.[.[.[.[.[.[.].].[.[.[.[.",
"[.[.[.[.].].].].].].].`.].].].[.'.].^.m 1 < b *.g.f.f.f.f.f.f.f.f.f.f.f.g.y.;.<.u b k.'.].[.[.[.[.[.].].].].].].[.].].].].].].].",
"[.[.[.[.].].].].].].].].].].[.[.!.W E &.P =.-.0.f.s.s.&X6Xs.s.s.s.OX6XOXs.u.t.t.&.P U W k.].[.[.[.].].].].'.].'.].].].].].].[.[.",
"[.[.].].].].].].].].].].].].[.[.E 1 V 9.2.s.g.f.a.a.s.6XpX+XK.s.+X8XuXK.s.s.f.s.9.9.I 1 B ].[.[.[.[.].].'.].].].].].].].[.[.[.[.",
"[.[.].].].].].].].].].].].[.[.[.E 1 V 0.2.y.s.s.a.a.s.s.+XuX&Xd.uX%Xs.u.s.s.s.s.1.0.P < L [.[.[.[.[.].].].].].].].].].].[.[.[.[.",
"[.[.[.[.[.[.[.[.].].].].].].].].Q m A f.s.s.s.s.s.s.s.a.K.%X%X%X%X+Xs.a.s.i.s.a.s.g.-.< K ].].].[.[.[.[.].].].].[.[.[.[.[.[.[.[.",
"[.[.[.[.[.[.[.[.].].].].].].].].Q < A g.s.s.a.a.a.s.s.s.s.i.pX6Xi.i.s.s.a.a.s.a.s.g.*.; S ].].].[.[.[.[.].].].].[.[.[.[.[.[.[.[.",
"[.[.[.[.[.[.[.[.[.[.].].].].K K I =.,.s.a.s.s.s.s.s.s.s.%XuX+X8XuXOXi.s.a.a.s.a.s.p.oX1X}.K K ).[.[.[.[.].].].].[.[.[.[.[.[.[.[.",
"[.[.[.[.[.[.[.[.[.[.].].].].N m &.9.0.s.a.s.s.s.s.s.d.+X%X6Xi.&X6X+XK.u.s.s.i.a.u.e.oXwX1X2 y ^.[.[.[.[.].].].].[.[.[.[.[.[.[.[.",
"[.[.[.[.[.[.[.[.Q.Q.Q.Q.[.].N m &.2.1.s.i.s.s.i.a.a.+XuX+Xs.a.s.s.uX%Xs.a.a.a.a.+X+XXX{.W.B G W l.^.].].].].].].].].[.[.[.[.[.[.",
"[.[.[.[.[.[.[.[.Q.Q.Q.Q.].].N m %.2.0.d.s.s.s.s.a.a.%XuXOXs.a.a.OXuX%Xs.s.a.a.a.tXiXXX~ =.U.U.M 2 E ].].].].].].[.].[.[.[.[.[.[.",
"[.[.[.[.[.[.[.[.Q.Q.Q.Q.].].N m P 2.2.s.u.s.s.i.a.a.%XuXi.s.a.i.+XuX+Xs.a.p.a.a.eXyXXX) 5.T.T.T L Q (.(.].].].].[.[.[.[.[.[.[.[.",
"[.[.[.[.[.[.[.[.Q.Q.Q.Q.].].y m P 2.<.<.,.y.s.s.i.i.i.i.a.a.s.s.s.s.s.s.s.y.;.>.eXiXXX) 8.rXtXtXpX}.2 M ].].].].[.[.[.[.[.[.[.[.",
"[.[.[.[.[.[.[.[.[.[.[.[.Q.Q.N 1 &.1.<.<.,.u.f.d.s.s.f.d.f.s.f.s.s.s.f.s.f.a.:.;.eXuXXX~ r.rXrXrXuX|.= N [.].[.[.].].].].[.[.[.[.",
"[.[.[.[.[.[.[.[.[.[.[.[.Q.Q.N 1 &.1.<.<.,.1.0.0.0.0.0.0.0.0.0.0.0.0.0.0.0.2.>.>.8.oX{.{. XrXrXtXiX|.= n ].].[.[.].].].].[.[.[.[.",
"[.[.[.[.[.[.[.[.[.[.[.'.Q.Q.N 1 &.1.<.<.<.;.;.;.;.;.;.;.;.;.;.;.;.;.;.;.;.;.>.>.;.( {.wXwXrXrXrXuX|.- u ].].].].].].].].[.[.[.[.",
"[.[.[.[.[.[.[.[.[.[.[.'.Q.Q.n 1 &.1.<.<.<.<.<.<.<.<.<.<.<.<.<.<.<.>.>.>.>.>.,.>.>.) 8.}. XrXrXeXtX}.- 1 ].].].].].].].].[.[.[.[.",
"[.[.[.[.].].].].[.[.[.[.].].N 1 &.1.<.;.<.<.<.<.<.<.<.<.<.;.<.<.<.<.<.<.<.<.<.<.>.2./ t %.rXrX2X<XE.2 n ].].].].].].].].].].[.[.",
"[.[.[.[.].].].].[.[.[.[.'.].N 1 &.1.<.<.<.<.<.<.<.<.<.<.<.<.<.<.<.<.<.<.<.<.<.<.>.>.:.^ 5.rXrX2X>XE.2 n ].].].].].].].].].].[.[.",
"[.[.[.[.].].].].[.[.[.[.'.].q 8 p B A 2.>.<.>.>.<.>.<.<.<.<.<.<.<.<.<.>.<.>.<.<.%.^ W.>X,X2X2XR B Q (.(.].].].].].`.].].[.[.[.[.",
"[.[.[.[.].].].].[.[.[.[.[.'.0 q 2 b u 9.1.1.1.1.2.2.2.2.1.1.1.1.1.1.1.1.1.1.1.1.%.^ W.wX2X2XwXT = E ].].].].].].].].].].[.[.[.[.",
"[.[.[.[.[.[.[.[.].].].].].].q 0 a x x C C C C C C C C C C C C C C C C C C C C C u p R R.R.R.R.W W ^.[.].].].].].[.[.[.[.[.[.].].",
"[.[.[.[.[.[.[.[.].].].].].].q 0 z o.z b m v m m v v m 1 m m m 1 v m m m m v < < S D 1 - = < 2 ^.[.[.].].].].].].[.[.[.[.[.[.].].",
"[.[.[.[.[.[.[.[.].].].].].[.l l x } z u B u u u u u u u i y u u u y 4 u B B L L 4 3 y B B u B ^.].].].].[.].[.[.[.[.[.[.].].].].",
"[.[.[.[.[.[.[.[.].].].].].].[.[.Y 8 w X. . . . . . . .X.w 9 e X...q 9 a %.5.1X}.O   * &.Z Z P /.].].].].[.[.[.[.[.[.[.[.[.].].].",
"[.[.[.[.].].].].[.[.[.[.[.[.[.[.Y q e X... ......... .X.w % w  .} q 8 a d U }.}.O   - %.P P x /.[.[.[.[.[.[.[.[.].].].].].].`.[.",
"[.[.[.[.].].].].[.[.[.[.[.[.[.[.F . @ w q z ......} w q 4.D.D.J.D.w 7 3.J.@XeXwX:   x P.8.x P /.[.[.[.[.[.[.[.[.].].[.`.].].].].",
"[.[.[.[.].[.].].[.[.].[.[.[.[.[.h   + 0 8 z .. ...z 8 % S.$XP.#XF.9 @ 3.I.&XyXrXX   x $XD.s s /.[.`.[.].[.[.[.[.].].].].].[.].].",
"[.[.[.[.[.[.].].[.[.].].[.[.[.[.x.F h q 0 } .. . .} q 7 S.I.L.L.G.3.O.F.$X:X7X7X! ! A.:X@X4.7./.].].].].[.[.[.[.`.[.].].].`.].].",
"].[.[.[.].].].].].].].].[.[.[.[.`.'.^.w 8 }  . .X.} 0 7 S.$XP.L.L.#XP.:X9X-X=X=X0X0X0X9X;XI.I.*X[.[.[.[.[.[.[.[.].].].].[.[.[.[.",
"].[.[.[.].].].].].].].].[.[.[.[.`.'.v.l l z z z z z w 8 4.F.F.P.L.L.L.$X=X=X-X-X-X-X:X&X:XL.I.3X[.[.[.[.[.[.[.[.].].].].[.[.[.[.",
"[.[.[.[.].].].].].].].].[.[.[.[.'.'.'.'.].:       + ....e 7 -.#XL.L.L.L.L.@X-X-X-X5XA.f ! 3X3X3X[.[.[.[.[.[.[.[.].].].].[.[.[.[.",
"[.[.[.[.].].].].].].].].[.[.[.[.[.'.'.'.].:       . ..o.w % +.$XL.L.L.P.P.$X0X5X0X9X{.a U 3X3X3X[.[.[.[.[.[.[.[.].].].].[.[.[.[.",
"].].].].].].].].'.].].].].].].].[.[.].].[.l # c ] ] c k 0 9 e x x L.P.8.*.7.7.7.7.7.! /..X3X3X3X[.[.[.[.[.[.[.[.3X3X3X3X`.].].].",
"].].].].].].[.].].].].'.].].].].[.[.'.'.[.l * ] C.N.* * 9 8 9 $ 0 F.I.-.r V f s s f c.[.3X3X3X3X[.[.[.[.[.[.[.[.3X3X3X3X'.'.].].",
"].].].].[.[.[.[.'.].'.].].].].].[.'.`.c.z.j k ] B.n.j j k a e j j @X$XZ.6.5.f Z ! ! /.[.3X3X3X3X[.[.[.[.[.[.[.[.3X3X3X3X[.[.].[.",
"].].].].[.[.[.[.].].].].].].].].'.'.v.8 0 N.V.B.N.M.B.V.[ x { C.B.>X<X<XwX X^ %.`.[.[.[.3X3X3X3X[.[.[.[.[.[.[.[.3X3X3X3X[.[.[.[.",
"[.[.[.[.[.[.[.[.].].].].[.[.[.[.].].v.8 9 b.M.N.B.M.M.B.$.z [ B.N.,X,X,X>X X^ / ).`.].].].[.].].[.[.[.[.3X3X3X3X].].[.].].].].].",
"[.[.[.[.[.[.[.[.'.].].'.[.[.[.[.].].z.. . k X.{ B.n.M.B.7 . o J l J K : X * ' ' L S k.[.[.[.].].[.[.[.[.3X3X3X3X].[.[.].].].].].",
"[.[.[.[.[.[.[.[.].].].].[.[.[.[.].].l.    a / { V.B.B.C.%   O S b > > .   @ w.` V h j.[.[.].].].].].[.[.3X3X3X3X].].].].].].].].",
"[.[.[.[.[.[.[.[.'.].].].[.[.].].].].l.    ] m.{ [ [ [ { %   o S D {.{.Z.Z.U 6 6 4 S j.[.[.[.].].].].[.[.3X3X3X3X].].].].].].].`.",
"].].].].[.[.[.[.[.[.[.[.].[.[.[.].].l.    b.C.{ d z | @.@   O S D ;XqX0XpX@X    3 S j.].[.[.[.[.].].].].[.[.[.[.].].`.].].].].[.",
"].].].].[.[.[.[.[.[.[.[.[.[.[.[.].].l.    ] N.{ o.$.k z # X : M J :X:X:X;XA.    4 S j.].[.[.[.[.].].].].[.[.[.[.].].].].].].[.[.",
"].].].].[.[.[.[.[.[.[.[.].].].].].].z.    k O.{ C.b.    < J M 4 l F.L.L.#X3.    4 S j.].[.[.[.[.].].].].[.[.[.[.].].].].[.[.[.[.",
"].].].].[.[.[.[.[.[.[.[.].].].].].].l..   z O.{ V.b.    , J h 2 S G.I.L.$XS.    3 S j.].[.[.[.[.].].].].[.[.[.[.].].].].[.[.[.[.",
"].].[.[.[.[.[.[.[.[.[.[.].].].].[.[.].~.~.& + + @ @     D U.U.T.H & # # = & 4 3 _.(.(.[.[.[.[.[.].[.[.[.[.[.[.[.[.[.[.[.[.[.[.[.",
"].].[.[.[.[.[.[.[.[.[.[.].].].].[.[.[.[.[.X             G T.U.U.U.        . K S (.[.[.[.[.].[.[.[.[.[.[.[.[.[.[.[.[.[.[.[.[.[.[.",
"].[.[.[.[.[.[.[.[.[.[.[.].].].].[.[.[.[.[.F F F F h     M R R 5.U g r 6 g 6 : : ).[.[.[.].].].].[.[.[.[.[.[.[.[.[.[.[.[.[.[.[.[.",
"].].[.[.[.[.[.[.[.[.[.[.].].].].[.[.[.[.[.[.].].].`.    t %._ ` ` q.q.w.e.(     ~.[.[.[.].].].].[.[.[.[.[.[.[.[.[.[.[.[.[.[.[.[.",
"[.[.[.[.[.[.[.[.[.[.[.[.[.[.[.[.[.[.[.[.].].].].].).o o r f / _ ( ( ( ( ) f o o ~.[.[.].].].].].[.[.[.[.[.[.[.[.[.[.[.[.[.[.[.[.",
"[.[.[.[.[.[.[.[.[.[.[.[.[.[.[.[.[.[.[.[.].].].].].].].].>                 > '.'.].].].].].].].].[.[.[.[.[.[.[.[.[.[.[.[.[.[.[.[.",
"[.[.[.[.[.[.[.[.[.[.[.[.[.[.[.[.[.[.[.[.].].].].].].].].>                 : '.'.].].].].].].].].[.[.[.[.[.[.[.[.[.[.[.[.[.[.[.[.",
"[.[.[.[.[.[.[.[.[.[.[.[.[.[.[.[.[.[.[.[.].].].].].].].].[.].[.[.].].[.].[.'.'.'.].].].].].].].].[.[.[.[.[.[.[.[.[.[.[.[.[.[.[.[.",
"[.[.[.[.[.[.[.[.[.[.[.[.[.[.[.[.[.[.[.[.].].].].].].].].[.[.[.[.].'.].'.[.[.'.'.].].].].].].[.[.[.[.[.[.].].].].[.[.[.[.[.[.[.[.",
"[.[.[.[.[.[.[.[.[.[.[.[.[.[.[.[.[.[.[.[.].].].].].].].].[.[.[.[.].].].].[.[.'.'.].].].].].].[.[.[.[.[.[.].].].].[.[.[.[.[.[.[.[.",
"[.[.[.[.[.[.[.[.[.[.[.[.[.[.[.[.].[.].].].].].].].].].].[.[.[.[.].'.].].].'.'.'.].].[.[.].].[.[.[.[.[.[.[.[.[.[.[.[.[.[.[.[.[.[.",
"[.[.[.[.[.[.[.[.[.[.[.[.[.[.[.[.].].].].].].].].].].].].[.[.[.[.].].'.].].].].'.].].].[.[.[.[.[.[.[.[.[.[.[.[.].[.[.[.[.[.[.[.[."
};
