/* XPM */
static char *result[] = {
/* columns rows colors chars-per-pixel */
"64 64 213 2 ",
"   c #000000",
".  c #090B0B",
"X  c #090705",
"o  c #171818",
"O  c #140D0B",
"+  c #2B1918",
"@  c #3F1919",
"#  c #220E1B",
"$  c #13231C",
"%  c #392211",
"&  c #272B1F",
"*  c #1C2829",
"=  c #193429",
"-  c #182138",
";  c #232827",
":  c #26312D",
">  c #2A2C35",
",  c #342C3E",
"<  c #362636",
"1  c #273A35",
"2  c #3B3A3A",
"3  c #37383B",
"4  c #411211",
"5  c #48241E",
"6  c #5B371B",
"7  c #582B2A",
"8  c #4B3638",
"9  c #553635",
"0  c #4B3227",
"q  c #6D3335",
"w  c #683B3B",
"e  c #793B3C",
"r  c #7C2B29",
"t  c #2C4537",
"y  c #745030",
"u  c #41433C",
"i  c #193142",
"p  c #392F40",
"a  c #233646",
"s  c #313C43",
"d  c #3C3444",
"f  c #423140",
"g  c #4A3542",
"h  c #473E49",
"j  c #563944",
"k  c #563D50",
"l  c #6A3D44",
"z  c #334343",
"x  c #394142",
"c  c #3B454B",
"v  c #30495A",
"b  c #3B6954",
"n  c #2C4961",
"m  c #365874",
"M  c #574343",
"N  c #494B51",
"B  c #4A5A5A",
"V  c #514D51",
"C  c #694946",
"Z  c #784141",
"A  c #75484C",
"S  c #6E504D",
"D  c #72534F",
"F  c #745450",
"G  c #775C54",
"H  c #7A4452",
"J  c #4B785E",
"K  c #726B5C",
"L  c #455E6E",
"P  c #54746B",
"I  c #676D6F",
"U  c #993636",
"Y  c #A72B2B",
"T  c #AA3232",
"R  c #AD3A2B",
"E  c #A42D1F",
"W  c #C32432",
"Q  c #C03A3B",
"!  c #C53537",
"~  c #D93B3A",
"^  c #E43D3D",
"/  c #875629",
"(  c #AE4639",
")  c #B0493D",
"_  c #A6442F",
"`  c #936F2C",
"'  c #A17127",
"]  c #C5641D",
"[  c #D53F40",
"{  c #8A4646",
"}  c #8F5351",
"|  c #AD4E46",
" . c #AF4F48",
".. c #B54D41",
"X. c #B15148",
"o. c #BC5449",
"O. c #B35957",
"+. c #966A4E",
"@. c #846153",
"#. c #946F57",
"$. c #A47656",
"%. c #B1605F",
"&. c #B3696B",
"*. c #A67665",
"=. c #BE7977",
"-. c #A26F67",
";. c #8D7669",
":. c #C1574C",
">. c #C55A54",
",. c #D15D51",
"<. c #CB655B",
"1. c #DC6A5C",
"2. c #E96E5D",
"3. c #E46D5E",
"4. c #E76F60",
"5. c #E97060",
"6. c #E97C6F",
"7. c #F77764",
"8. c #67815E",
"9. c #5C8978",
"0. c #51856D",
"q. c #768572",
"w. c #6C917A",
"e. c #AB870C",
"r. c #B58F07",
"t. c #D5A800",
"y. c #CFA501",
"u. c #E6AE00",
"i. c #B9896A",
"p. c #B18C75",
"a. c #C5926C",
"s. c #C79676",
"d. c #D59D74",
"f. c #D89F78",
"g. c #D29569",
"h. c #DCA37A",
"j. c #DDA075",
"k. c #E7A879",
"l. c #F4AB7C",
"z. c #777285",
"x. c #4C7CA3",
"c. c #8D7B90",
"v. c #3DB189",
"b. c #689B84",
"n. c #729C81",
"m. c #5EAA88",
"M. c #62AE8C",
"N. c #63B18E",
"B. c #6CB895",
"V. c #5085B0",
"C. c #6DC29C",
"Z. c #70C59E",
"A. c #6FC8A0",
"S. c #70C9A1",
"D. c #B58C9B",
"F. c #B7908D",
"G. c #B8A090",
"H. c #8C88A5",
"J. c #B593A5",
"K. c #B0A7B9",
"L. c #C78D8E",
"P. c #ED9388",
"I. c #EE9E94",
"U. c #D2A895",
"Y. c #DCB39D",
"T. c #CEA291",
"R. c #E2AD8A",
"E. c #F9B686",
"W. c #EABA9B",
"Q. c #ECB893",
"!. c #D9BAAB",
"~. c #E9BDA2",
"^. c #F3B2AB",
"/. c #F3BAB4",
"(. c #92C8AC",
"). c #E8C2A8",
"_. c #F2C7AB",
"`. c #F5CAB6",
"'. c #FAD2BA",
"]. c #F9D0B4",
"[. c #E1C6B9",
"{. c #B9AAC6",
"}. c #BAB1CA",
"|. c #B5B5D6",
" X c #B9B7D6",
".X c #BABBDB",
"XX c #B9B8D8",
"oX c #ABA9CC",
"OX c #B9BFE2",
"+X c #C7B9DB",
"@X c #A1E0C1",
"#X c #B9C2E6",
"$X c #B8C5EA",
"%X c #CBC8D8",
"&X c #D5D0DC",
"*X c #FEDBC3",
"=X c #FDD7C1",
"-X c #F9DFDC",
";X c #EECAC4",
":X c #FFE0C6",
">X c #FFE2C9",
",X c #FDE8D4",
"<X c #C8C8E3",
"1X c #C4C5EA",
"2X c #DAD5FC",
"3X c #E8DEEB",
"4X c #E8ECFD",
"5X c #E3E2F4",
"6X c #ECF3FE",
"7X c #F3F4FF",
"8X c #FEFFFF",
"9X c #F6FCFF",
"0X c #FAECE7",
/* pixels */
"A.A.Z.A.S.S.S.S.S.S.S.S.S.S.S.S.A.A.A.A.A.A.A.A.A.A.A.A.S.S.S.S.A.A.A.A.A.S.S.S.A.Z.A.A.S.S.S.S.S.S.S.S.S.S.S.S.A.A.S.S.S.S.S.S.",
"A.A.A.A.S.S.S.S.S.S.S.S.S.S.S.S.A.A.A.A.A.A.A.A.A.A.A.A.S.S.S.S.A.A.A.Z.A.S.S.S.A.A.A.A.S.S.S.S.S.S.S.S.S.S.S.S.Z.A.A.A.S.S.S.S.",
"A.A.A.A.S.S.A.A.S.S.S.S.S.S.S.S.S.S.S.S.A.A.A.A.S.S.A.S.S.S.S.S.A.A.A.A.S.S.S.S.A.A.A.A.S.S.S.S.S.S.S.S.S.S.S.S.A.A.A.A.S.S.S.S.",
"A.A.Z.A.A.A.A.A.S.S.S.S.S.S.S.S.S.S.S.S.A.A.A.A.S.S.S.S.S.S.S.S.Z.A.A.A.S.S.S.S.A.A.A.S.S.S.S.S.S.S.S.S.S.S.S.S.A.A.A.Z.S.S.S.S.",
"A.A.A.A.A.A.A.A.S.S.S.S.S.S.S.S.S.S.S.S.S.S.S.S.S.S.A.A.A.A.A.A.Z.A.A.A.S.S.S.S.S.S.S.S.S.S.S.S.S.S.S.S.S.S.S.S.A.A.A.A.S.S.S.S.",
"Z.A.A.A.A.Z.A.A.S.S.S.S.S.S.S.S.S.S.S.S.S.S.S.S.S.S.S.S.A.A.S.S.A.A.A.A.S.S.S.S.S.S.S.S.S.S.S.S.S.S.S.S.S.S.S.S.A.A.A.A.S.S.S.S.",
"A.A.A.A.A.A.A.A.S.S.S.S.S.S.S.S.S.S.S.S.S.S.S.S.S.A.A.S.A.S.S.Z.A.A.Z.A.S.S.S.S.S.S.S.S.S.S.S.S.S.S.S.S.S.S.S.S.A.S.S.A.S.S.S.S.",
"A.A.A.Z.A.A.Z.A.S.S.S.S.S.S.S.S.S.S.S.S.S.S.S.P d d d d f d f d 8 d f f d f f P S.S.S.S.S.S.S.S.S.S.S.S.S.S.S.S.S.S.S.S.S.S.S.S.",
"S.S.A.A.A.A.A.A.A.A.Z.A.A.A.A.A.S.S.S.S.S.S.S.P p p p p , , , , p , , , , , , P S.S.S.S.S.S.S.S.A.A.A.A.A.A.A.A.A.A.A.A.A.A.A.A.",
"S.S.S.A.A.A.A.A.A.A.A.A.A.A.A.A.S.S.B.N N N c } <.<.<.>.<.<.<.<.<.<.<.<.<.<.3.} c N N N B.S.S.S.A.A.A.A.A.A.A.A.A.A.A.A.A.A.A.A.",
"S.S.A.A.A.A.A.A.A.A.A.A.A.A.A.A.S.S.B.< p a - } 7.7.7.5.^.`.5.7.5.^.-X5.5.5.7.} - > s p S.S.S.S.S.S.A.A.A.A.A.A.S.S.S.A.S.S.S.S.",
"S.S.A.A.A.A.A.A.A.A.A.A.A.A.A.A.b.P B { {  .O.>.5.4.5.5.^.;XI.5.P.;X-X4.5.5.7.<.O.O.{ { B B b.S.S.S.A.A.A.A.A.A.S.S.A.A.A.S.S.S.",
"S.S.S.S.S.S.S.S.S.S.A.A.A.A.A.A.9.p g :.X.2.7.5.4.4.5.4.5.I.8X5.-X-X4.4.5.2.4.5.7.3.X.o.j , 9.S.S.S.S.S.A.A.A.A.S.S.S.S.S.S.S.S.",
"S.S.S.S.S.S.S.S.S.A.A.A.A.A.A.A.9.p g  .| 3.5.4.4.5.5.5.2.6.I.-X^.P.5.5.5.4.4.5.4.1.|  .j , 9.S.S.S.S.S.A.A.A.A.S.S.S.S.S.S.S.S.",
"S.S.S.S.S.S.S.S.S.S.A.A.A.A.A.A.9.p j ,.>.3.5.5.4.5.5.5.4.6.I.-X^.P.2.5.4.5.4.4.4.4.>.>.j , 9.S.S.S.S.S.A.A.A.A.S.S.S.S.S.S.S.S.",
"S.S.S.S.S.S.S.S.S.S.A.A.A.A.A.A.9.p j 5.7.5.5.4.5.5.5.5.5.I.8X4.-X-X5.5.5.4.5.4.4.4.5.7.j , 9.S.S.S.S.S.A.A.A.A.S.S.S.S.S.S.S.S.",
"S.S.S.S.S.S.S.S.v.v.v.v.A.A.S.S.b.p j 5.5.5.5.5.5.4.5.4./.0XI.5.P.;X8X5.4.5.4.5.4.5.5.5.j p 9.S.S.A.A.A.A.A.A.A.A.A.S.S.S.S.S.S.",
"S.S.S.S.S.S.S.S.v.v.v.v.A.A.B.N.P < j 5.5.5.5.5.4.5.4.5./.-X3.4.5./.8X4.5.4.5.5.5.5.5.5.j p P M.C.Z.A.A.A.A.A.A.A.A.S.S.S.S.S.S.",
"S.S.S.S.S.S.S.S.v.v.v.v.A.A.B p f f l 4.4.5.5.5.5.4.5.5./.-X6.6.6.`.8X5.4.5.5.5.5.4.4.4.l f f d B A.A.A.A.A.A.A.A.S.S.S.S.S.S.S.",
"S.S.S.S.S.S.S.S.v.v.v.v.A.A.B p l :. .| | 1.5.5.5.5.5.5.3X6X4X4X4X4X3X4.2.2.5.5.5.1.|  .X.o.l p B A.A.A.A.A.A.A.S.S.S.S.S.S.S.S.",
"S.S.S.S.S.S.S.S.S.S.S.S.v.v.b 3 l o.X. .| 1.5.5.4.4.2.5.3X4X4X4X4X4X3X5.2.5.5.5.7.4.| |  .o.l p J A.S.S.S.S.A.S.A.A.A.A.S.S.S.S.",
"S.S.S.S.S.S.S.S.A.A.S.S.v.v.= . 7 >. . . . .X.o...&. X}.5X6XL.( L.7X5X}. X&...X.X.X. . .| :.7   1 A.S.A.S.S.A.A.A.A.A.A.S.S.S.S.",
"S.S.S.S.S.S.S.S.A.A.A.A.v.v.=   5 :. . . . .X. .( &.#X.X6X9XL.E L.9X4X.X#X&.| | X.| X. . .>.5   1 A.A.A.S.A.A.A.A.A.A.A.S.S.S.S.",
"S.S.S.S.S.S.S.S.A.A.A.A.v.v.=   5 :. . . .X.X.X.) &.#X X=.=.O...O.=.=. X#X&.( X.X.X.X.X. .>.5   1 A.A.A.S.S.A.A.A.A.A.A.S.S.S.S.",
"S.S.S.S.A.A.A.A.A.S.S.S.A.A.1   5 1.:. . .( ( ( R &.OX X| Y _ ) _ R |  XOX&.R ( ( ( | X.o.,.7   t A.A.A.A.A.A.A.A.A.A.A.A.A.A.A.",
"S.S.S.S.A.A.A.A.S.S.S.S.Z.Z.t   + l l  .) F.D.D.D.J..X XJ.D.D.D.D.D.J.|..XJ.D.D.D.F.| X.l Z +   t A.A.A.A.A.A.A.A.A.A.A.A.A.A.A.",
"S.S.S.S.A.A.A.A.S.S.S.S.8.8.&   # p g o.) {.$XOX#XOX X XOXOX$XOX#X#XOX X XOXOXOX#X{.) X.g d #   & 8.8.A.A.A.A.A.A.A.A.A.S.S.A.A.",
"S.S.S.S.A.A.A.A.S.S.S.S.6 6 X   . f g :.) +X1X.X|.|.|.|.|.|.|.|. X|.|.|.|. X|.OX1X+X) o.g f .   X 6 0 S.A.A.A.A.A.A.A.A.S.S.S.S.",
"S.S.S.S.S.S.S.S.A.A.A.A.% % 5 9 8 h j { { c.H.oXOX.X<X<X<X<X%X%X<X<X<X<X<X.X.XoXH.c.{ { j M 0 9 5 % % A.A.A.A.S.S.S.S.S.A.A.A.A.",
"S.S.S.S.S.S.S.S.A.A.A.A.    $.E.i.A S p , < # z.1X<X9X7X7X7X7X7X7X7X7X7X7X<X1Xz.# < , , S S a.E.$.    Z.A.A.A.A.S.S.S.S.A.A.S.S.",
"S.S.S.S.S.S.S.S.A.A.A.A.    +.l.*.M C g f g < z.|.{.&X<X%X%X%X+X%X%X%X<X&X{.}.z.< g g h M M $.E.+.    S.A.A.S.S.S.S.S.S.S.S.S.S.",
"S.S.S.S.S.S.S.S.A.A.A.A.    +.E.#.> 3 F S F F S C C C y < < < < < < < y C C C S F F F F 2 : #.E.+.    S.A.A.S.S.S.S.S.S.S.S.S.S.",
"S.S.S.S.S.S.S.A.A.A.A.A.    +.l.#.: t D F F D F D S S S g d f f 8 d g S S A F F S S F F 2 : #.k.+.    Z.S.S.S.S.A.A.A.A.A.Z.A.A.",
"S.S.S.S.S.S.S.A.A.A.A.S.Z.C.1 X o 3 M j.h.@.M *.k.i.> 2 a.f.h.d.d.d.s.2 : H.|.c.y @.h.h.M 3 $ X t C.C.A.S.S.S.S.A.A.A.Z.A.A.A.A.",
"S.S.S.S.S.S.A.A.A.S.S.S.A.A.=   o 2 V h.h.G M $.l.i.> 2 s.f.j.f.d.f.a.3 > c.|.c.9 G k.h.N 3 o X = A.A.A.S.S.S.S.Z.A.A.A.A.A.A.A.",
"S.S.S.S.S.S.A.A.S.S.S.S.S.S.N.m.b . + k.h.s.i.!.0XK.X . Y.]._._._.`.W.. . oX5X!.a.a.h.h.+ . b 9.N.A.Z.A.S.S.S.S.A.A.A.A.A.A.Z.A.",
"S.S.S.S.A.A.Z.A.A.A.A.A.S.S.S.S.b   o E.E.h.g.[.9XK.    !.'.'.'.'.*X!.    K.9X[.g.k.E.l.+   0.@XS.S.S.S.S.S.S.S.S.S.A.A.A.S.S.S.",
"A.A.S.S.A.A.A.A.A.A.A.A.S.S.S.S.m.0.J 0 0 i.j.).>X[.F.p.`.'.'.].'.'._.p.F.[.,X!.j.i.0 2 9.w.(.@XS.S.S.S.S.S.S.S.A.A.A.A.S.S.S.S.",
"A.A.S.S.A.A.A.A.A.A.A.A.S.S.S.S.Z.A.C.    i.k.).:X'.:X:X'.].'.'.'.].'.:X:X'.*XW.l.i.    (.@X@X@XS.S.S.S.S.S.S.S.A.A.A.A.S.S.S.S.",
"A.A.A.S.A.Z.A.A.A.A.A.A.S.S.S.S.A.A.m.    G i.s.W.~.'.].].'._.R.).'.'.'.'.~.).s.*.@.    (.@X@X@XS.S.S.S.S.S.S.S.A.A.A.A.S.S.S.S.",
"A.A.A.A.A.A.A.A.A.A.Z.S.S.A.S.Z.S.S.B.    8 V *.k.R.*X*X=X=XR.g.R.*X'.*X>XR.k.*.k g     (.@X@X@XS.S.S.S.S.S.S.S.@X@X@X@XA.A.A.A.",
"A.A.A.A.A.A.S.A.A.A.A.S.A.A.S.S.N.0.J o o y ` $.p.s.G.G.~._.R.d.R._.~.G.G.p.i.$.` y o o 9.b.(.@XS.S.S.S.S.S.S.S.@X@X@X@XA.A.A.A.",
"A.A.A.A.S.S.S.S.A.A.A.A.A.A.A.S.b   . c c r.t.' k M o - a.k.f.R.j.k.a.; $ j k ' u.r.s c X   9.@XS.S.S.S.S.S.S.S.@X@X@X@XS.S.A.A.",
"A.A.A.A.S.S.S.S.A.Z.A.A.A.A.C.B.9.. O z s e.t.' l A N N i.i.i.i.i.i.i.V N A { ' t.e.s x o . q.(.C.S.S.S.S.S.S.S.@X@X@X@XS.A.A.A.",
"S.S.S.S.S.S.S.S.A.A.A.A.S.S.K e M z x x s e.y.] W >.1X+X2 ; > > > : d .X1X>.W ] t.e.s s x z M U K S.S.S.@X@X@X@XA.A.A.A.A.A.A.A.",
"S.S.S.S.S.S.S.S.A.A.Z.A.Z.Z.K { C x x x s e.y.] W O..X{.N 3 2 3 3 3 h {..X%.W ' y.e.s x x x M { K Z.Z.S.@X@X@X@XA.S.S.A.A.A.A.A.",
"S.S.S.S.S.S.S.S.S.Z.S.S.Z q T.*XW.d.i.z s y / _ ! Q Q Q K.+XI * I +XK.[ [ [ W _ / y z s a.d.W.*XT.e y S.@X@X@X@XA.A.A.A.A.A.A.A.",
"S.S.S.S.S.S.S.S.S.Z.S.S.Z q U.:XW.d.a.x x / / _ ! ! ! ! {.1XI ; I 1X{.T T ! [ T / / x x a.d.W.>XU.q l S.@X@X@X@XA.A.A.A.A.A.A.A.",
"A.A.A.A.S.S.S.S.S.S.S.S.Z q U.*X].].U.. . . O 7 { U ! R K.1XI ; I +X{.Q Q U { 7 O O . . U.].].:XU.q l B.S.S.S.S.A.A.A.A.S.S.S.S.",
"A.A.A.A.S.S.S.S.S.S.S.S.Z q Y.,X:X,X).X       5 } { ^ ,.+X2Xz.; z.2X+X[ ~ { } @         ).,X:X,XY.q { S.S.S.S.S.A.A.A.A.S.S.S.S.",
"A.A.A.A.S.S.S.S.S.S.S.S.n.n.;.*.-.*.@.    a m > + + 4 4 d h ; . ; d 2 4 4 + + > m a     @.*.$.*.;.w.n.S.S.S.S.S.A.A.A.A.S.S.S.S.",
"A.A.A.A.S.S.S.S.S.S.S.S.A.A.G q q e q     m V.i                               i V.m     q l q w G Z.S.S.S.S.S.S.A.A.A.A.S.S.S.S.",
"A.A.S.S.S.S.S.S.S.S.S.A.A.A.n.q.q.q.I     v m 3 + * a a a i ; o * a a a a * $ s L v     I q.q.q.n.S.S.S.S.S.S.S.S.S.S.S.S.S.S.S.",
"A.A.S.S.S.S.S.S.S.S.S.A.A.A.A.A.A.A.Z.    : 3 s z v x.x.x.x.L u L x.x.x.V.v t x z :     C.S.S.S.S.S.S.S.S.S.S.S.S.S.S.S.S.S.S.S.",
"A.A.S.S.S.S.S.S.S.S.A.A.A.A.A.A.A.A.M.    9 y j y j n n n n a ; 1 n n n n j w w w 9     m.A.S.S.S.S.S.S.S.S.S.S.S.S.S.S.S.S.S.S.",
"A.A.S.S.S.S.S.S.S.S.A.A.A.C.A.A.A.A.m.    Y ^ ~ ^ Y                       Y ^ ~ ^ T     N.S.S.S.S.S.S.S.S.S.S.S.S.S.S.S.S.S.S.S.",
"S.S.S.S.S.S.S.S.S.S.S.S.S.S.S.S.S.S.N.$ $ r T U T r $ $ $ $ $ $ * $ $ $ $ r T Y T r $ $ N.Z.Z.A.S.S.S.S.S.S.S.S.S.S.S.S.S.S.S.S.",
"S.S.S.S.S.S.S.S.S.S.S.S.S.S.S.S.S.S.S.S.Z.=       = A.A.A.S.S.S.A.C.A.A.A.=       $ A.A.A.A.A.A.S.S.S.S.S.S.S.S.S.S.S.S.S.S.S.S.",
"S.S.S.S.S.S.S.S.S.S.S.S.S.S.S.S.S.S.S.S.Z.$       = A.A.S.S.S.S.A.C.A.A.A.=       * A.A.A.A.A.A.S.S.S.S.S.S.S.S.S.S.S.S.S.S.S.S.",
"S.S.S.S.S.S.S.S.S.S.S.S.S.S.S.S.S.S.S.S.Z.A.A.A.A.S.A.A.S.S.S.S.A.A.A.A.Z.A.A.A.A.A.A.A.A.Z.A.A.S.S.S.S.S.S.S.S.S.S.S.S.S.S.S.S.",
"S.S.S.S.S.S.S.S.S.S.S.S.S.S.S.S.S.S.S.S.A.A.A.A.A.A.A.A.S.S.S.S.A.A.Z.A.A.A.A.A.A.A.A.A.S.S.S.S.S.S.S.S.A.A.A.A.S.S.S.S.S.S.S.S.",
"S.S.S.S.S.S.S.S.S.S.S.S.S.S.S.S.S.S.S.S.A.A.Z.A.A.A.A.A.S.S.S.S.A.A.A.A.A.A.A.Z.A.A.A.A.S.S.S.S.S.S.S.S.A.A.A.A.S.S.S.S.S.S.S.S.",
"S.S.S.S.S.S.S.S.S.S.S.S.S.S.S.S.S.S.S.A.A.A.A.A.A.A.A.A.S.S.A.A.A.Z.A.A.Z.A.A.A.A.A.A.A.S.S.A.S.S.S.S.S.A.A.A.A.S.S.S.S.S.S.S.S.",
"S.S.S.S.S.S.S.S.S.S.S.S.S.S.S.S.S.S.S.A.Z.A.A.Z.A.A.A.A.S.S.A.A.A.A.A.A.A.A.A.A.A.A.A.A.S.S.A.A.S.S.S.S.A.A.A.A.S.S.S.S.S.S.S.S."
};
