/* XPM */
static char *result[] = {
/* columns rows colors chars-per-pixel */
"64 64 218 2 ",
"   c #010101",
".  c #0A0403",
"X  c #0B0D0D",
"o  c #0A0907",
"O  c #140A05",
"+  c #1D1208",
"@  c #15191A",
"#  c #0E1412",
"$  c #24180B",
"%  c #321A11",
"&  c #372110",
"*  c #352809",
"=  c #1B2A24",
"-  c #0F323C",
";  c #212525",
":  c #242929",
">  c #2B263C",
",  c #342C3E",
"<  c #3B2D3A",
"1  c #2C3E3F",
"2  c #243D3E",
"3  c #343E3F",
"4  c #363838",
"5  c #35292A",
"6  c #1A241E",
"7  c #47170D",
"8  c #493903",
"9  c #513A06",
"0  c #442716",
"q  c #4A2C15",
"w  c #4A2B1A",
"e  c #4C3116",
"r  c #523114",
"t  c #533219",
"y  c #59351B",
"u  c #5C3719",
"i  c #4B2910",
"p  c #663E1D",
"a  c #44323E",
"s  c #483534",
"d  c #533A39",
"f  c #513026",
"g  c #6B3134",
"h  c #6A393A",
"j  c #753B36",
"k  c #6F302E",
"l  c #73192E",
"z  c #294A3B",
"x  c #31403E",
"c  c #574300",
"v  c #755802",
"b  c #6B4713",
"n  c #714F19",
"m  c #55492F",
"M  c #734422",
"N  c #7D462B",
"B  c #694830",
"V  c #2B2A41",
"C  c #352D41",
"Z  c #3B2E40",
"A  c #2D3A46",
"S  c #3A3746",
"D  c #163957",
"F  c #443242",
"G  c #4B3442",
"H  c #473C40",
"J  c #5B3943",
"K  c #563742",
"L  c #6F3D43",
"P  c #653C45",
"I  c #743E42",
"U  c #7F2A40",
"Y  c #2D4446",
"T  c #364141",
"R  c #3A4342",
"E  c #3C4A49",
"W  c #325847",
"Q  c #3F6258",
"!  c #3C6C56",
"~  c #3A5C73",
"^  c #3B5466",
"/  c #434A4B",
"(  c #474545",
")  c #574644",
"_  c #4C5254",
"`  c #6C4743",
"'  c #6E4249",
"]  c #634643",
"[  c #794142",
"{  c #724448",
"}  c #6C554D",
"|  c #496159",
" . c #41755D",
".. c #6A665D",
"X. c #5A526B",
"o. c #4C6260",
"O. c #516863",
"+. c #547D6A",
"@. c #767465",
"#. c #625377",
"$. c #8E1F39",
"%. c #942F37",
"&. c #BC3737",
"*. c #A52F2E",
"=. c #C93837",
"-. c #D73837",
";. c #8A6605",
":. c #956A16",
">. c #A16C19",
",. c #AC6B18",
"<. c #AC770F",
"1. c #874F28",
"2. c #844E27",
"3. c #8A5128",
"4. c #8B5326",
"5. c #95582A",
"6. c #9C6323",
"7. c #895D13",
"8. c #8A1B46",
"9. c #892642",
"0. c #9B2C43",
"q. c #A42E46",
"w. c #824345",
"e. c #884945",
"r. c #964946",
"t. c #9B4B47",
"y. c #8B5645",
"u. c #AB4D46",
"i. c #AB4E47",
"p. c #AF5048",
"a. c #A3534A",
"s. c #B15048",
"d. c #BB5349",
"f. c #B55047",
"g. c #B15B56",
"h. c #906A52",
"j. c #A77958",
"k. c #917668",
"l. c #AD7C72",
"z. c #A4766D",
"x. c #C45549",
"c. c #C6564B",
"v. c #CF544C",
"b. c #E54340",
"n. c #DC695B",
"m. c #D56659",
"M. c #CA655B",
"N. c #E46E5E",
"B. c #E86F5F",
"V. c #EA705F",
"C. c #E87060",
"Z. c #E87364",
"A. c #F27463",
"S. c #F87663",
"D. c #FF7C66",
"F. c #5B8776",
"G. c #569A7C",
"H. c #4C826A",
"J. c #708D76",
"K. c #739179",
"L. c #618774",
"P. c #AD880C",
"I. c #BD940C",
"U. c #B88312",
"Y. c #B08414",
"T. c #C59600",
"R. c #C99900",
"E. c #CA9508",
"W. c #CFA000",
"Q. c #D4A200",
"!. c #DBA900",
"~. c #D5A800",
"^. c #E3AD00",
"/. c #E7B300",
"(. c #F5BA00",
"). c #F5C100",
"_. c #B8886C",
"`. c #B18176",
"'. c #B78876",
"]. c #C18E6A",
"[. c #CF986F",
"{. c #EB887C",
"}. c #DEA175",
"|. c #396B8B",
" X c #3879A4",
".X c #606A89",
"XX c #3DB189",
"oX c #629E86",
"OX c #5BA583",
"+X c #63A689",
"@X c #68B995",
"#X c #76AD90",
"$X c #4182B0",
"%X c #6DC39C",
"&X c #70C49E",
"*X c #6FC8A0",
"=X c #70C9A1",
"-X c #BD9B85",
";X c #C79A8B",
":X c #EE9E94",
">X c #ED9388",
",X c #D0AB98",
"<X c #E6B99C",
"1X c #FAB98A",
"2X c #F1B2AB",
"3X c #F3BBB5",
"4X c #E8BDA2",
"5X c #98D5B7",
"6X c #FFC58F",
"7X c #FFC494",
"8X c #F6CDB2",
"9X c #A1E0C1",
"0X c #F9DCC3",
"qX c #F9DFDC",
"wX c #F6CDC9",
"eX c #FFE4C9",
"rX c #FFF0D3",
"tX c white",
/* pixels */
"*X*X%X=X=X=X=X=X=X=X=X=X=X=X=X=X*X*X*X*X*X*X*X*X*X*X*X*X=X=X=X=X*X*X*X*X=X=X=X=X*X*X*X*X=X=X=X=X=X=X=X=X=X=X=X=X*X*X*X*X=X=X=X=X",
"*X*X*X*X=X=X=X=X=X=X=X=X=X=X=X=X*X*X*X*X*X*X*X*X*X*X*X*X=X*X=X=X*X*X*X*X=X=X=X=X*X*X*X*X=X=X=X=X=X=X=X=X=X=X=X=X*X*X*X*X=X=X=X=X",
"%X*X*X*X=X=X*X*X=X=X=X=X=X=X=X=X*X*X=X=X*X*X*X*X*X*X*X*X*X*X*X*X*X=X=X=X=X=X=X=X*X*X*X*X=X=X=X=X=X=X=X=X=X=X=X=X*X*X*X*X=X=X=X=X",
"=X*X*X*X=X=X*X*X=X=X=X=X=X=X=X=X*X=X=X=X*X*X*X&X*X*X*X*X*X*X*X*X*X*X=X=X=X=X=X=X*X*X*X*X=X=X=X=X=X=X=X=X=X=X=X=X*X*X*X*X=X=X=X=X",
"=X*X&X*X*X*X&X*X=X=X=X=X=X=X=X=X=X=X=X=X=X=X=X=X*X*X=X=X=X=X*X*X*X*X&X*X=X=X=X=X*X*X*X*X=X=X=X=X=X=X=X=X=X=X=X=X*X*X*X*X=X=X=X=X",
"*X*X*X*X*X*X*X*X=X=X=X=X=X=X=X=X=X=X=X=X=X=X=X=X*X*X*X*X=X=X*X*X*X*X*X*X=X=X=X=X*X*X*X*X=X=X=X=X=X=X=X=X=X=X=X=X*X*X*X*X=X=X=X=X",
"*X&X*X*X*X*X*X*X=X=X=X=X=X=X=X=X=X=X=X=X=X=X=X=X*X=X=X*X=X*X*X*X*X*X*X*X*X*X=X=X*X*X=X=X=X=X=X=X=X=X=X=X=X=X=X=X*X*X*X*X=X=X=X=X",
"*X*X*X*X*X&X*X*X=X=X=X=X=X=X=X=X=X=X=X=X=X=X=X=XS C C C C C C C , , , , C , C o.*X*X*X=X=X=X=X=X=X=X=X=X=X=X=X=X=X=X*X*X=X=X=X=X",
"=X=X=X*X*X*X*X*X*X*X*X&X*X*X*X*X=X=X=X&XoXoXoXoX} ' ' ' ' ' ' ' ` ' ' ' ' ' { ..oXoXOXoX&X=X=X=X=X=X*X*X*X*X%X*X=X=X*X*X*X=X=X=X",
"=X=X=X*X*X*X*X*X*X*X*X*X*X*X*X*X=X=X=X+XZ F F > M.D.S.S.S.S.S.A.S.S.S.S.S.S.D.g.> C Z Z &X=X=X=X=X=X=X*X*X*X*X*X=X=X*X*X*X*X=X=X",
"=X=X*X*X*X*X*X*X*X*X*X*X=X=X*X*X=X&X@XoXG G G F M.A.C.C.C.C.N.C.C.C.Z.C.C.C.Z.g.F G G G @X@X&X=X=X=X*X*X*X*X*X*X=X*X*X*X=X*X=X=X",
"=X=X*X*X*X*X*X*X*X*X*X*X=X*X*X*X=X+.F K d.s.Z.Z.C.Z.C.C.>XqX>XC.C.C.C.qX2XC.V.C.Z.n.p.f.H a +X=X=X=X*X*X*X*X*X*X=X*X*X*X=X*X*X*X",
"=X=X=X=X=X=X=X=X=X=X*X*X*X*X*X*X=XoXC K f.p.C.C.C.B.B.Z.:XtX3X:XC.{.:XtX3XC.C.C.V.N.i.i.F Z +X&X=X=X=X=X*X*X*X*X=X=X=X=X=X=X=X=X",
"=X=X=X=X=X=X=X=X=X=X*X*X*X*X*X*X=X+.> P C.N.C.C.B.B.B.C.C.C.qXtXC.3XtXN.C.C.C.C.B.B.N.n.G a +X=X=X=X=X=X*X*X*X*X=X=X=X=X=X=X=X=X",
"=X=X=X=X=X=X=X=X=X=X*X*X*X*X*X*X*XoXV J S.C.B.B.C.B.B.B.C.C.2XwX3X3X3XC.C.C.C.C.B.Z.C.Z.Z C +X&X=X=X=X=X*X*X*X*X=X=X=X=X=X=X=X=X",
"=X=X=X=X=X=X=X=X=X=X*X*X*X*X*XF.o.} e.a.A.C.B.Z.B.B.B.Z.C.C.C.:XtX3XC.C.C.C.N.C.B.B.C.B.r.e.X.o.OX=X=X=X*X*X*X*X=X=X=X=X=X=X=X=X",
"=X=X=X=X=X=X=X=XXXXXXXXX*X*X*Xo.C { c.c.Z.Z.B.B.C.B.C.C.C.C.qXtX:XwXtXC.B.C.C.C.B.C.C.C.d.x.P C F.*X*X*X*X*X*X*X*X*X=X=X=X=X=X=X",
"=X=X=X=X=X=X=X=XXXXXXXXX*X*X*XO., L d.d.A.Z.B.Z.C.C.C.C.Z.:XwXqXB.2XqX:X{.C.C.B.B.C.C.C.f.d.K Z F.*X*X*X*X*X*X*X*X*X=X=X=X=X=X=X",
"=X=X=X=X=X=X=X=XXXXXXXXX*X*X*XO., L d.d.A.V.B.B.C.C.C.C.:XtX:XC.C.C.C.tX3XC.C.C.B.Z.Z.A.f.d.J < F.*X*X*X*X*X*X*X*X=X=X=X=X=X=X=X",
"=X=X=X=X=X=X=X=XXXXXXXXX*X*X*XO., L d.d.n.n.B.Z.C.C.B.C.:XtX:XC.C.C.C.tX3XC.B.B.B.B.m.m.f.d.J C F.*X*X*X*X*X*X*X*X*X=X=X=X=X=X=X",
"=X=X=X=X=X=X=X=X=X=X=X=XXXXXXXQ , L d.p.i.p.B.V.V.V.V.C.:XtX:XB.N.C.C.tX3XC.C.B.Z.n.u.u.p.d.J Z F.*X=X=X*X*X=X=X*X*X*X*X=X=X=X=X",
"=X=X=X=X=X=X=X=X=X=X=X=XXXXXXXQ , ` d.p.p.p.N.N.N.N.N.C.B.C.C.B.C.C.C.C.C.B.B.N.B.n.u.u.p.d.J C F.*X=X=X*X*X=X=X*X*X*X*X=X=X=X=X",
"=X=X=X=X=X=X=X=X=X=X*X&XXXXXXXQ , ` d.s.p.s.p.p.p.u.m.Z.C.C.V.V.C.C.C.C.Z.M.u.p.p.f.p.p.u.d.J C F.*X*X=X*X*X*X=X*X*X*X*X=X=X=X=X",
"=X=X=X=X=X=X=X=X*X*X*X&XXXXXXX| C I c.f.p.p.s.p.p.u.m.A.C.A.A.S.A.A.A.C.A.v.u.p.p.p.p.p.f.x.P C F.*X=X=X*X*X=X=X*X*X*X*X=X=X=X=X",
"=X=X=X=X=X=X=X*X=X=X=X=X*Xm m d F F G P f.s.s.p.s.p.f.c.y.( ) ) ) ) ) a.d.s.p.p.s.p.f.p.K K F F d m m *X*X*X*X*X*X*X*X*X*X=X=X=X",
"=X=X=X=X=X*X*X*X=X=X=X=X*Xy u 5 > , C K d.s.p.s.p.p.f.c.[ 2 T A x A 2 t.c.f.p.p.p.s.p.p.F C , > f u f *X*X*X*X*X*X*X*X*X=X=X=X=X",
"=X=X=X=X*X*X*X*X=X=X=X=X*X+ + B _.} > J d.p.s.s.s.d.e.) ) x S 3 x T T ) ) r.d.p.f.s.s.s.F C h.'.d + + *X*X*X*X*X*X*X*X*X=X=X=X=X",
"=X=X=X=X*X*X*X*X=X=X=X=X*X    h.1Xz.> J c.d.d.d.s.c.) - 2 x x 3 x 1 1 2 - { d.f.d.d.d.d.F V '.1XB     *X*X*X*X*X*X*X*X*X=X=X=X=X",
"=X=X=X=X=X=X=X=X*X*X*X*X*X    h.1Xj.; f e.9.w.[ i.d.e.] ` ` ` ` ` ` ` ` ` y.d.i.I w.[ I s & _.6Xm     *X=X=X=X*X=X=X=X=X*X*X*X*X",
"=X=X=X=X=X=X=X=X*X*X*X*X*X    h.1Xj.i e V A C V t.d.d.x.x.x.x.x.x.x.x.x.c.d.x.w.V , C C r i _.7XB     *X=X=X*X*X=X=X=X=X*X*X*X*X",
"=X=X=X=X=X=X=X=X*X*X*X*X*X= = } ].y.0 f K d a 5 e.t.r.t.r.r.r.r.r.r.r.r.r.r.t.j < s d d t 0 h._.m = = *X=X=X=X=X=X=X=X=X=X*X*X*X",
"=X=X=X=X=X=X=X=X*X*X*X*X*X=X=XW   + y u 5.4.r r < , , C < C C C C < C C C C C s i u 5.4.t y     H.*X*X*X=X=X=X=X=X=X=X=X=X*X*X*X",
"=X=X=X=X=X=X=X=X*X*X=X=X=X=X=Xz o $ r y 3.2.y t s a a a F a F F F a a F a a F s r u 3.1.e t # o  .*X*X*X=X=X=X=X*X*X*X*X*X*X&X*X",
"=X=X=X=X=X=X=X=X=X*X*X=X=X=X=X*X%X .  O y t 2.1.1.1.1.1.1.1.1.1.1.1.1.1.1.1.1.1.3.N e t     G.%X%X&X*X&X=X=X=X=X*X*X*X&X*X*X*X*X",
"=X=X=X=X=X=X*X=X=X=X=X=X=X=X=X=X*X!   o u y 3.4.3.1.3.1.3.3.3.1.1.1.3.4.3.3.1.4.4.1.t t .   G.=X&X*X*X*X=X=X=X=X*X*X*X*X*X*X*X*X",
"=X=X=X=X=X=X*X*X=X=X=X=X=X=X=X=X*X@XOX+.. O y t N 3.1.3.1.3.1.1.1.1.3.1.1.3.4.M y e o O G.OX@X*X*X*X*X*X=X=X=X=X*X*X*X*X*X&X*X*X",
"*X*X*X=X*X*X*X*X*X*X*X*X=X=X=X=X*X*X*XOX    t t 4.5.5.3.3.1.1.3.1.1.1.3.4.5.5.1.t 0     9X9X9X9X*X*X=X=X=X=X=X=X*X*X=X=X*X*X=X=X",
"*X*X=X=X%X*X*X*X*X*X*X*X=X=X=X=X*X*X=XOX: ; $ + % & t M M 3.3.1.3.3.3.M p w & % + $ : : 5X9X9X9X=X*X=X=X=X=X=X=X*X*X=X=X*X*X=X=X",
"*X*X=X=X*X*X*X*X*X*X*X*X=X=X=X*X*X*X=X@X/ T         + t p 5.3.3.3.3.5.y y O         / / 9X9X5X9X=X=X=X=X=X=X=X=X*X*X=X=X=X=X=X=X",
"*X*X=X=X*X*X*X*X*X*X*X*X=X=X=X*X=XOX! ! E T @ @ 8 c e q p M M M M M M y w 9 c * @ 6 R S +.L.5X5X=X=X=X=X=X=X=X=X*X*X=X*X=X=X=X=X",
"*X*X*X*X*X*X*X*X*X*X*X*X*X*X*X*X*X!   X R x / Y I.(.;.w t 0 0 0 0 0 0 t w <.(.Y.Y E S T     #X5X=X=X=X=X=X=X=X=X9X9X9X9X*X*X*X*X",
"*X*X*X*X*X*X=X*X*X*X*X*X*X*X*XOXG.! X @ E 3 H F <.^.n & r b b b b b b q & ;.!.:.S S T T # X L.5X@X=X=X=X=X=X=X=X9X9X9X9X*X*X*X*X",
"*X*X*X*X=X=X=X=X=X*X=X&X*X*X*Xz   @ / ( A m 9.8.E.^.8   8 /.Q.W.Q.W.^.$   v /.,.8.9.T T R / X   ! *X=X=X=X=X=X=X9X9X9X9X=X=X*X*X",
"*X*X*X*X=X=X=X=X=X=X=X*X*X*X&X| o = / x T S 9.9.<.!.9 . 9 ^.T.R.R.R.~.* . v !.,.8.j T T R / @ . L.&X*X=X=X=X=X=X9X9X9X9X=X=X=X=X",
"=X=X=X=X=X=X=X=X*X*X*X*X=X{ g ;X8X<X[._.  o &.=.% . v Q.T.R.T.R.T.R.R.T.~.9 . 7 -.%.  o [.[.<X0Xl.h B =X9X9X9X9X*X*X*X*X*X*X*X*X",
"=X=X=X=X=X=X=X=X&X*X*X*X=Xj g ;XrX<X}.j.  . =.-.+   v ^.R.T.R.R.T.R.R.W./.c   7 b.*.    ].}.8XrX`.g [ =X9X9X9X9X*X*X*X*X*X*X*X*X",
"=X=X=X=X=X=X=X=X&X=X=X=X=XI g ;XeX8X8X-X  . 9.0.f & M 6.<.R.T.R.R.R.R.>.6.p & f q.l     4X8X8X0X`.g [ =X9X9X9X9X*X*X=X*X*X*X*X%X",
"=X=X=X=X=X=X=X=X=X=X&X&X=XI k ,XrXeXrX,X    $.9.y t p j >.!.Q.Q.W.W.~.4.N p q k 0.l     8XrX0XrX'.g I =X9X9X9X9X=X=X=X*X*X*X*X*X",
"*X*X*X*X=X=X=X=X=X=X=X=X*XK.K.`.`.l.`.k.6 ; X.X.f 0 7.U.<.>.>.>.>.>.>.<.<.n 0 d #._ = : z.`.l.`.k.K.K.*X=X=X=X=X=X=X=X=X=X=X=X=X",
"*X*X*X*X=X=X=X=X=X=X=X=X*X*X%XO.g g g h E / |. Xf 7 <.).U.g N j N N j E.).;.7 /  X|.( / g g g h J.*X*X*X=X=X=X=X=X=X%X*X=X=X=X=X",
"*X&X*X*X=X=X=X=X=X=X=X=X*X*X*XK.@.@.@...: : ~ ~ / R n v ;.>.>.>.>.>.>.;.;.n H _ ~ ^ : : @.@.@.@.oX*X*X*X=X=X=X=X&X%X=X*X=X=X=X=X",
"*X*X*X*X=X=X=X=X=X=X=X=X*X*X*X*X*X*X=X+X    4 4 |.$X- o 8 (.Q.Q.Q.Q./.+   D $X~ 4 :     *X&X*X*X=X*X*X*X=X=X=X=X=X=X=X*X=X=X=X=X",
"*X=X=X=X=X=X=X=X=X=X=X=X*X*X*X*X*X*X*XOX    K m X..X, X 9 I.P.P.P.P.I.* X A .XX.d s     @X&X*X*X=X=X=X=X=X=X=X=X=X=X=X=X=X=X=X=X",
"=X=X=X=X=X=X=X=X=X=X=X=X*X*X*X*X*X*X*XOX  . =.=.=.-.B Y A A A A A A A Y A 1.-.=.-.*.    %X*X*X*X=X=X=X=X=X=X=X=X=X=X=X=X=X=X=X=X",
"=X=X=X=X=X=X=X=X=X=X*X=X*X*X*X*X*X*X*XG.  o &.&.&.=.j Y R R R R R R R R z %.=.&.=.%.  o %X&X*X*X=X=X=X=X=X=X=X=X=X=X=X=X=X=X=X=X",
"=X=X=X=X=X=X=X=X=X=X*X*X*X*X*X*X*X*X*X*X@X@Xo o . . H.%X%X%X%X%X%X%X@X%X@X| . . . = @X%X*X*X*X*X=X=X=X=X=X=X=X=X=X=X=X=X=X=X=X=X",
"=X=X=X=X=X=X=X=X=X=X=X=X=X=X=X=X=X=X=X=X*X%X         .*X=X=X=X=X*X*X*X*X*Xz       # *X*X*X*X*X*X=X=X=X=X=X=X=X=X=X=X=X=X=X=X=X=X",
"=X=X=X=X=X=X=X=X=X=X=X=X=X=X=X=X=X=X=X=X*X&X*X&X*X*X=X*X=X=X=X=X*X*X*X*X*X*X*X*X*X*X*X*X*X*X*X*X=X=X=X=X=X=X=X=X=X=X=X=X=X=X=X=X",
"=X=X=X=X=X=X=X=X=X=X=X=X=X=X=X=X=X=X=X=X&X*X*X*X*X*X*X*X=X=X=X=X*X*X*X*X*X*X*X*X*X*X*X*X*X*X*X*X=X=X=X=X=X=X=X=X=X=X=X=X=X=X=X=X",
"=X=X=X=X=X=X=X=X=X=X=X=X=X=X=X=X=X=X=X=X*X*X*X*X*X*X*X*X=X=X=X=X*X*X*X*X*X*X%X*X*X*X*X*X*X*X*X*X=X=X=X=X=X=X=X=X=X=X=X=X=X=X=X=X",
"=X=X=X=X=X=X=X=X=X=X=X=X=X=X=X=X=X=X=X=X*X*X*X*X*X*X*X*X=X=X=X=X=X%X*X*X*X*X*X*X*X*X*X*X=X=X=X=X=X=X=X=X*X*X*X*X=X=X=X=X=X=X=X=X",
"=X=X=X=X=X=X=X=X=X=X=X=X=X=X=X=X=X=X=X=X*X*X*X*X*X*X*X*X=X=X=X=X=X*X*X*X*X*X*X*X*X*X*X*X=X=X=X=X=X=X=X=X*X*X*X*X=X=X=X=X=X=X=X=X",
"=X=X=X=X=X=X=X=X=X=X=X=X=X=X=X=X=X=X=X=X*X*X*X*X*X*X*X*X=X=X=X=X*X*X=X=X*X*X%X=X*X*X*X*X=X=X=X=X=X=X=X=X*X*X*X*X=X=X=X=X=X=X=X=X",
"=X=X=X=X=X=X=X=X=X=X=X=X=X=X=X=X=X=X=X=X*X*X*X*X*X*X*X*X=X=X=X=X*X*X%X*X*X*X*X=X=X*X*X*X=X=X*X*X=X=X=X=X*X*X*X*X=X=X=X=X=X=X=X=X"
};
