/* XPM */
static char *result[] = {
/* columns rows colors chars-per-pixel */
"64 64 246 2 ",
"   c #310417",
".  c #3B181B",
"X  c #3B211C",
"o  c #361D24",
"O  c #3C1B3D",
"+  c #342425",
"@  c #372626",
"#  c #3A2425",
"$  c #352B26",
"%  c #3B252B",
"&  c #352D28",
"*  c #3A2A2C",
"=  c #343027",
"-  c #3E2A33",
";  c #560B13",
":  c #45141A",
">  c #551014",
",  c #6B090C",
"<  c #7B0505",
"1  c #760A0B",
"2  c #701215",
"3  c #51271B",
"4  c #583917",
"5  c #5C3D1A",
"6  c #6D2F17",
"7  c #663A1A",
"8  c #4C1828",
"9  c #462429",
"0  c #572A28",
"q  c #5B3924",
"w  c #472935",
"e  c #4A353C",
"r  c #5B313A",
"t  c #6E2B2E",
"y  c #762727",
"u  c #683828",
"i  c #773C2C",
"p  c #673835",
"a  c #743A35",
"s  c #5E4218",
"d  c #6A490C",
"f  c #72520B",
"g  c #62431B",
"h  c #67491A",
"j  c #784513",
"k  c #7B561B",
"l  c #7F611A",
"z  c #664426",
"x  c #6D4B23",
"c  c #744C24",
"v  c #7B422E",
"b  c #7A5423",
"n  c #795626",
"m  c #694539",
"M  c #7D4433",
"N  c #774339",
"B  c #765536",
"V  c #3D1D41",
"C  c #3C2244",
"Z  c #3E2649",
"A  c #431B46",
"S  c #611E46",
"D  c #42244B",
"F  c #43274B",
"G  c #55344A",
"H  c #4A2355",
"J  c #422E53",
"K  c #653647",
"L  c #66365B",
"P  c #5B2E6A",
"I  c #5E336E",
"U  c #602C63",
"Y  c #633467",
"T  c #643674",
"R  c #65387B",
"E  c #66387D",
"W  c #5B454A",
"Q  c #58474C",
"!  c #684748",
"~  c #764A47",
"^  c #745649",
"/  c #664B55",
"(  c #754B56",
")  c #66565A",
"_  c #795759",
"`  c #7E6550",
"'  c #5E4861",
"]  c #6F4C6C",
"[  c #765B64",
"{  c #686464",
"}  c #77646A",
"|  c #7D6A73",
" . c #890401",
".. c #870808",
"X. c #960A0A",
"o. c #8E1014",
"O. c #8B1515",
"+. c #A70706",
"@. c #B30504",
"#. c #BB0402",
"$. c #86221D",
"%. c #872A25",
"&. c #8A312E",
"*. c #8C5F0E",
"=. c #845A16",
"-. c #976C0A",
";. c #976D0B",
":. c #8D681A",
">. c #946D18",
",. c #94711E",
"<. c #81452F",
"1. c #845D27",
"2. c #834B35",
"3. c #874A36",
"4. c #834D3B",
"5. c #87513B",
"6. c #8C523B",
"7. c #92553B",
"8. c #96593D",
"9. c #9C5D3E",
"0. c #A05F3C",
"q. c #896629",
"w. c #836136",
"e. c #976D30",
"r. c #986A33",
"t. c #A1613E",
"y. c #A57A36",
"u. c #894B4C",
"i. c #875648",
"p. c #945845",
"a. c #9C5E41",
"s. c #875A58",
"d. c #A04A4D",
"f. c #896A4E",
"g. c #9B6248",
"h. c #8A6558",
"j. c #986758",
"k. c #A26341",
"l. c #A76A49",
"z. c #AD714D",
"x. c #A56C55",
"c. c #A9745A",
"v. c #B47957",
"b. c #865E63",
"n. c #9C5D63",
"m. c #886867",
"M. c #946B64",
"N. c #8B7466",
"B. c #977469",
"V. c #866C75",
"C. c #89747A",
"Z. c #957979",
"A. c #A97A67",
"S. c #B17C66",
"D. c #A57471",
"F. c #779F2A",
"G. c #749E34",
"H. c #749D38",
"J. c #4EA53D",
"K. c #53A43E",
"L. c #57A73D",
"P. c #5CAB3D",
"I. c #7AA42C",
"U. c #64AA3D",
"Y. c #71A337",
"T. c #66B33E",
"R. c #6AB33F",
"E. c #73B63C",
"W. c #75B93C",
"Q. c #76C43C",
"!. c #4C9E44",
"~. c #4D9F4A",
"^. c #579D45",
"/. c #4EA445",
"(. c #4CA846",
"). c #4EA44A",
"_. c #52A445",
"`. c #5BAA43",
"'. c #58A846",
"]. c #51A34A",
"[. c #56A94E",
"{. c #63AD45",
"}. c #67B442",
"|. c #6AB342",
" X c #6AB64B",
".X c #75B747",
"XX c #73B842",
"oX c #6BB752",
"OX c #74BC51",
"+X c #77C14B",
"@X c #B1863A",
"#X c #B48939",
"$X c #85BD3E",
"%X c #8BC73C",
"&X c #96C73E",
"*X c #95CA3D",
"=X c #BB805E",
"-X c #82BC4A",
";X c #9C827E",
":X c #B5846C",
">X c #BA866A",
",X c #A2827D",
"<X c #BD8C71",
"1X c #C18866",
"2X c #C38D6B",
"3X c #C7926F",
"4X c #C18E71",
"5X c #C59273",
"6X c #CA9674",
"7X c #CC9875",
"8X c #CA9779",
"9X c #CC9978",
"0X c #8DC542",
"qX c #89C747",
"wX c #93CB43",
"eX c #94C948",
"rX c #8CCA53",
"tX c #94CA53",
"yX c #9ED063",
"uX c #673981",
"iX c #693B82",
"pX c #6D3E8C",
"aX c #754989",
"sX c #896D8F",
"dX c #8D7A85",
"fX c #937D84",
"gX c #8A62A1",
"hX c #988488",
"jX c #9C8C93",
"kX c #9F9097",
"lX c #A48887",
"zX c #AB8E8F",
"xX c #A79699",
"cX c #B49A9C",
"vX c #AAAE92",
"bX c #AA9BA2",
"nX c #B8A7A9",
"mX c #B4AAAF",
"MX c #BAABB3",
"NX c #C3ABAE",
"BX c #C4B6B9",
"VX c #C5CCA9",
"CX c #C5D7AC",
"ZX c #D4C9CE",
"AX c #E2DADD",
"SX c #F0EEEC",
/* pixels */
"SXtX*XwX*X*X*X*X*X*X*X*X*X*X*XwXwXwXwX&XwXwXeX&X&XwX&X&X*X0XwX*X*X*X&X&X&X*XwX&XwX&X*X*X*X*X*X*X*X*X*X&X&X&X&X*X&X*X*X&X*X*XCXVX",
"CXqXQ.+XE.E.E.W.+XR.XXE.XXW.E.XXXXW.W.W.W..XXXXXXXXXXXXXXXXXXXXXXXXXXXXXXXXXXXXXXXXXXXXXXXW.E.XXXXXXXXXXXXXXXXXXW.E.XXXXE.E.yXvX",
"%X`.(./.J./.(./.J./.(././././.(.`.L.K./._.].]./._._._././././.!./.J./._./.(.(././././._./.)./././././././././.K././.J.(.).(.T.U.",
"0X'.J.(.)./.(.(.J./.(./.(.).).)._. X{.).].) - A O A A D A V O H Y sX).).).).).).)././.].).).)./.(.).(.).).).]._.).)./.L./.].|.G.",
"%X`./.'.[.{.).)._._._._._.'.]._.K.|.`._.[.| Z J C Z V F Z J Z T pXuXT ~._._.].!._._._._.{.'._._._._.]._.].].].^./._.{.|.`.).}.H.",
"qX`./._.OXR.J.(._._._._._._.]._.J.K._._.(.(.J J F Z C Z C J Z T pXpXiX] )._.!.^._._._.L.OX X_._._._._._./._._.].].'..X0X.X]. XH.",
"%X`.).[.`.`./.).).].].'.oX'._.)./.J.(./.).).] Z F C C Z C J F E pXpXpXuXsX/.)./.K./.`. X|..X{._.]./.)._._._.).).).).P.|.'./.T.G.",
"%X`.).]./.).(.(.)._.~.`..X'._./././.).]././.(.Z J C Z Z C Z Z E pXpXpXpX] /.(.)._.).K. XU. X|._.]./.)._.U.^.).)._.)././././.R.G.",
"0X`.)./././.(.(.).).]._.L._.)././.).].)._././.G J Z Z C J J F E pXpXpXpXR mX!.].].).).L.(.'.'.].!.!./.'.+XL.(.).)././.!.!./.T.G.",
"0X`.)._./.(.J.L.)._.)./.(./._.)./.].]././._.J.sXZ Z F C J J F E pXpXpXpXpXsX^.].].)././.).).].].)././.'. XK._./.)._.).]././.|.G.",
"0X`.)./.)._.(.(._.].).).)./.)./.)./._.).).(.`._.J J J C J J F iXpXpXuXR T | P.J.(././.).).).).(.).].].].).).).)./.)._.]././.R.G.",
"0X`.)._././.J.L._.)./.).].J././._.)._.).). XOX_.' J J Z F J H iXuXY ( m.s.( MXzX;X]./.).).).).(.]._.].~.).).).).]././.]././.|.G.",
"0X`.].]./._.{.[.).)./.).'.}.].(./.]._.).s.6.i.Z.W F J J J J F R L A.6X7X6Xs.h.<X<X;X].)._./.(./ z x n B (.(._.)._._./._././.|.G.",
"qX'.)./././. XoX(.).(./.f.B w.f.xX(./.lX5.k.8.i N F J J J J D K >X7X7X7X>X:X6X7X9XA.BX].;Xq m q h l ,.b n c.B n ` xX)._._./.|.G.",
"-X`.!.!.(.(.L.zXB m B.i.=.;.;.=.m m h._ i 8.0.k.8.w F F F F w S.7X7X6X6X7X7XS.j.j.S.lXK.` 4 n n s l ,.q.e.#Xb :.>.k N. X X).|.G.",
"&XU.!.^.(.(.` d *.k y.y.=.;.;.=.y.c B hXfX5.0.k.0.5.i.i.s.s.n.7X7X7X7X7X7X6X2X:Xr 9 _ U.N.s x q.s x :.k e.#Xb ,.,.,.:.Z.{.).R.G.",
"$XU.]./.).h.f ;.;.*.r.y.j -.=.q.y.<.h a a a t.t.t.=X3X9X6X9X8X7X7X7X7X7X7X7X9X3Xa ; 2 u.a h s q.n s b q.#X#Xk 1.,.>.,.1.nX).|.G.",
"0X{._._.cXd ;.;.:.k y.#Xy.r.1.@Xq.1.2 < , 7.t.t.v.6X6X6X7X7X8X8X7X7X7X7X7X7X7X9XS.o.#.@.X.5 s x q.q.q.e.e.e.#Xq.k ,.,.>.f./.R.G.",
"0XU.{.U.` f ;.:.b y.1.k 1.r.@Xy.b k 1  .6 9.l.1X4X8X8X8X9XzX7X8X7X9X9X7X7X7X9X9X4X$.#.#.+.> h s n z 4 s k n l =Xq.1.,.,.n ].R.H.",
"&XU.OXrXh d f h e.b =.;.-.j 1.n 1.2 1 , t 2.u.n.b.s.s.s.u.s.d.s.s.n.j.D.A.>XS.S.D.y +.#.+.y z s s z 4 k :.,.l q.#Xn k k x ].R.G.",
"wXP.{.}.` h g 1.x d *.-.=.z c b u 8 S S Y T T T R R E E uXuXuXuXR R T Y Y G ] ] ] E X.#.+.%.2.s h z g s l ,.,.n ,.=Xq.y.j.).|.H.",
"qX`.(.J._ h x 1.4 f f d 4 z 7 g M P pXuXE E T L K w H T iXE I I P P P R pXY gXgXgXb.o.#.@.%.7.3 s s x q s l :.l e.y.1.w.B ).R.H.",
"qX`.(.C.s h 5 x g d d 5 7 s 5 2.p.L H A A 8 t p.9.6.a u.L H A A A A A P iXR gXaXb.d.&.@.@.$.r . # s g z 5 s h x e.k l :.k ` R.Y.",
"qX`.[.` h h h x x 4 5 q s q # p 6.L uXR R G p.i u 3.8.u.c.K G T pXpXpXpXI Y ( n.S.cXS.$.@.1 o o + X 5 s z z s 4 q.g :.,.,.5.R.G.",
"qX`.(.N.h h s x q.x q g 4 + o % a r P P U ~ 0.<.2.9.0.8.i.S.s.( P L U L S ~ =X7X7X7X<X~ X.1 o # o 9 q 7 g s c n q.5 b ,.,.B E.I.",
"0XP.(.;X5 g b n x s s 3 . @ + + 9 , ; t p 6.8.<.2.p.t.0.3.x.c.j.a i.p.p.z.<X7X7X7X6X7Xi.2 ... % % p a.3.u h s h q.n g n q.f.T.Y.",
"%XL.(.).q B h 5 s g q w o + # + : 1 K u.M 5.3 t p 3 7.0.0.4.A.j.S.>Xc.6X7X7X6X7X7X7X7X<X%.X.: o 0 p.0.t.6.g g s 5 c q.n 5 h.T.Y.",
"%X`.).).q 5 h 5 7 M g.5.9 + # # ; y xX4.M a 8 0 0 : t t.0.6.j.:X9X<X_ A.7X7X6X6X7X7X7X6Xp.o.; o 4.r.0.r.t.8.v g h g s c z /.R.G.",
"%X`.).).m 5 u v 8.t.t.t.4.9 o o ; n.BXN m hXV.p p [ p 9.r.k.4.<X7X2X,XhX<X:XB.c.8X7X7X5X~ o., u a.0.k.z.z.z.k.3.u g h g 3 /.}.G.",
"%X`././.(.m.6.k.k.v.=Xv.r.N # : , cXAXp m.V.: u p V.lX8.l.2XA.x.7X5XlXZXB.M.V.;X4X6X7X8Xp.....3.k.l.2X7X6X3X3X1Xz.i.z 7 m (.}.G.",
"*XP./.K.K.M.g.t.z.6X7X7X>Xk.p ; , NXSX( Z.fXa 4.K xXzX7.v.7X5Xx.7X<XzXSXm.m.[ s.c.8X9X9Xx.+.+.%.k.l.6X7X7X7X7X7X7X6X2XS.N.).}.G.",
"0X`.(./.}.i.r.t.v.7X6X7X3Xz.3., , lXZXu.i.zXxXzXNXNXi.k.3X9X7X6X9XS.NXSXm.h.>X5X5X7X7X<Xu.X.#.o.7.a.1X1X1X2X7X7X7X7XA.:XZ./.}.G.",
"0XP.(._.+Xi.8.2.c.7X7X6X7XS.v < , ~ b.5.9.N _ b.s.5.9.k.1X9X7X6X<XZ.SXAXB.7X7X7X7X7X7XS.a +.#.+.y <.9.t.k.2X7X6X7X7X<Xi.hX].}.G.",
"0X'./._.OX~ v g.5X7X7X6X6Xl.i < 1 a 3.i M M <.i v 3.8.a.l.v.:Xj.~ cXNXZ.:X7X7X7X7X7X7Xg.2 @.#.o.<.t.t.k.1X7X7X7X6X7X9X>X,X).|.G.",
"%X`./._.{.4.k.3X6X6X7X7X6Xx.t < , 0 9.<.2.p.p.a.8.3.<.i i v <.5.5.i.g.:X7X7X7X7X7X7X:X%.+.#.+.&.a.r.t.l.<X9X7X6X7X6X7X7XB.).|.G.",
"0X`.~.].s.r.k.3X7X6X7X7X7X7Xj.2  .1 7.9.<.v <.M <.7.9.9.9.8.3.6.k.z.3X7X6X7X7X7X7XS.%.+.#.#.o.N s.i.7.s.N.A.6X7X6X7X6X7X:XcXR.G.",
"0X`.)._.6.t.t.=X7X9X6XA.:X6X6X5.< < y r.t.t.t.r.7.3.v i v M 6.z.=X6X7X7X7X7X8X:Xd.O.@.#.#.+.t [ fX_ ~ | V.fXM.<X7X7X7X7X4XlXR.F.",
"0X{.).!.4.a.9.p.j.h.h.jXM.5X7X:X2 ..1 i 8.g.t.t.t.t.t.l.z.>X4X7X6X7X8X5X:Xj.&.O.+.#.#.#.+.&.b.r G m.C.C._ N.fXN.:X7X6X6X6X,XT.G.",
"0X`.).!.( ` z W { Q C.ZXm.<X7X8X&.<  .< 2 M 8.t.t.t.=X6X9X9X7X7X7X5Xj.N ! ( 1 @.#.#.#.#.$.Z.p v 6.i.i._ s._ [ jXM.7X7X7X4X,XR.H.",
"0X`.!./.| BX} { { ! h.} W _ 5X7Xj.<  . .1 t ! i 3.g.2X:XS.5X7X9X>Xi.N _ _ p o.#.#.#.#.#.o.b.N 8.7.l.5X:Xm._ dX| j.<X5X7X4XzX|.G.",
"wX'.!./.) bX) W ! s.<Xj./ ) s.8Xx.1  . .< p [ K M 2.j.xXnXB.:XA._ _ V.( p 3 X.#.#.#.#.#.X.y 4.v i i.4X9X5Xj./ dX[ V.A.9XS.nX|.Y.",
"wX'.!._.Q / p p.5XS.g.<XA./ / h.s.,  . . ., N _ _ ~ ! AXBXV.b._ m.! u 0 6 7 X.@.#.#.#.+.%.2.M 8.t.7.5.>X9X6Xs.| C.Z.B.8XD./.|.G.",
"eX`.^._.{ ) B k.2X9X:Xp.3Xf.Q bXbXy  . . .1 3.i.~ ~ 9 C./ ! N p 3 6 6 j j 6 ....+.#.#.O.5.M a.t.t.k.7.4.>X9XA.Z._ m.Z.:X;X).R.G.",
"qXU._._.) m g.t.v.8X8Xj.:X<X^ xX[ 1  . . .< <.6.6.g.~ BXZXp 7 7 6 =.j 7 6 a o., X.#.#.O.3.3.t.0.0.0.g.8.4.:X>XZ.V.) C.h.).).T.G.",
"0X`.K.K.p 8.r.0.k.2X5X:Xi.j.! Q ( 1  . . .< y v v 7 7 M.hX7 j 6 7 6 z 3.9.7.O., X.#.@...a 4.k.0.0.0.t.k.8.p.5Xm.hXV.| C.).(.T.H.",
"eXU. X'.5.t.t.0.0.8.x.9X4Xi.h.! V.2  . ... .> 7 7 j 6 7 6 6 4 q u 2.3.5.2.i ..; 1 ..; ; i 6.3.k.t.t.0.0.k.1X6X^ [ V./ _.(.(.T.H.",
"qXU.oXi.k.0.0.t.8.4.>X7X9X:Xs.! bXt < < , < , 3 : X . . 0 p + % 9 # 9 # + o > o .     u k.8.i 8.k.0.t.k.8.<X9Xs./ | hX)././.R.G.",
"qXP.'.7.0.t.0.9.M A.9X6X7X7X>Xh.AXNX8 : . ; : + * & * W G w - $ $ @ & - w w w @ w - : p.k.k.7.v 0.0.0.0.4.4X4X~ V.) [ _.).(.R.G.",
"0XP.K.s.8.t.t.<.5.=X6X6X6X7X9XS.BX} $ & & $ + - w / / Q } G / / Q G - G F & = e { Q p k.t.0.0.6.8.0.t.3.j.9Xj.C.C.[ dX/.).).R.G.",
"-XU./.K.h.6.9.9.t.k.z.z.v.v.3XB.V.& & & & $ $ + % % G / ) e Q - * * $ + $ = e { Q + 0 a.t.t.0.t.0.9.M p.5X:X_ | ) hXxX/.)./.R.G.",
"0X`./.J./.cXh.6.t.t.t.t.0.t.g.zX) $ = & $ + & Q G & $ - - e * + $ + & e Q - ) G + = # u 0.t.0.t.9.i 3.z.B.^ dX| dXjX(._.).).R.G.",
"0X`.!.!.(.].).zX6.9.t.t.k.8.h.].{ $ = $ + }  X).(.MXhX| [ ) ) } C.kX}.`.(.MX) + = = $ W i.9.t.8.v 3.8.i.cX/.).kXkX[./._.).).R.G.",
"0X'.~._./.).(.).cXi.t.t.7.j.).).dX$ = = * ^.'.].(.(.].).).].)./.(. X XL._./.jX+ = = $ /./.i.a.3.4.5.M.)._.).).).)._.].)./.).|.G.",
"0X`.).).)._.].).(.MXi.~ hX_.).).kX+ & $ + ) ~.]./.(.).!./.).)._.(._.`.(././.) + $ = & /.)./.m.i.m.nX_./.]././.).(._.'.]././.|.G.",
"%X`.]._.].'.'.)./._././.)._._.).].- # % . 8 ^.].)./._. XL._./._._./.(.(._./.@ = & & W /.].)./._.{. X_./././.).)._.U.R.`._./.}.G.",
"0X`.)._._.OXoX].].(.!.!./././.).].s.> ; 1 < fX~.)./.(.+XU.^./././._._._._.s.: . 9 . ) `.]._././.'.'.].)./.].].].'.+X%XR././.}.G.",
"0X`.)./.'.P.`.~._._././././.).jXsX! 2 X.&.d.&.~.!./.K.{.OX'./.).)._./.)._.y d.y 2 8 ( V.bX^./.!.~.].]./.)./.(./.K.`.{.'._./.}.G.",
"0X'.)./._._.L.]./.].]./.).].~.dXbXbXb.o.d.fXy ~.!./._.L.OX'./._./.).].].zXy cX&.O.V.bXbXdX~.).!.!.).].)./././.(./././.)._._.}.G.",
"0X`.)./.)._./.)./.(./.)././.fXC.jXbXMXd.o.y t jX/./.)._._.].).].).].).(.fXy %.o.n.MXmXjXV.jX)./.]././._.)._.).].)._././.]./.}.G.",
"0X`.)./././.)././.J.).].~./.dXdXdXdXhXV.n.V.fX]./.).]._.].).]./._.]._.].].sXb.b.dXdXdXfXV.jX).).J./././.)././._.).).)._.)./.|.G.",
"0X`.).`.`._.].'.`.(._.L.)./.(.MXxXxXjXkXbXMX].].)._.'.L.].'.[.).(.'.`.(.]./.mXkXjXjXjXxXmXJ.'.).K.`.'._.)./._.P.J././.'.'.L.|.G.",
"%XU.L..XrX|.^..X.X_.`.Q.].]./.L.OX}..XoXoX.X^.~.!.U.+XP.'.+X}.].'. XoX_.].~.J.L.Q.'.]._.K.XXR.^.{.qX.X_.K./.L.+XP.J.).E.0XE.R.G.",
"*X.XE.%XwX$XW.$X%XW.W.%XW.E.XXXXqX.X0X$X$X%XE..XE.$X0XW.XX%XW..XW.%X+XW..XE.E.W.%XW..X.X.X-X0XE.-XwX%X.XW..X.XqXW.E. X0XwX$X$XF.",
"qXrXtXwXwXwXwXwX*X&XwXwXwX*XwXeXwXeXeXwXwX0X0X&X&XeXtXeXtXwXeX&X*X0XeXeXeX*XwXtXtX0XwX&XwXtXrXeXwXwX&XeX*XtXtXeXeX*XwXtXtXrXtXI."
};
